<svg width="25" height="43" viewBox="0 0 25 43" fill="none" xmlns="http://www.w3.org/2000/svg">
<path d="M21.2412 18.5114L10.7311 19.4521C9.8949 19.527 9.11442 19.8029 8.5614 20.2193C8.00837 20.6356 7.72809 21.1582 7.78222 21.6722C7.83635 22.1861 8.22046 22.6492 8.85004 22.9597C9.47962 23.2702 10.3031 23.4026 11.1393 23.3277L21.6494 22.387C22.4856 22.3121 23.2661 22.0362 23.8191 21.6198C24.3721 21.2035 24.6524 20.6809 24.5983 20.1669C24.5441 19.653 24.16 19.1899 23.5305 18.8794C22.9009 18.5689 22.0774 18.4365 21.2412 18.5114Z" fill="black"/>
<path d="M4.11125 8.30908C4.61463 8.264 5.10415 8.14972 5.5433 7.97477L15.3249 4.09177C16.1031 3.78282 16.6754 3.3044 16.9159 2.76176C17.1564 2.21911 17.0454 1.6567 16.6073 1.19824C16.1692 0.739773 15.4399 0.422817 14.5798 0.317094C13.7197 0.211372 12.7994 0.325542 12.0212 0.634491L2.24067 4.51756C1.57525 4.78151 1.05676 5.17085 0.770233 5.62171C0.483709 6.07258 0.446166 6.55822 0.663752 6.99898C0.881337 7.43973 1.34114 7.80944 1.96775 8.04747C2.59435 8.28549 3.35057 8.37771 4.11237 8.30898L4.11125 8.30908Z" fill="black"/>
<path d="M18.8498 37.5837L8.42833 35.5064C7.60057 35.3454 6.67682 35.3993 5.85864 35.6563C5.04045 35.9134 4.39424 36.3527 4.06101 36.8784C3.72778 37.4042 3.73457 37.9737 4.0799 38.4626C4.42523 38.9516 5.08106 39.3204 5.90432 39.4885L16.3258 41.566C17.155 41.7313 18.0832 41.6801 18.9062 41.4235C19.7293 41.167 20.3796 40.7262 20.7143 40.1981C21.049 39.67 21.0406 39.0979 20.691 38.6076C20.3413 38.1173 19.679 37.749 18.8498 37.5837Z" fill="black"/>
</svg>
