<svg width="50" height="48" viewBox="0 0 50 48" fill="none" xmlns="http://www.w3.org/2000/svg">
<path d="M49.1113 20.1108L29.1118 1.64062C26.7421 -0.546875 23.0334 -0.546875 20.6677 1.64062L0.666241 20.1108C-0.174326 20.8866 -0.226988 22.1991 0.55079 23.0417C1.32857 23.8822 2.63904 23.9349 3.48163 23.1571L5.25467 21.5198V41.4389C5.25467 45.0271 8.19995 47.9514 11.7881 47.9514H38.0041C41.5922 47.9514 44.5378 45.0271 44.5378 41.4389V21.5333L46.2959 23.1571C47.138 23.9351 48.4478 23.8822 49.2267 23.0417C50.0045 22.1991 49.9518 20.8866 49.1113 20.1108ZM26.9702 38.3278C26.9702 39.4686 26.0367 40.4019 24.8961 40.4019C23.7347 40.4019 22.822 39.4686 22.822 38.3278V29.7619C22.822 28.6212 23.7347 27.6878 24.8961 27.6878C26.0367 27.6878 26.9702 28.6212 26.9702 29.7619V38.3278ZM24.8961 24.4523C23.7174 24.4523 22.822 23.5267 22.822 22.3782C22.822 21.1801 23.8055 20.309 24.8961 20.321C26.0959 20.3341 26.9702 21.2803 26.9702 22.3782C26.9702 23.504 26.0919 24.4523 24.8961 24.4523Z" fill="#DE0030"/>
</svg>
