<svg width="1920" height="1337" viewBox="0 0 1920 1337" fill="none" xmlns="http://www.w3.org/2000/svg">
<path opacity="0.25" d="M208.524 -65.4223C263.728 24.022 446.574 185.484 736.332 115.778C1098.53 28.6458 1421.14 173.814 1612.56 499.031C1803.99 824.248 1811.34 921.669 2035.8 1029.63C2215.36 1115.99 2371.84 1247.6 2427.63 1302.6L2165.72 1375.28C2102.11 1294.36 1929.83 1147.01 1749.62 1204.95C1524.37 1277.36 1754.81 702.964 1344.74 384.715C934.677 66.466 565.611 418.157 274.486 189.872C41.5863 7.24362 -347.513 -174.359 -512.95 -242.331C-431.054 -167.656 -180.168 44.8919 168.198 297.681C603.656 613.667 1015.78 341.647 1236.78 609.17C1457.79 876.693 1185.72 1102.31 1354.22 1367.71C1489.03 1580.03 1987.69 1841.13 2220.17 1945.15L2476.85 1546.35" stroke="white" stroke-width="30"/>
</svg>
