<svg width="1262" height="186" viewBox="0 0 1262 186" fill="none" xmlns="http://www.w3.org/2000/svg">
<path d="M1022.24 26.6532C1021.81 25.9216 1020.94 25.8011 1020.07 25.7753C1017.73 25.7065 1015.35 25.2245 1013 25.0868C1007.41 24.708 1001.8 24.5531 996.195 24.3207C990.64 24.0883 985.02 24.1486 979.483 24.424C977.457 24.5101 975.431 24.5703 973.396 24.665C971.22 22.255 966.813 21.0586 963.602 20.568C960.381 20.0602 956.795 20.1635 953.686 21.1275C954.564 18.6056 951.324 16.9961 948.635 16.428C945.227 15.7222 939.784 16.2731 937.179 18.7777C937.011 17.8826 935.76 17.392 934.696 17.151C933.277 16.8325 931.755 16.9616 930.317 17.3059C930.055 14.2418 924.762 12.4085 921.858 11.8576C919.468 11.41 917.05 11.3412 914.641 11.4875C915.911 10.4202 916.658 9.00867 916.097 7.29585C915.341 4.96332 912.886 3.43125 910.617 2.51029C907.713 1.3139 904.893 0.50484 901.71 0.315483C898.909 0.143341 895.893 -0.32145 893.148 0.358511C890.618 0.978223 887.397 1.4258 885.268 2.96647C884.241 3.69807 882.785 4.35221 881.926 5.27317C881.543 5.67771 881.281 6.08224 881.039 6.52981C880.488 6.24578 879.834 6.08224 879.022 6.06503C876.753 6.04781 874.531 6.71057 872.542 7.69178C871.515 8.1996 870.115 9.31852 869.723 10.36C869.714 10.3772 869.714 10.3858 869.714 10.3858C869.144 10.0673 868.518 9.7833 867.865 9.53369C862.991 7.69177 857.847 8.75905 852.842 9.38737C849.976 9.73165 845.382 11.9781 843.889 14.3537C843.198 15.4382 842.6 16.23 842.6 17.4695V17.5297C841.134 16.867 839.342 16.8067 837.689 17.2973C836.914 17.5469 835.42 18.5626 834.748 19.6212C833.03 18.8466 831.312 18.5281 829.408 18.2957C825.496 17.8223 821.397 17.7879 817.476 18.1494C813.974 18.4765 810.342 19.5007 807.28 21.0844C805.824 21.8505 804.031 22.9005 803.107 24.3121C801.529 24.0109 799.886 23.985 798.196 23.985C794.041 23.985 789.914 24.3035 785.787 24.6736C777.814 25.4224 769.897 26.4725 762.054 28.0132C761.298 28.1595 751.112 30.5523 754.118 32.136C754.865 32.5233 755.929 32.5233 756.76 32.5663C758.553 32.6696 760.364 32.6954 762.157 32.7213C766.209 32.7815 770.27 32.5663 774.331 32.4803C807.728 31.8003 841.106 31.9638 874.503 31.7142C875.689 31.7142 876.875 31.697 878.07 31.6884C877.986 31.7745 877.902 31.8605 877.808 31.9466C875.67 34.3136 884.176 35.2173 884.941 35.3292C891.682 36.2674 898.582 36.2932 905.37 36.3276C919.627 36.3707 933.837 37.1195 948.075 36.6461C954.825 36.4137 961.576 35.9489 968.317 35.4755C974.684 35.0107 981.033 34.107 986.99 31.9122C987.214 31.8261 987.634 31.4044 987.354 31.1892C986.607 30.5867 985.701 30.208 984.74 29.9756C989.034 29.8034 993.32 29.5022 997.605 29.2009C1002.38 28.8567 1007.18 28.6673 1011.94 28.4091C1014.92 28.237 1019.17 28.7534 1021.88 27.3676C1022.09 27.2902 1022.38 26.9115 1022.24 26.6532Z" fill="white"/>
<path d="M850.387 39.7954C849.948 39.0466 849.061 38.9433 848.202 38.9174C845.859 38.8314 843.488 38.3666 841.135 38.2117C835.533 37.8502 829.931 37.6952 824.329 37.4456C818.774 37.2132 813.163 37.2735 807.617 37.5489C805.6 37.6522 803.565 37.6952 801.539 37.8071C799.354 35.3971 794.956 34.1922 791.735 33.7015C788.514 33.2109 784.938 33.297 781.81 34.2782C782.697 31.7563 779.467 30.1468 776.778 29.5787C773.37 28.8557 767.927 29.4066 765.313 31.9113C765.145 31.0161 763.894 30.5255 762.82 30.3017C761.41 29.9833 759.907 30.1038 758.46 30.4481C758.189 27.3925 752.904 25.5678 750.001 25.017C747.601 24.5522 745.183 24.4833 742.774 24.6383C744.044 23.571 744.8 22.1422 744.24 20.4466C743.475 18.1141 741.028 16.5734 738.76 15.6524C735.847 14.4733 733.027 13.647 729.843 13.4662C727.061 13.2941 724.027 12.8465 721.282 13.5093C718.742 14.129 715.521 14.5938 713.402 16.1172C712.375 16.866 710.927 17.503 710.059 18.4239C709.686 18.8285 709.415 19.2416 709.172 19.6806C708.621 19.4051 707.977 19.2502 707.156 19.233C704.887 19.2072 702.655 19.8699 700.685 20.8597C699.658 21.3675 698.267 22.4779 697.856 23.5279L697.847 23.5538C697.277 23.2353 696.652 22.9513 696.008 22.7017C691.115 20.8597 685.971 21.927 680.967 22.5467C678.1 22.9082 673.507 25.1547 672.013 27.5216C671.322 28.5975 670.724 29.4066 670.715 30.6374L670.724 30.6977C669.268 30.0521 667.466 29.9919 665.813 30.4825C665.029 30.7321 663.535 31.7477 662.882 32.7892C661.145 32.0232 659.427 31.7133 657.523 31.4809C653.611 30.9903 649.521 30.9731 645.6 31.3346C642.099 31.6617 638.467 32.6773 635.395 34.261C633.938 35.027 632.146 36.0943 631.222 37.5059C629.644 37.1874 628 37.1788 626.311 37.1788C622.174 37.1616 618.038 37.4801 613.912 37.8588C605.938 38.6076 598.021 39.6577 590.178 41.1983C589.422 41.3533 579.245 43.7374 582.242 45.3298C582.98 45.7171 584.053 45.7171 584.884 45.7601C586.668 45.8462 588.479 45.8892 590.281 45.915C594.333 45.9753 598.404 45.7429 602.474 45.6568C635.862 44.9941 669.24 45.1404 702.637 44.8908C703.813 44.8908 705.017 44.8736 706.203 44.8736C706.11 44.9424 706.016 45.0285 705.942 45.1146C703.804 47.4815 712.3 48.4025 713.084 48.5058C719.825 49.4439 726.716 49.487 733.503 49.4956C747.751 49.5386 761.97 50.2874 776.209 49.8141C782.959 49.5989 789.709 49.1341 796.45 48.6435C802.827 48.1787 809.157 47.2922 815.123 45.0974C815.357 45.0113 815.767 44.5809 815.487 44.3658C814.74 43.7633 813.835 43.4018 812.873 43.1522C817.168 42.98 821.453 42.6788 825.739 42.3775C830.51 42.0332 835.29 41.8439 840.07 41.5857C843.058 41.4307 847.306 41.9299 850.014 40.5614C850.238 40.4237 850.527 40.0536 850.387 39.7954Z" fill="white"/>
<path d="M1248.01 138.965C1234.62 134.885 1220.02 133.68 1206.06 132.406C1190.74 131.038 1175.34 130.659 1159.96 130.702C1145.1 130.763 1130.24 131.279 1115.43 132.346C1108.08 132.897 1100.74 133.698 1093.45 134.713C1093 134.773 1092.58 134.825 1092.12 134.868C1091.23 123.972 1077.19 122.956 1067.42 123.748C1063.13 124.075 1056.04 125.099 1051.31 127.922C1052 125.245 1052.07 122.431 1051.43 119.591C1049.95 112.903 1042.38 109.907 1035.92 108.694C1033.02 108.143 1030.1 108.091 1027.17 108.367C1028.8 101.275 1028.08 93.8725 1023.78 87.5893C1016.71 77.2177 1001.32 73.9556 989.053 73.2412C974.535 72.3891 959.886 77.4501 949.42 86.6511C944.509 90.946 941.166 96.291 939.327 102.239C939.271 102.454 939.215 102.66 939.168 102.858C934.472 101.619 929.318 101.386 924.762 101.98C919.524 102.66 914.044 105.57 910.122 109.546C901.944 105.251 890.264 104.201 882.169 105.845C875.307 107.239 868.052 111.13 864.401 116.81C863.318 118.497 862.273 120.589 861.591 122.801C857.539 120.623 853.03 119.014 848.744 117.654C835.113 113.376 820.408 113.247 806.31 114.934C795.264 116.234 782.8 120.813 774.145 127.337C772.016 128.955 770.252 130.909 768.973 133.043C762.708 133.233 756.434 133.491 750.533 133.809C735.697 134.601 720.367 135.557 705.876 138.879C700.732 140.058 694.122 144.078 702.049 147.107C708.593 149.629 715.446 150.499 722.383 150.912C721.403 150.981 720.413 151.041 719.414 151.127C704.093 152.384 688.893 155.043 674.16 159.14C666.822 161.197 659.521 163.538 652.509 166.43C647.196 168.617 640.633 171.259 637.43 176.01C633.35 182.061 646.076 183.748 649.605 184.239C664.264 186.21 679.379 185.504 694.131 184.927C721.59 183.851 749.133 181.639 776.498 178.721C782.763 179.901 789.242 180.322 795.647 180.839C809.512 181.923 823.395 181.82 837.279 182.405C866.596 183.67 895.819 185.934 925.192 184.497C954.247 183.085 983.293 181.872 1012.31 179.969C1026.6 179.031 1040.79 176.845 1054.97 175.081C1055.87 174.994 1056.76 174.848 1057.68 174.736C1062.13 175.33 1066.76 175.287 1071.1 175.313C1080.73 175.382 1090.4 174.736 1100.01 174.134C1120.36 172.825 1140.65 170.562 1160.92 168.341C1170.95 167.248 1180.99 166.25 1190.86 164.218C1194.6 163.444 1198.71 162.738 1201.71 160.431C1204.95 157.952 1202.2 156.093 1197.74 154.785C1208.69 154.398 1219.63 153.881 1230.51 152.943C1237.13 152.384 1243.78 151.6 1250.38 150.765C1253.35 150.387 1257.83 149.845 1260.23 147.882C1265.97 143.208 1250.14 139.619 1248.01 138.965Z" fill="white"/>
<path d="M487.12 141.073C486.336 139.748 484.749 139.558 483.18 139.49C478.923 139.335 474.638 138.508 470.352 138.224C460.203 137.544 450.054 137.269 439.878 136.839C429.822 136.417 419.636 136.52 409.581 137.028C405.921 137.174 402.251 137.269 398.564 137.476C394.614 133.112 386.631 130.951 380.787 130.056C374.97 129.144 368.472 129.325 362.814 131.08C364.41 126.501 358.538 123.584 353.673 122.568C347.502 121.286 337.643 122.25 332.881 126.803C332.592 125.185 330.313 124.298 328.399 123.868C325.841 123.291 323.096 123.523 320.463 124.143C319.978 118.6 310.399 115.269 305.142 114.288C300.801 113.47 296.413 113.341 292.043 113.608C294.349 111.646 295.694 109.098 294.704 106.017C293.322 101.765 288.869 98.9846 284.779 97.3148C279.495 95.1544 274.397 93.6998 268.627 93.3211C263.548 93.0198 258.077 92.1935 253.082 93.4244C248.488 94.5519 242.662 95.3696 238.806 98.1669C236.948 99.4924 234.306 100.672 232.737 102.333C232.056 103.056 231.561 103.83 231.122 104.605C230.123 104.097 228.947 103.813 227.453 103.787C223.364 103.744 219.321 104.967 215.736 106.74C213.868 107.678 211.347 109.675 210.61 111.577C210.591 111.594 210.591 111.603 210.591 111.603C209.583 111.043 208.444 110.518 207.267 110.062C198.398 106.731 189.07 108.676 179.995 109.786C174.823 110.449 166.485 114.529 163.769 118.79C162.517 120.778 161.444 122.224 161.444 124.453C161.444 124.479 161.444 124.539 161.444 124.539C158.783 123.386 155.515 123.257 152.537 124.169C151.127 124.591 148.401 126.458 147.206 128.361C144.068 126.966 140.959 126.398 137.514 125.968C130.428 125.107 122.977 125.055 115.881 125.727C109.523 126.304 102.941 128.137 97.3951 131.029C94.7249 132.397 91.4851 134.325 89.8419 136.882C86.9569 136.331 83.9692 136.279 80.9255 136.279C73.4002 136.279 65.9124 136.856 58.4525 137.536C43.9622 138.879 29.6119 140.789 15.3924 143.587C14.0199 143.862 -4.42905 148.2 0.995475 151.083C2.33994 151.789 4.30061 151.789 5.81312 151.858C9.04356 152.03 12.3113 152.09 15.5791 152.142C22.9457 152.254 30.2842 151.841 37.66 151.712C98.1981 150.472 158.736 150.765 219.265 150.3C221.422 150.3 223.578 150.283 225.744 150.274C225.576 150.421 225.408 150.567 225.25 150.722C221.384 155.017 236.817 156.687 238.227 156.876C250.43 158.58 262.941 158.632 275.237 158.666C301.062 158.752 326.85 160.104 352.656 159.243C364.915 158.838 377.164 158.004 389.367 157.143C400.935 156.308 412.41 154.681 423.221 150.687C423.632 150.541 424.379 149.784 423.875 149.388C422.53 148.277 420.878 147.615 419.141 147.184C426.919 146.866 434.696 146.324 442.445 145.773C451.1 145.153 459.783 144.809 468.438 144.335C473.844 144.043 481.556 144.955 486.467 142.476C486.85 142.209 487.382 141.547 487.12 141.073Z" fill="white"/>
</svg>
