<svg width="223" height="203" viewBox="0 0 223 203" fill="none" xmlns="http://www.w3.org/2000/svg">
<g opacity="0.02">
<path d="M34.423 148.343C34.121 142.341 34.1659 136.327 34.5578 130.33C34.9811 123.268 35.2506 116.859 39.4073 110.932C41.0674 108.464 43.2401 106.383 45.7773 104.831C52.4358 100.809 59.3638 104.697 61.4422 111.894C63.79 119.804 61.1728 125.211 57.2854 131.716C55.2957 134.838 53.5828 138.129 52.1664 141.55C51.3223 144.044 51.2375 146.732 51.9227 149.274C52.6079 151.816 54.0323 154.097 56.0153 155.829C59.614 159.004 64.6175 158.735 69.0438 157.754C71.7725 156.94 74.452 155.97 77.0687 154.848L80.1093 170.782C75.1339 177.596 68.3078 182.839 60.4415 185.889C51.7809 189.216 42.5412 190.774 33.2684 190.469C19.9705 189.776 15.679 184.234 16.1024 176.998C16.5065 168.55 25.3782 157.888 30.9206 151.98C32.0752 150.691 33.3069 149.594 34.423 148.343Z" fill="black"/>
<path fill-rule="evenodd" clip-rule="evenodd" d="M36.9273 149.589C36.0806 149.858 36.7734 131.287 37.3315 123.397C37.7858 118.581 39.815 114.05 43.1048 110.503C44.9397 108.327 47.4092 106.78 50.1675 106.077C55.4212 105.115 59.7897 109.541 60.0014 116.604C59.9937 119.891 59.188 123.127 57.6536 126.034C55.4212 130.056 51.8803 135.04 50.1675 140.024C49.179 142.884 48.9663 145.954 49.5511 148.922C50.136 151.89 51.4975 154.65 53.4968 156.921C60.4248 164.83 71.9137 160.116 77.5908 157.614L79.4575 167.486C68.238 185.191 44.5481 188.251 33.1747 187.693C-2.85087 185.749 37.7549 149.3 36.9273 149.589Z" fill="#63B72F"/>
<path d="M173.537 259.458C172.556 263.904 170.477 267.637 166.475 269.08C161.336 271.159 155.236 269.369 150.54 267.156C142.812 263.723 135.948 258.608 130.449 252.184C127.524 248.027 125.599 244.14 125.869 239.983C126.138 235.826 128.505 231.823 134.182 227.666C139.108 223.98 143.211 219.306 146.229 213.945C147.615 211.174 147.076 210.096 145.537 207.287C144.762 206.019 143.886 204.816 142.919 203.688L158.315 197.029C159.412 199.531 160.797 201.879 162.164 204.381C163.011 206.19 163.973 207.979 164.666 209.788C165.286 211.524 165.612 213.352 165.628 215.196C165.438 216.979 165.07 218.739 164.531 220.45L164.242 221.431C162.801 225.863 160.999 230.169 158.854 234.306C163.838 238.058 169.38 242.215 172.152 247.777C173.937 251.397 174.427 255.521 173.537 259.458Z" fill="black"/>
<path fill-rule="evenodd" clip-rule="evenodd" d="M171.174 256.012C171.398 252.794 170.471 249.602 168.557 247.005C166.544 244.506 164.316 242.187 161.898 240.077C159.92 238.363 157.788 236.837 155.528 235.516C156.914 231.36 159.377 227.472 160.782 223.315C161.144 222.517 161.428 221.686 161.629 220.833L162.033 219.851C163.125 216.817 163.172 213.505 162.168 210.441C160.782 206.592 158.011 202.955 156.394 199.202L146.349 203.763C147.731 205.582 148.774 207.636 149.428 209.825C149.851 211.455 149.652 213.184 148.87 214.675C145.785 220.709 141.322 225.93 135.841 229.916L135.707 230.051C133.414 231.639 131.453 233.659 129.933 235.997C129.103 237.362 128.608 238.903 128.488 240.495C128.367 242.087 128.625 243.684 129.24 245.158C130.176 247.104 131.291 248.96 132.57 250.7C137.809 256.748 144.278 261.61 151.545 264.96C154.735 266.548 158.239 267.403 161.802 267.462C168.403 267.366 170.77 261.785 171.174 256.012Z" fill="#63B72F"/>
<path d="M91.6595 25.0763C99.2646 25.7691 106.917 25.7691 114.522 25.0763C132.381 23.1519 160.381 21.0542 173.41 8.31444L169.445 192.118C165.597 199.046 154.897 204.877 147.969 207.918C130.918 215.404 109.595 217.54 92.41 210.689C88.4501 209.064 84.7228 206.922 81.3253 204.319C78.2654 181.456 74.6667 158.729 71.068 136.001C66.8535 107.827 62.0039 79.4803 60.0602 50.9216V50.7869C59.9255 49.2666 59.6368 46.4954 59.5021 43.5895C58.6746 31.5232 57.8471 20.4962 59.3674 13.1063C60.3296 8.81479 65.1407 5.06213 68.7971 3.11844C74.7751 0.237272 81.5113 -0.678851 88.0416 0.501201C91.0004 0.909383 93.922 1.5529 96.7785 2.42564L91.6595 25.0763Z" fill="black"/>
<path fill-rule="evenodd" clip-rule="evenodd" d="M62.8269 9.91406C60.1904 19.0552 68.504 24.1934 81.6672 26.676C98.583 29.7358 123.37 28.2155 142.499 24.5976C156.913 21.8264 167.016 17.9582 171.038 13.9361L167.517 191.716C149.369 210.691 107.859 220.583 83.5531 202.377C81.1091 184.923 75.1433 147.088 69.1968 107.83C66.2909 88.1619 63.4235 67.8013 62.2688 50.4813C61.1141 33.1613 59.2282 17.1307 62.8269 9.91406Z" fill="#63B72F"/>
<path d="M87.2099 37.4936C106.454 43.8635 127.816 38.3211 146.521 33.2021L150.197 32.0859L149.504 35.9348C147.714 45.3453 156.163 45.557 161.974 46.3268V179.787L159.896 180.076C158.644 180.324 157.462 180.843 156.432 181.596C155.681 182.194 155.07 182.95 154.642 183.809C154.247 184.474 154.097 185.258 154.219 186.022V186.176C154.219 186.409 154.269 186.64 154.365 186.852C154.461 187.065 154.602 187.254 154.777 187.408L156.297 189.332L154.373 190.852L154.103 191.141C151.943 192.761 149.621 194.154 147.176 195.298C144.714 196.558 142.136 197.576 139.478 198.339C126.131 201.925 112.125 202.308 98.6026 199.455L96.7936 199.031V197.107C96.7936 196.568 96.6589 196.145 96.6589 195.587C96.447 194.494 95.8536 193.511 94.9846 192.815C93.8476 192.169 92.559 191.837 91.2512 191.853C90.5036 191.817 89.7553 191.908 89.0381 192.123L86.6903 192.507L86.1515 190.006C85.3047 184.232 84.227 178.228 83.2263 171.589C82.2256 164.949 81.1479 158.56 80.3204 152.46C75.6055 120.168 71.314 85.393 68.6775 56.2377C68.5428 54.3132 68.2734 52.3888 68.1387 50.4644C69.9651 50.3337 71.7719 50.0046 73.5271 49.4829C74.7046 48.9226 75.7834 48.1753 76.7217 47.2698C80.3204 43.9405 80.1857 39.2256 80.1857 34.6647C82.495 35.6846 84.8621 36.6276 87.2099 37.4936Z" fill="white"/>
<path fill-rule="evenodd" clip-rule="evenodd" d="M82.6444 38.322C102.87 47.0589 127.522 40.9585 147.209 35.5508C144.842 48.0212 155.234 47.617 159.545 48.1559V177.709C153.579 178.556 149.692 184.926 152.887 188.948C139.3 200.033 113.532 200.495 99.1177 197.108C99.1177 191.026 94.422 188.525 88.591 189.641C81.5283 147.784 74.3308 94.0346 70.7129 52.4666C76.9481 51.9085 82.6444 46.9242 82.6444 38.322Z" fill="#CBF047"/>
<path d="M148.041 25.8467C150.541 25.8775 153.007 26.437 155.275 27.4884C157.544 28.5398 159.565 30.0593 161.204 31.9472C164.752 35.9029 166.682 41.0481 166.612 46.3612C166.648 51.7087 164.724 56.8842 161.204 60.91C159.537 62.7531 157.507 64.2325 155.243 65.2556C152.978 66.2788 150.526 66.8238 148.041 66.8565H147.906C145.431 66.8182 142.989 66.2704 140.735 65.2474C138.48 64.2243 136.46 62.7479 134.801 60.91C131.281 56.8842 129.357 51.7087 129.393 46.3612C129.354 41.0131 131.278 35.8364 134.801 31.8125C136.474 29.9757 138.505 28.4994 140.768 27.4737C143.031 26.448 145.48 25.8944 147.964 25.8467H148.099H148.041Z" fill="black"/>
<path fill-rule="evenodd" clip-rule="evenodd" d="M148.043 27.2373C157.665 27.2373 165.497 35.8396 165.497 46.3663C165.497 56.893 157.607 65.4952 148.043 65.4952C138.478 65.4952 130.453 56.9122 130.453 46.3855C130.453 35.8588 138.343 27.2373 148.043 27.2373Z" fill="#699547"/>
<path d="M156.356 39.0092C155.459 37.7355 154.272 36.6933 152.893 35.9685V31.2537C155.736 32.2211 158.174 34.1109 159.82 36.6228L156.356 38.9707V39.0092ZM152.893 42.3962C153.943 42.7724 154.96 43.2359 155.933 43.7818C156.838 44.2992 157.626 44.9981 158.248 45.8346C158.87 46.6711 159.312 47.6272 159.547 48.6428C159.782 49.6584 159.805 50.7115 159.613 51.7362C159.422 52.7609 159.021 53.7349 158.435 54.5971C157.163 56.6467 155.195 58.17 152.893 58.8886V54.2507C153.668 53.7593 154.326 53.1021 154.817 52.3263C155.196 51.8386 155.423 51.2504 155.471 50.6347C155.519 50.019 155.385 49.4027 155.086 48.8623C154.518 48.082 153.755 47.4648 152.873 47.0726L152.893 42.3962ZM152.893 35.8916C152.623 35.6029 152.334 35.6029 152.065 35.4682L151.507 41.8381C151.928 42.1128 152.399 42.3024 152.893 42.3962V46.9763C152.308 46.7009 151.703 46.4693 151.084 46.2835L150.198 55.2322C151.141 55.1122 152.043 54.7763 152.835 54.2507V58.9656C151.869 59.3553 150.835 59.5452 149.794 59.5237L149.429 63.565L147.773 63.4111V53.5579L148.466 45.3791C148.21 45.3777 147.963 45.2818 147.773 45.1096V40.4717C148.115 40.7395 148.482 40.9717 148.87 41.1645L149.429 35.3912C148.851 35.3783 148.28 35.5177 147.773 35.7953V31.1189C148.406 30.9681 149.049 30.8715 149.698 30.8303L149.987 29.5986L152.623 29.7333L152.469 31.2537H152.893V35.8916ZM147.773 63.3918L146.792 63.2571L147.215 59.235C145.275 58.7923 143.543 57.7001 142.308 56.1392C141.073 54.5784 140.407 52.6425 140.422 50.652H144.714C144.697 51.5796 144.967 52.4896 145.487 53.2577C146.007 54.0259 146.752 54.6146 147.62 54.9435L147.773 53.5579V63.3918ZM147.773 45.1096C146.986 44.9003 146.234 44.576 145.541 44.1474L145.406 43.9935C143.912 43.1543 142.74 41.8404 142.077 40.26C141.677 38.9062 141.702 37.4622 142.15 36.1232C142.597 34.7843 143.445 33.6151 144.579 32.774C145.564 32.0797 146.638 31.5229 147.773 31.1189V35.6799C145.137 37.0655 145.965 39.1439 147.773 40.3948V45.1096Z" fill="white"/>
<path d="M87.4988 146.822C86.6316 150.031 86.5327 153.4 87.2101 156.656C87.9714 160.112 90.0402 163.139 92.9834 165.104L91.8672 166.913C90.0993 165.784 88.5834 164.302 87.4145 162.56C86.2456 160.819 85.4488 158.854 85.074 156.79C84.475 153.206 84.573 149.541 85.3626 145.994L87.4988 146.822Z" fill="black"/>
<path d="M147.614 130.328C149.154 132.253 150.385 134.485 152.059 136.429C153.734 138.372 155.658 139.758 158.006 138.911L158.699 140.836C154.138 142.51 151.232 139.046 148.73 135.428C147.727 134.204 146.802 132.919 145.959 131.579L147.614 130.328Z" fill="black"/>
<path d="M43.0063 146.956L43.1603 147.091C48.0099 150.286 48.414 155.963 46.759 160.947C45.8334 163.743 44.539 166.403 42.9101 168.856C45.0043 170.956 46.2102 173.782 46.2779 176.747C46.2731 180.437 44.902 183.995 42.429 186.735C39.9046 189.531 36.7069 191.636 33.1399 192.848C29.5729 194.061 25.755 194.341 22.0491 193.663C19.2547 193.163 16.5864 192.117 14.1974 190.583C10.0557 187.524 6.74736 183.475 4.5752 178.806C4.39897 178.319 4.16646 177.854 3.8824 177.42C0.135598 168.963 -0.932201 159.561 0.82254 150.478C1.6922 145.864 3.69272 141.538 6.6449 137.887C9.59708 134.237 13.4087 131.375 17.7384 129.559C22.413 127.671 27.5903 127.427 32.4219 128.867C34.5074 129.366 36.4682 130.288 38.183 131.575C39.8977 132.863 41.3298 134.489 42.3905 136.353C43.2368 137.976 43.7293 139.761 43.8354 141.588C43.9416 143.416 43.659 145.246 43.0063 146.956Z" fill="black"/>
<path fill-rule="evenodd" clip-rule="evenodd" d="M40.0987 137.678C40.7657 138.954 41.1379 140.364 41.1878 141.802C41.2378 143.241 40.9642 144.673 40.3873 145.992C30.1301 143.625 20.5656 144.183 11.6939 150.688L12.9448 152.497C16.4245 149.791 20.5148 147.98 24.8571 147.224C28.8068 146.584 32.8376 146.636 36.7694 147.378C38.732 147.722 40.5851 148.527 42.1771 149.725C45.3716 152.227 47.0267 157.211 40.6568 167.603C31.381 166.218 22.5093 168.566 14.3304 172.318L15.1579 174.397C23.2021 170.933 31.381 168.623 40.1757 169.547C47.3923 176.321 42.5427 185.886 34.0752 189.773C28.1286 192.41 18.5642 191.293 14.2727 187.271C3.74597 177.995 -0.141406 159.983 4.65045 146.531C7.69107 137.813 16.6975 130.327 25.9925 130.462C31.227 130.596 37.6161 132.54 40.0987 137.678Z" fill="#63B72F"/>
<path d="M99.5412 99.1514L99.8106 99.0167C101.367 98.9856 102.91 99.305 104.326 99.9512C105.741 100.598 106.994 101.554 107.99 102.75C112.974 108.293 113.128 116.895 111.838 123.669C111.621 125.438 111.154 127.168 110.453 128.807H110.588C111.415 129.077 112.108 129.211 112.666 129.365H112.801L112.666 131.444H112.108C111.55 131.29 110.857 131.02 110.183 130.885C104.641 129.904 96.058 129.635 91.3431 133.233L90.0922 131.578C90.9511 130.961 91.8816 130.451 92.8634 130.058C90.8867 126.99 89.5819 123.538 89.0346 119.929C88.4873 116.32 88.71 112.637 89.6881 109.12C89.6881 108.985 89.8228 108.851 89.8228 108.716C91.3431 103.443 95.0957 99.5748 99.445 99.0937L99.5412 99.1514Z" fill="black"/>
<path fill-rule="evenodd" clip-rule="evenodd" d="M99.6834 101.651C105.226 101.093 108.286 104.826 109.671 109.811C111.162 116.019 110.774 122.53 108.555 128.516C106.112 128.271 103.654 128.226 101.204 128.382C99.1029 128.449 97.0142 128.726 94.9685 129.209V129.363C92.0626 125.514 91.2351 120.203 90.9656 116.046C90.4075 108.714 94.2757 102.19 99.6834 101.651Z" fill="white"/>
<path fill-rule="evenodd" clip-rule="evenodd" d="M101.065 110.099C103.702 109.81 106.049 112.447 106.338 116.045C106.627 119.644 104.664 122.839 102.085 123.223C99.5063 123.608 97.2355 120.722 96.9468 117.123C96.6581 113.524 98.4286 110.368 101.065 110.099Z" fill="black"/>
<path d="M109.781 109.754C107.805 107.107 104.955 105.245 101.737 104.5C98.138 103.942 95.0973 106.29 93.1537 109.196C92.1303 110.887 91.3345 112.705 90.7866 114.604C90.6499 114.852 90.4495 115.06 90.206 115.205C89.9625 115.351 89.6846 115.429 89.401 115.431C88.9885 114.959 88.7037 114.389 88.5735 113.776C88.2068 111.773 88.2515 109.717 88.7048 107.732C89.158 105.747 90.0104 103.875 91.21 102.229C92.3166 100.836 93.7409 99.7278 95.3637 98.9977C96.9864 98.2676 98.7604 97.9368 100.537 98.0329C102.314 98.129 104.042 98.6492 105.577 99.5501C107.111 100.451 108.408 101.706 109.357 103.211C110.259 104.546 110.875 106.053 111.166 107.637C111.301 108.465 111.301 110.139 110.878 110.274C110.07 110.37 110.358 110.235 109.781 109.754Z" fill="black"/>
<path fill-rule="evenodd" clip-rule="evenodd" d="M110.068 107.83C109.074 106.355 107.758 105.124 106.219 104.232C104.223 102.897 101.806 102.344 99.4276 102.677C97.0496 103.011 94.8776 104.208 93.3257 106.04C91.3859 108.063 90.0871 110.614 89.5923 113.373C89.3117 109.785 90.3979 106.224 92.6329 103.404C93.7663 101.793 95.3946 100.597 97.2702 99.9957C99.1459 99.3948 101.166 99.4225 103.025 100.075C104.72 100.732 106.239 101.776 107.461 103.122C108.684 104.468 109.576 106.08 110.068 107.83Z" fill="#699547"/>
<path fill-rule="evenodd" clip-rule="evenodd" d="M104.122 109.964C105.084 109.81 106.047 110.927 106.201 112.312C106.354 113.698 105.508 115.083 104.526 115.218C103.545 115.353 102.602 114.256 102.448 112.736C102.294 111.215 103.141 109.964 104.122 109.964Z" fill="white"/>
<path fill-rule="evenodd" clip-rule="evenodd" d="M86.5202 99.5758C85.1346 101.924 84.5958 101.654 84.1724 100.538C83.5984 99.2443 83.1537 97.8971 82.8445 96.5159C82.6386 95.6825 82.734 94.8032 83.114 94.0334C87.136 87.6443 99.7411 83.6414 105.149 90.9735C101.53 90.1512 97.7403 90.549 94.3708 92.105C91.0014 93.6609 88.2412 96.2876 86.5202 99.5758Z" fill="black"/>
<path d="M128.914 85.5663H129.03C131.033 85.469 133.034 85.8035 134.897 86.5473C136.759 87.291 138.44 88.4266 139.826 89.877C142.215 92.4468 143.887 95.599 144.675 99.0181C145.699 104.214 145.462 109.579 143.983 114.664C143.472 117.341 142.584 119.933 141.346 122.362C142.307 122.746 143.234 123.209 144.117 123.747L143.29 125.556C137.189 122.092 124.873 120.841 118.772 125.133L118.253 123.228C118.657 122.826 119.125 122.495 119.638 122.246C117.95 119.269 116.822 116.008 116.309 112.624C116.04 110.95 115.751 108.871 115.616 106.851C114.923 98.2099 118.387 86.6632 128.914 85.5663Z" fill="black"/>
<path fill-rule="evenodd" clip-rule="evenodd" d="M129.025 88.5841C135.953 87.8913 142.189 94.3574 142.881 102.979C143.285 108.252 141.207 117.951 139.417 120.588C133.495 119.225 127.346 119.179 121.405 120.453C118.345 115.045 118.345 110.831 117.941 105.481C117.286 96.8014 122.271 89.1806 129.025 88.5841Z" fill="white"/>
<path fill-rule="evenodd" clip-rule="evenodd" d="M132.875 95.2644C136.474 94.8602 139.803 98.4589 140.226 103.309C140.65 108.158 138.013 112.45 134.453 112.738C130.893 113.027 127.679 109.544 127.256 104.694C126.832 99.8445 129.334 95.6877 132.875 95.2644Z" fill="black"/>
<path fill-rule="evenodd" clip-rule="evenodd" d="M113.137 77.0379C120.834 70.1099 132.381 71.0914 143.197 77.4613C145.005 78.5582 145.41 78.2888 145.544 77.0379C145.874 75.4423 145.926 73.8017 145.698 72.1883C145.485 71.2733 145.061 70.4208 144.459 69.6991C143.858 68.9773 143.096 68.4062 142.234 68.0315C138.364 65.6923 133.84 64.6725 129.341 65.1256C122.413 66.0301 116.312 69.2247 113.137 77.0379Z" fill="black"/>
<path fill-rule="evenodd" clip-rule="evenodd" d="M136.394 95.9592C137.779 95.8245 139.03 97.2101 139.165 99.0191C139.3 100.828 138.337 102.483 136.952 102.618C135.566 102.753 134.315 101.367 134.181 99.5772C134.046 97.7875 135.008 96.1132 136.394 95.9592Z" fill="white"/>
<path d="M86.8077 154.305C87.9619 154.776 89.1711 155.099 90.4064 155.267C92.2698 155.714 94.17 155.991 96.0835 156.095C110.902 157.48 134.572 156.383 145.407 145.144C147.783 142.824 149.257 139.734 149.564 136.427L152.47 137.389C152.274 140.874 150.92 144.193 148.621 146.819C145.715 155.132 144.041 161.368 140.923 167.603C137.074 175.493 131.089 184.365 120.967 182.421C114.866 181.324 108.766 176.648 103.781 170.778C99.7592 166.487 95.6024 161.368 92.2346 159L89.5981 158.596C88.141 158.277 86.7072 157.859 85.3066 157.345L86.8077 154.305Z" fill="black"/>
<path d="M123.661 93.6079C120.831 96.3633 118.859 99.879 117.984 103.73C117.83 104.423 117.695 105.251 116.867 105.251C116.656 105.247 116.45 105.179 116.278 105.055C116.106 104.931 115.976 104.758 115.905 104.558C115.607 104.2 115.414 103.768 115.347 103.307C114.096 97.0719 116.733 89.0277 122.275 85.7177C125.444 83.9068 129.19 83.3943 132.729 84.2878C136.267 85.1814 139.321 87.4114 141.25 90.5095C142.738 92.7638 143.729 95.3093 144.156 97.9764C143.194 98.5345 142.078 97.2836 141.539 96.3214C140.38 94.0526 138.535 92.2074 136.266 91.0484H136.131C134.035 90.1774 131.726 89.9558 129.503 90.4121C127.279 90.8685 125.244 91.9818 123.661 93.6079Z" fill="black"/>
<path fill-rule="evenodd" clip-rule="evenodd" d="M116.594 103.307C116.929 100.445 117.963 97.7087 119.604 95.3396C121.245 92.9705 123.443 91.0409 126.004 89.7204C127.771 88.8236 129.729 88.3691 131.71 88.3959C133.691 88.4227 135.636 88.9301 137.378 89.8744C139.77 91.0815 141.713 93.024 142.92 95.4168C141.82 92.6309 140.001 90.187 137.647 88.3348C135.217 86.5027 132.219 85.5837 129.18 85.7385C126.14 85.8933 123.252 87.1121 121.02 89.1816C117.479 92.915 116.594 98.4574 116.594 103.307Z" fill="#699547"/>
<path d="M164.398 120.759L148.04 120.355C147.617 118.123 147.347 115.775 146.789 113.831C149.426 110.791 152.562 107.327 155.103 104.209C156.777 102.285 158.432 100.187 159.952 98.1085C159.56 97.599 159.372 96.9614 159.425 96.3205C159.479 95.6797 159.77 95.0819 160.241 94.6445C164.802 88.4093 169.863 82.1741 175.636 75.6695C181.41 69.1649 187.279 62.3716 194.053 54.8855L195.439 54.1927C200.577 53.9233 205.562 53.7693 210.546 53.6346C224.132 53.2305 237.007 52.8071 250.959 49.6125C253.674 49.0268 256.353 48.2879 258.984 47.3994V47.5341C263.699 53.4999 268.818 59.177 273.668 65.1428C277.516 69.8577 281.365 74.5533 285.599 79.1335C293.913 88.4093 302.496 97.281 311.637 105.729L304.843 113.427L288.082 110.656L289.332 163.174L211.604 179.801C208.41 180.224 208.698 178.146 209.102 181.321L173.674 177.434C172.557 158.863 171.364 139.061 164.398 120.759Z" fill="black"/>
<path fill-rule="evenodd" clip-rule="evenodd" d="M166.479 120.761C174.638 140.582 173.811 156.786 175.62 175.357L209.278 179.033L210.125 173.779L204.717 122.223L166.479 120.761Z" fill="#B28D68"/>
<path fill-rule="evenodd" clip-rule="evenodd" d="M206.926 122.147C209.004 139.891 211.217 160.386 212.333 177.302C233.387 173.28 261.926 167.044 287.156 161.079C286.598 139.198 286.174 117.163 285.905 95.2628C283.557 92.915 281.325 90.5672 279.246 88.2001C272.184 80.714 265.544 72.8046 259.155 64.9336C251.823 75.1139 244.491 84.4667 236.793 93.4731C228.749 101.921 216.702 115.508 208.388 122.34L206.926 122.147Z" fill="#E6CCAC"/>
<path d="M240.875 113.006L242.819 138.774L221.053 141.68L219.129 117.163L240.875 113.006Z" fill="black"/>
<path fill-rule="evenodd" clip-rule="evenodd" d="M239.22 138.081C239.066 137.522 239.22 136.83 239.066 136.156L237.68 116.488L221.399 119.664L220.572 119.798L220.418 118.124L239.97 114.391L241.625 137.811L239.22 138.081Z" fill="white"/>
<path fill-rule="evenodd" clip-rule="evenodd" d="M203.327 114.391H148.865L149.693 118.971L206.502 120.202L203.327 114.391Z" fill="white"/>
<path fill-rule="evenodd" clip-rule="evenodd" d="M150.812 112.451L202.907 112.586C205.544 110.103 208.18 107.601 210.605 105.119L197.865 103.733L213.799 101.809C219.47 96.1251 224.871 90.1658 230.003 83.9306C233.852 79.3504 237.701 74.5008 241.55 69.6512L232.274 68.1309L243.821 66.7453C245.072 65.0903 246.188 63.57 247.42 62.0304C249.787 58.297 252 54.5636 254.347 51.0996C233.852 56.0839 216.397 55.2564 195.614 56.3533C182.296 71.0368 171.212 83.6612 161.936 95.8429C161.378 96.6704 162.359 97.3632 162.494 98.056C162.629 98.7488 162.07 99.0375 161.801 99.4416L173.021 99.1722L159.299 102.636C156.624 105.908 153.853 109.122 150.812 112.451Z" fill="#C53629"/>
<path fill-rule="evenodd" clip-rule="evenodd" d="M204.719 113.43L208.317 119.934C227.318 102.469 244.325 82.951 259.027 61.739C272.795 79.3622 288.097 95.7325 304.751 110.658L309.043 105.905C297.145 94.8775 285.991 83.0741 275.654 70.5722C269.88 63.6442 263.183 56.8509 258.064 49.4033C257.452 50.9519 256.608 52.3988 255.563 53.6948C240.752 75.3307 223.71 95.3519 204.719 113.43Z" fill="white"/>
<path d="M166.479 56.617C166.056 54.1152 165.633 51.6134 165.229 49.2656C172.715 47.7453 180.74 46.7638 188.091 44.416C194.596 45.1088 201.389 45.5322 207.893 46.071C207.692 55.058 208.814 64.0256 211.223 72.6861L196.674 90.5064C188.091 91.0452 179.489 91.3339 170.906 91.738C170.482 87.4465 170.078 83.155 169.52 78.8635C169.097 75.1109 168.693 71.3774 168.134 67.644C168.036 66.9233 168.186 66.1906 168.558 65.5656C168.784 65.3161 168.966 65.0297 169.097 64.7189C169.097 64.5842 168.962 64.7189 168.827 64.5842C166.749 62.6982 166.884 59.2342 166.479 56.617Z" fill="black"/>
<path fill-rule="evenodd" clip-rule="evenodd" d="M167.309 50.5195C168.001 54.3684 168.694 58.2173 169.233 62.2971C169.368 63.1246 170.888 63.6827 171.023 64.5102C171.157 65.3378 169.772 66.5886 169.926 67.4161C171.023 75.1139 171.85 82.523 172.543 90.1438L194.578 89.0276L193.5 80.8872C191.691 69.5138 188.093 49.2879 187.727 46.7861C181.165 48.7106 173.12 49.2687 167.309 50.5195Z" fill="#B28D68"/>
<path fill-rule="evenodd" clip-rule="evenodd" d="M195.571 89.0302L209.697 72.2683C207.888 64.5705 205.963 56.7573 206.367 47.6162L189.471 46.5L195.571 89.0302Z" fill="#DDC9A9"/>
<path d="M188.779 63.1244C189.319 62.6555 189.992 62.3662 190.704 62.2969H191.242C191.935 69.629 193.475 76.9804 194.437 84.3317C194.014 84.0431 193.744 83.7736 193.475 83.6389C192.917 83.3503 192.359 83.3503 191.8 83.0808C190.909 82.8353 190.099 82.3571 189.453 81.6952C189.073 81.3662 188.653 81.088 188.202 80.8677V80.7138C187.954 80.6093 187.722 80.4735 187.509 80.3097C186.393 79.7516 186.393 79.6168 186.258 77.5385C186.123 76.7109 183.91 76.557 181.408 76.2876C178.907 76.0181 176.424 76.0181 175.308 74.902L175.173 74.7673L174.48 74.0745L175.462 73.7858C175.914 73.4192 176.327 73.0064 176.694 72.5541C179.008 70.2215 181.592 68.1736 184.391 66.4537C184.795 65.8956 186.316 63.8172 187.163 63.6825C187.733 63.6048 188.282 63.4151 188.779 63.1244Z" fill="black"/>
<path fill-rule="evenodd" clip-rule="evenodd" d="M190.171 63.5664C189.882 63.7011 189.612 63.9705 189.343 64.1052C188.753 64.4596 188.099 64.6949 187.419 64.798C187.284 64.952 187.284 64.952 187.13 64.952V69.9171L190.979 69.359C190.709 67.1459 190.421 65.2022 190.151 63.5856L190.171 63.5664ZM187.111 75.6134V71.014L191.267 70.4752L191.826 74.324L191.96 74.7474L187.111 75.5749V75.6134ZM187.265 76.8643C187.375 77.0283 187.422 77.2262 187.399 77.4224C187.534 78.9427 187.534 79.0774 188.092 79.3468L188.785 79.7702C189.327 80.0916 189.836 80.4654 190.305 80.8864C190.809 81.3947 191.43 81.7714 192.114 81.9833L192.249 82.118C192.384 82.118 192.653 82.272 192.807 82.272L193.076 82.4067V82.272C192.807 80.463 192.518 78.2499 192.114 75.8828L187.265 76.8643ZM187.111 64.952C186.482 65.6291 185.928 66.371 185.456 67.1651L185.186 67.4345H185.032C183.405 68.3895 181.877 69.5048 180.471 70.7638L187.111 69.9363V64.9328V64.952ZM187.111 71.0332V75.6134L185.725 75.8828C185.014 75.6066 184.27 75.4254 183.512 75.344L183.377 71.4951L187.111 71.0717V71.0332ZM179.086 72.0147C178.258 72.8422 177.411 73.6697 176.584 74.3625C178.185 74.9232 179.872 75.2031 181.568 75.19L182.261 75.344L182.126 71.4951L179.086 72.0147Z" fill="#999999"/>
<path d="M180.87 136.427C182.077 137.516 183.069 138.821 183.795 140.276L191.127 140.699L191.55 140.834L193.629 143.047L197.92 144.432L200.133 144.991L199.036 145.549L191.82 149.705L187.663 152.9V153.035C187.528 153.169 187.259 153.304 187.105 153.439V153.304C186.97 153.439 186.701 153.593 186.566 153.727C184.211 154.994 181.483 155.383 178.868 154.824C177.18 154.674 175.479 154.864 173.865 155.383L173.172 155.806C172.684 150.263 171.855 144.755 170.689 139.313L170.555 138.621C174.059 138.241 177.515 137.506 180.87 136.427Z" fill="black"/>
<path fill-rule="evenodd" clip-rule="evenodd" d="M182.911 153.748V148.764C183.642 148.582 184.391 148.486 185.144 148.475C187.915 148.071 190.532 147.783 193.303 147.513L191.514 148.475C190.98 148.81 190.472 149.183 189.993 149.592L186.972 152.093L186.568 152.517C186.358 152.545 186.162 152.64 186.01 152.786C185.054 153.262 184.015 153.55 182.95 153.633V153.768L182.911 153.748ZM182.911 147.648L184.99 147.224L184.836 142.24L182.911 142.471V147.59V147.648ZM182.911 141.278V141.143L183.065 141.278H182.911ZM195.805 146.128L197.191 145.3L192.899 143.914L190.821 141.836L187.761 141.682L185.971 141.971L186.106 147.09C189.474 146.686 192.649 146.32 195.844 146.128H195.805ZM175.291 142.279L177.792 142.009L177.523 138.411C176.766 138.542 176.02 138.728 175.291 138.969V142.471V142.279ZM182.988 141.047V141.182L178.985 141.875L178.831 138.122C179.506 137.88 180.202 137.699 180.91 137.583C181.76 138.636 182.459 139.802 182.988 141.047ZM182.988 142.433V147.552C180.506 147.821 178.004 148.244 175.291 148.668V143.626L182.988 142.529V142.433ZM182.988 148.668C182.295 148.803 181.603 148.803 180.91 148.937L181.199 153.652H182.911V148.764L182.988 148.668ZM175.291 153.652V149.803C176.83 149.534 178.216 149.264 179.736 149.11L180.005 153.556C178.389 153.748 176.869 153.614 175.329 153.748L175.291 153.652ZM171.98 139.661C172.266 140.662 172.497 141.677 172.673 142.702L175.291 142.279V139.065C174.173 139.222 173.067 139.453 171.98 139.758V139.661ZM175.291 143.51V148.649L173.635 149.053C173.366 147.263 173.077 145.589 172.808 143.799L175.291 143.51ZM175.291 149.88V153.729C174.938 153.867 174.57 153.958 174.194 153.998C174.059 152.902 173.905 151.785 173.77 150.669L173.635 150.265C174.232 150.169 174.79 150.169 175.329 149.996L175.291 149.88Z" fill="#999999"/>
<path d="M246.843 139.599L244.072 146.816L242.686 147.509L212.472 124.916L212.049 123.126L216.898 116.044C226.886 124.223 236.797 131.978 246.843 139.599Z" fill="black"/>
<path fill-rule="evenodd" clip-rule="evenodd" d="M217.186 117.586L245.168 140.16L242.954 145.837L213.299 123.398L217.186 117.586Z" fill="#B28D68"/>
<path fill-rule="evenodd" clip-rule="evenodd" d="M217.184 120.894C217.877 120.759 218.435 121.452 218.435 122.145C218.435 122.838 218.012 123.665 217.454 123.665C216.896 123.665 216.357 123.126 216.203 122.433C216.049 121.741 216.626 120.894 217.184 120.894Z" fill="#0A0B0C"/>
<path d="M231.873 165.236C232.434 163.986 233.351 162.928 234.509 162.195C235.533 161.682 236.675 161.45 237.819 161.524C238.962 161.599 240.065 161.976 241.014 162.619C241.148 162.753 241.302 162.888 241.437 162.888C243.166 163.976 244.669 165.387 245.863 167.045C246.198 167.578 246.571 168.086 246.979 168.565C247.863 169.93 248.514 171.432 248.904 173.011C250.275 176.588 250.563 180.49 249.731 184.23C249.286 186.181 248.54 188.051 247.518 189.773C244.593 194.892 238.781 200.165 227.427 202.243C222.259 203.228 216.961 203.319 211.762 202.512C211.062 202.489 210.366 202.399 209.684 202.243C197.079 200.165 182.934 194.064 168.674 183.672L169.232 161.079C171.714 162.888 173.389 164.408 174.486 165.101L175.313 175.628L208.317 179.034C208.308 177.727 208.639 176.44 209.28 175.301C210.164 174.042 211.354 173.028 212.737 172.355C214.121 171.682 215.653 171.371 217.189 171.452C217.599 169.697 218.38 168.05 219.479 166.622C220.272 165.651 221.279 164.877 222.421 164.36C223.562 163.842 224.808 163.596 226.061 163.639C228.1 163.684 230.097 164.233 231.873 165.236Z" fill="black"/>
<path fill-rule="evenodd" clip-rule="evenodd" d="M95.9433 159.562C99.9654 162.468 102.583 167.875 108.972 173.148C115.746 178.922 127.677 185.061 136.953 168.857C140.262 162.459 143.224 155.887 145.825 149.17C139.032 154.943 130.16 157.214 121.712 158.6C113.15 159.99 104.45 160.313 95.8086 159.562H95.9433Z" fill="white"/>
<path fill-rule="evenodd" clip-rule="evenodd" d="M169.787 181.727C178.589 188.4 188.416 193.6 198.885 197.122C207.382 200.269 216.536 201.222 225.5 199.893H225.634C232.004 198.931 238.798 196.429 243.089 191.445C243.935 190.595 244.637 189.614 245.168 188.539C246.785 185.665 247.587 182.405 247.489 179.109C247.39 175.813 246.395 172.606 244.609 169.834C244.15 169.156 243.642 168.513 243.089 167.909C242.175 166.686 240.989 165.691 239.625 165.003C238.846 164.477 237.929 164.189 236.989 164.176C236.283 164.329 235.629 164.666 235.096 165.152C234.562 165.639 234.166 166.258 233.948 166.947C236.677 169.295 238.679 172.373 239.721 175.819C240.599 178.151 240.844 180.673 240.431 183.13C240.019 185.587 238.964 187.892 237.374 189.809L235.565 188C236.782 186.404 237.574 184.525 237.867 182.539C238.16 180.553 237.944 178.526 237.239 176.646C236.346 173.619 234.554 170.934 232.101 168.948C231.249 168.146 230.266 167.495 229.195 167.024C227.974 166.417 226.593 166.211 225.249 166.435C223.904 166.66 222.665 167.304 221.709 168.275C220.866 169.285 220.255 170.467 219.919 171.739C220.477 171.874 221.016 172.143 221.439 172.278C227.944 175.338 231.273 188.212 225.865 193.35L224.21 191.426C227.674 188.097 225.461 177.012 220.361 174.799C219.311 174.356 218.182 174.127 217.042 174.127C215.902 174.127 214.773 174.356 213.722 174.799C212.807 175.203 212.036 175.873 211.509 176.723C210.123 179.071 211.355 181.573 213.029 183.516C213.868 184.322 214.428 185.375 214.625 186.521C214.822 187.667 214.648 188.847 214.126 189.886C212.476 191.978 210.268 193.559 207.756 194.447C207.487 194.178 206.371 192.792 205.832 192.234C207.917 191.578 209.816 190.437 211.374 188.905C211.605 188.644 211.782 188.339 211.894 188.009C212.006 187.679 212.05 187.329 212.025 186.981C212 186.634 211.906 186.294 211.748 185.984C211.59 185.673 211.371 185.397 211.105 185.171C210.848 185.019 210.615 184.832 210.412 184.613C209.961 184.315 209.622 183.875 209.45 183.362C209.03 182.685 208.743 181.934 208.603 181.149L173.674 177.435L172.558 166.216L170.076 164.291L169.787 181.727Z" fill="#63B72F"/>
<path fill-rule="evenodd" clip-rule="evenodd" d="M65.8665 9.08729C65.4416 9.5265 65.1127 10.0493 64.9006 10.6224C64.6886 11.1956 64.5981 11.8066 64.6349 12.4166C64.5652 13.2196 64.6645 14.0283 64.9264 14.7906C65.1882 15.553 65.6068 16.252 66.1552 16.8428C68.2336 19.3446 72.1017 21.2882 77.2399 22.6161C81.1126 23.5825 85.048 24.277 89.0175 24.6945L93.7324 4.3724C89.1889 3.04231 84.4456 2.52759 79.7225 2.85209C74.4685 3.04873 69.4981 5.28542 65.8665 9.08729Z" fill="#699547"/>
</g>
</svg>
