<svg width="278" height="69" viewBox="0 0 278 69" fill="none" xmlns="http://www.w3.org/2000/svg">
<path d="M66.144 42.3643C67.0248 45.2561 64.5244 48.0745 62.161 48.9895C62.8314 47.4042 63.5017 44.7619 62.3029 43.3869C62.4448 43.1765 65.1899 42.6138 66.144 42.3643Z" fill="black"/>
<path d="M8.75244 37.7163C8.67563 36.1903 8.68707 34.6611 8.78669 33.1364C8.89434 31.3406 8.96285 29.7112 10.0198 28.2041C10.4419 27.5766 10.9943 27.0476 11.6394 26.653C13.3324 25.6303 15.0939 26.6187 15.6224 28.4488C16.2193 30.4598 15.5539 31.8348 14.5655 33.4887C14.0596 34.2826 13.624 35.1192 13.2639 35.989C13.0493 36.6231 13.0277 37.3066 13.2019 37.953C13.3762 38.5993 13.7383 39.1794 14.2425 39.6197C15.1575 40.4271 16.4297 40.3586 17.5552 40.1091C18.249 39.9023 18.9303 39.6556 19.5956 39.3702L20.3687 43.4217C19.1036 45.1542 17.368 46.4873 15.3679 47.2628C13.1659 48.1088 10.8166 48.5048 8.45886 48.4274C5.07771 48.2512 3.98654 46.842 4.09419 45.0022C4.19695 42.8541 6.45267 40.1433 7.86189 38.6411C8.15548 38.3133 8.46864 38.0344 8.75244 37.7163Z" fill="black"/>
<path fill-rule="evenodd" clip-rule="evenodd" d="M9.38848 38.0341C9.17318 38.1026 9.34933 33.3808 9.49123 31.3746C9.60676 30.1501 10.1227 28.9979 10.9592 28.0962C11.4257 27.5429 12.0536 27.1494 12.7549 26.9708C14.0908 26.7261 15.2015 27.8515 15.2553 29.6473C15.2534 30.4831 15.0485 31.3058 14.6584 32.0449C14.0908 33.0676 13.1904 34.3349 12.7549 35.6022C12.5036 36.3292 12.4495 37.1099 12.5982 37.8646C12.7469 38.6193 13.0931 39.3211 13.6015 39.8984C15.363 41.9095 18.2842 40.7107 19.7276 40.0746L20.2023 42.5847C17.3496 47.0864 11.3262 47.8644 8.43432 47.7225C-0.725601 47.2283 9.59888 37.9607 9.38848 38.0341Z" fill="#63B72F"/>
<path fill-rule="evenodd" clip-rule="evenodd" d="M65.6497 43.1084C65.7357 44.0787 65.5131 45.0514 65.0136 45.8877C64.5471 46.646 63.923 47.2952 63.1836 47.7911C63.3202 47.4858 63.4267 47.1678 63.5016 46.8418C63.7131 45.8909 63.6399 44.8988 63.2912 43.9892C63.2521 43.8473 63.2178 43.7396 63.1836 43.6369L65.6497 43.1084Z" fill="#63B72F"/>
<path d="M22.6343 60.3323C23.7939 59.2068 23.9358 57.2692 23.7939 55.7914C23.6528 54.4764 23.4421 53.1697 23.1627 51.877L28.3054 52.7969L28.1977 56.4569C28.1635 57.2007 28.095 57.9738 28.095 58.7469C28.1635 60.3323 29.01 60.9341 29.8223 62.1721C30.4235 63.0012 30.7441 64.0007 30.7373 65.0248C30.7158 65.6045 30.5582 66.171 30.2773 66.6786C30.119 66.958 29.9303 67.2189 29.7146 67.4567C28.6577 68.5478 27.3561 68.5478 25.9078 68.5821C24.3365 68.6781 22.7605 68.6666 21.1908 68.5478C20.1307 68.4557 19.1061 68.1209 18.1962 67.5692C17.9059 67.4045 17.6566 67.1764 17.4668 66.9019C17.2771 66.6274 17.1517 66.3135 17.1001 65.9838C16.7136 63.9091 18.5681 62.3238 20.2366 61.4773C21.0636 61.0369 21.9982 60.9341 22.6343 60.3323Z" fill="black"/>
<path fill-rule="evenodd" clip-rule="evenodd" d="M20.5742 62.0601C19.1063 62.799 18.1277 63.7874 17.8634 64.6681C17.5796 65.7251 17.8634 66.4297 18.4947 66.8896C19.2909 67.4196 20.2158 67.7239 21.1712 67.7704C22.6479 67.9098 24.1326 67.9441 25.6141 67.8731C26.9842 67.8731 28.2907 68.015 29.3133 66.9239C29.4599 66.7491 29.5893 66.5606 29.6999 66.3612C29.9269 65.9363 30.0588 65.4671 30.0865 64.9862C30.082 64.1052 29.7975 63.2484 29.2742 62.5396C29.1201 62.2696 28.9309 62.0211 28.7115 61.8008C28.1145 61.0619 27.4784 60.3328 27.4784 58.9481L27.5322 53.3503L23.9701 52.5381C24.43 54.9357 24.7138 56.6581 24.3958 58.2435L24.3615 58.2826C24.2644 59.1432 23.9077 59.9538 23.3388 60.6068C22.5608 61.4289 21.5529 61.5659 20.5742 62.0601Z" fill="#63B72F"/>
<path d="M44.1251 65.969C43.8755 67.0993 43.347 68.0486 42.3293 68.4155C41.0228 68.944 39.4717 68.4889 38.2778 67.9262C36.3129 67.0533 34.5676 65.7527 33.1694 64.1194C32.4256 63.0625 31.9363 62.0741 32.0048 61.0171C32.0733 59.9602 32.6752 58.9425 34.1186 57.8855C35.371 56.9481 36.4143 55.7599 37.1817 54.3968C37.534 53.6921 37.397 53.4181 37.0056 52.7037C36.8085 52.3815 36.586 52.0755 36.3401 51.7887L40.2546 50.0957C40.5335 50.7318 40.8858 51.3288 41.2332 51.9649C41.4485 52.4248 41.6932 52.8799 41.8693 53.3398C42.0272 53.7813 42.1099 54.246 42.114 54.7148C42.0657 55.1683 41.9723 55.6157 41.8351 56.0506L41.7617 56.3002C41.3953 57.427 40.937 58.5218 40.3916 59.5737C41.6589 60.5278 43.0681 61.5848 43.7728 62.9989C44.2268 63.9194 44.3512 64.9678 44.1251 65.969Z" fill="black"/>
<path fill-rule="evenodd" clip-rule="evenodd" d="M43.5231 65.0939C43.5802 64.2758 43.3443 63.4641 42.8577 62.8039C42.3459 62.1684 41.7794 61.5789 41.1647 61.0424C40.6618 60.6066 40.1196 60.2184 39.545 59.8827C39.8973 58.8258 40.5237 57.8374 40.8809 56.7805C40.973 56.5776 41.0451 56.3662 41.0962 56.1493L41.1989 55.8997C41.4766 55.1282 41.4887 54.2861 41.2332 53.507C40.8809 52.5284 40.1763 51.6036 39.7652 50.6494L37.211 51.8091C37.5625 52.2716 37.8277 52.7938 37.9939 53.3504C38.1015 53.7648 38.0509 54.2044 37.852 54.5835C37.0678 56.1177 35.9329 57.4454 34.5394 58.4588L34.5051 58.4931C33.9222 58.8969 33.4236 59.4105 33.0372 60.0051C32.8262 60.3519 32.7003 60.7437 32.6697 61.1485C32.6391 61.5533 32.7046 61.9596 32.861 62.3342C33.099 62.8291 33.3824 63.3009 33.7075 63.7434C35.0398 65.2812 36.6845 66.5173 38.5322 67.3692C39.3433 67.7728 40.2343 67.9902 41.1402 68.0053C42.8185 67.9808 43.4204 66.5618 43.5231 65.0939Z" fill="#63B72F"/>
<path d="M23.3047 6.37595C25.2383 6.55209 27.184 6.55209 29.1177 6.37595C33.6585 5.88664 40.778 5.35329 44.0906 2.11404L43.0826 48.8482C42.104 50.6098 39.3834 52.0924 37.6219 52.8655C33.2866 54.7689 27.865 55.3121 23.4955 53.5701C22.4886 53.157 21.5409 52.6124 20.677 51.9505C19.899 46.1375 18.984 40.3587 18.069 34.5799C16.9974 27.4164 15.7644 20.2088 15.2701 12.9474V12.9132C15.2359 12.5266 15.1625 11.822 15.1282 11.0831C14.9178 8.01515 14.7074 5.21139 15.094 3.33243C15.3386 2.24126 16.5619 1.28711 17.4916 0.792901C19.0116 0.0603292 20.7243 -0.172606 22.3847 0.127436C23.1371 0.231221 23.8799 0.394844 24.6062 0.616748L23.3047 6.37595Z" fill="black"/>
<path fill-rule="evenodd" clip-rule="evenodd" d="M15.9748 2.51953C15.3044 4.84376 17.4183 6.15023 20.7652 6.78144C25.0662 7.55944 31.3686 7.17289 36.2323 6.25298C39.8973 5.54837 42.4662 4.56486 43.4888 3.54219L42.5934 48.7448C37.9792 53.5695 27.4247 56.0845 21.2447 51.4556C20.6233 47.0176 19.1064 37.3977 17.5944 27.4157C16.8556 22.415 16.1265 17.238 15.8329 12.8342C15.5393 8.43042 15.0598 4.35445 15.9748 2.51953Z" fill="#63B72F"/>
<path d="M22.1743 9.53219C27.0674 11.1518 32.4988 9.7426 37.2549 8.44103L38.1895 8.15723L38.0133 9.13585C37.5582 11.5286 39.7063 11.5824 41.1841 11.7781V45.7119L40.6556 45.7853C40.3373 45.8485 40.0367 45.9804 39.7748 46.1719C39.5839 46.324 39.4286 46.5161 39.3198 46.7346C39.2192 46.9038 39.1811 47.1029 39.2121 47.2973V47.3364C39.2121 47.3957 39.2247 47.4544 39.2492 47.5084C39.2737 47.5624 39.3094 47.6105 39.354 47.6496L39.7406 48.1389L39.2513 48.5255L39.1828 48.5989C38.6334 49.0107 38.0431 49.3649 37.4212 49.6558C36.7953 49.9761 36.1399 50.2351 35.464 50.4289C32.0704 51.3409 28.5093 51.4382 25.071 50.7127L24.6111 50.605V50.1157C24.6111 49.9787 24.5768 49.8711 24.5768 49.7292C24.5229 49.4513 24.372 49.2015 24.1511 49.0246C23.862 48.8602 23.5344 48.7758 23.2018 48.7799C23.0117 48.7708 22.8215 48.7939 22.6391 48.8484L22.0422 48.9463L21.9052 48.3102C21.6899 46.8422 21.4158 45.3156 21.1614 43.6275C20.907 41.9393 20.6329 40.3148 20.4225 38.7637C19.2237 30.553 18.1326 21.7112 17.4622 14.2981C17.428 13.8088 17.3594 13.3195 17.3252 12.8302C17.7896 12.7969 18.249 12.7133 18.6953 12.5806C18.9946 12.4382 19.269 12.2481 19.5075 12.0179C20.4225 11.1714 20.3883 9.97257 20.3883 8.8129C20.9755 9.07224 21.5773 9.312 22.1743 9.53219Z" fill="white"/>
<path fill-rule="evenodd" clip-rule="evenodd" d="M21.0147 9.74269C26.1574 11.9642 32.4254 10.4131 37.4311 9.03809C36.8293 12.2088 39.4715 12.1061 40.5676 12.2431V45.1836C39.0507 45.3989 38.0623 47.0185 38.8746 48.0411C35.42 50.8596 28.8681 50.977 25.2032 50.1158C25.2032 48.5696 24.0093 47.9335 22.5267 48.2173C20.7309 37.5748 18.9009 23.9083 17.981 13.3391C19.5663 13.1972 21.0147 11.9299 21.0147 9.74269Z" fill="#CBF047"/>
<path d="M37.6415 6.57227C38.2772 6.5801 38.9041 6.72236 39.4809 6.98969C40.0577 7.25702 40.5715 7.64338 40.9884 8.12338C41.8904 9.12917 42.3812 10.4374 42.3633 11.7883C42.3725 13.148 41.8833 14.4639 40.9884 15.4875C40.5645 15.9562 40.0484 16.3323 39.4726 16.5925C38.8967 16.8526 38.2733 16.9912 37.6415 16.9995H37.6072C36.9778 16.9898 36.357 16.8505 35.7838 16.5904C35.2105 16.3302 34.6969 15.9548 34.275 15.4875C33.3801 14.4639 32.8909 13.148 32.9001 11.7883C32.89 10.4285 33.3793 9.11228 34.275 8.08913C34.7005 7.62212 35.2168 7.24675 35.7922 6.98595C36.3677 6.72515 36.9902 6.58439 37.6219 6.57227H37.6562H37.6415Z" fill="black"/>
<path fill-rule="evenodd" clip-rule="evenodd" d="M37.6416 6.92383C40.0882 6.92383 42.0797 9.11105 42.0797 11.7876C42.0797 14.4641 40.0735 16.6514 37.6416 16.6514C35.2097 16.6514 33.1693 14.469 33.1693 11.7925C33.1693 9.11595 35.1755 6.92383 37.6416 6.92383Z" fill="#699547"/>
<path d="M39.7553 9.91813C39.5271 9.59429 39.2252 9.3293 38.8745 9.14501V7.9462C39.5975 8.19217 40.2175 8.67268 40.6361 9.31138L39.7553 9.90834V9.91813ZM38.8745 10.7793C39.1416 10.875 39.4002 10.9928 39.6477 11.1316C39.8777 11.2632 40.0781 11.4409 40.2363 11.6536C40.3944 11.8663 40.5069 12.1094 40.5666 12.3676C40.6263 12.6258 40.632 12.8936 40.5834 13.1541C40.5347 13.4147 40.4327 13.6623 40.2838 13.8816C39.9603 14.4027 39.4601 14.79 38.8745 14.9727V13.7935C39.0718 13.6685 39.2389 13.5014 39.3639 13.3042C39.4602 13.1802 39.518 13.0306 39.5302 12.8741C39.5424 12.7175 39.5084 12.5608 39.4324 12.4234C39.2879 12.225 39.0939 12.0681 38.8696 11.9683L38.8745 10.7793ZM38.8745 9.12544C38.806 9.05204 38.7326 9.05204 38.6641 9.01779L38.5222 10.6374C38.6293 10.7073 38.749 10.7555 38.8745 10.7793V11.9439C38.7258 11.8738 38.5721 11.815 38.4146 11.7677L38.1895 14.043C38.4292 14.0125 38.6586 13.9271 38.8599 13.7935V14.9923C38.6144 15.0914 38.3514 15.1397 38.0867 15.1342L37.9938 16.1617L37.573 16.1226V13.6173L37.7491 11.5377C37.684 11.5374 37.6212 11.513 37.573 11.4692V10.29C37.6597 10.3581 37.7531 10.4171 37.8519 10.4662L37.9938 8.99822C37.8469 8.99494 37.7018 9.03038 37.573 9.10098V7.91195C37.7337 7.87359 37.8974 7.84904 38.0623 7.83855L38.1357 7.52539L38.806 7.55964L38.7669 7.9462H38.8745V9.12544ZM37.573 16.1177L37.3234 16.0835L37.4311 15.0608C36.9376 14.9482 36.4974 14.6705 36.1833 14.2737C35.8692 13.8768 35.7 13.3846 35.7038 12.8785H36.795C36.7907 13.1143 36.8594 13.3457 36.9917 13.541C37.1239 13.7363 37.3133 13.886 37.5338 13.9696L37.573 13.6173V16.1177ZM37.573 11.4692C37.3728 11.416 37.1815 11.3336 37.0054 11.2246L36.9711 11.1854C36.5911 10.9721 36.2932 10.638 36.1246 10.2362C36.0228 9.89196 36.0293 9.52478 36.1431 9.18434C36.2568 8.8439 36.4724 8.54663 36.7607 8.33276C37.0111 8.15623 37.2844 8.01466 37.573 7.91195V9.07162C36.9026 9.42392 37.113 9.95238 37.573 10.2704V11.4692Z" fill="white"/>
<path d="M22.2478 37.3295C22.0273 38.1457 22.0021 39.0023 22.1744 39.8299C22.3679 40.7087 22.8939 41.4784 23.6423 41.978L23.3585 42.438C22.909 42.1509 22.5235 41.7742 22.2263 41.3313C21.9291 40.8884 21.7265 40.389 21.6312 39.8642C21.4789 38.953 21.5039 38.0209 21.7046 37.1191L22.2478 37.3295Z" fill="black"/>
<path d="M37.5338 33.1367C37.9253 33.626 38.2385 34.1936 38.6642 34.6878C39.0899 35.182 39.5792 35.5343 40.1761 35.3191L40.3523 35.8084C39.1926 36.2341 38.4537 35.3533 37.8176 34.4334C37.5626 34.1222 37.3273 33.7954 37.113 33.4548L37.5338 33.1367Z" fill="black"/>
<path d="M10.9349 37.3643L10.974 37.3986C12.2071 38.2108 12.3098 39.6543 11.889 40.9216C11.6537 41.6325 11.3246 42.3088 10.9104 42.9327C11.4429 43.4666 11.7495 44.185 11.7667 44.9389C11.7655 45.8772 11.4169 46.7819 10.7881 47.4784C10.1462 48.1895 9.33316 48.7246 8.42621 49.0329C7.51925 49.3412 6.54851 49.4125 5.60625 49.2399C4.89573 49.113 4.21728 48.8469 3.60986 48.457C2.55677 47.6791 1.7156 46.6495 1.1633 45.4624C1.11849 45.3385 1.05937 45.2203 0.987147 45.1101C0.0344775 42.9597 -0.237023 40.5691 0.20914 38.2598C0.430262 37.0866 0.938918 35.9867 1.68954 35.0585C2.44017 34.1302 3.40932 33.4026 4.51019 32.9409C5.69877 32.4609 7.01515 32.3988 8.24364 32.7648C8.77391 32.8917 9.27248 33.1261 9.70847 33.4535C10.1445 33.7809 10.5086 34.1943 10.7783 34.6682C10.9935 35.081 11.1187 35.5347 11.1457 35.9995C11.1727 36.4642 11.1008 36.9294 10.9349 37.3643Z" fill="black"/>
<path fill-rule="evenodd" clip-rule="evenodd" d="M10.196 35.0053C10.3656 35.3297 10.4602 35.688 10.4729 36.0539C10.4856 36.4197 10.4161 36.7837 10.2694 37.1191C7.66135 36.5173 5.22947 36.6592 2.97374 38.313L3.29179 38.773C4.17654 38.0851 5.21655 37.6247 6.32063 37.4323C7.32488 37.2696 8.34977 37.2829 9.34948 37.4714C9.84849 37.5591 10.3197 37.7637 10.7244 38.0684C11.5367 38.7045 11.9575 39.9718 10.3379 42.6141C7.9794 42.2618 5.72367 42.8588 3.6441 43.8129L3.8545 44.3414C5.89983 43.4606 7.9794 42.8734 10.2156 43.1083C12.0505 44.8307 10.8174 47.2626 8.66444 48.251C7.15247 48.9213 4.72058 48.6375 3.62942 47.6149C0.952882 45.2564 -0.035528 40.6764 1.18286 37.2561C1.95597 35.0395 4.24595 33.1361 6.60933 33.1704C7.94026 33.2046 9.56477 33.6988 10.196 35.0053Z" fill="#63B72F"/>
<path d="M25.3107 25.2096L25.3792 25.1753C25.7749 25.1674 26.1672 25.2486 26.5272 25.4129C26.8872 25.5773 27.2056 25.8205 27.4588 26.1246C28.7261 27.5338 28.7653 29.721 28.4374 31.4434C28.3821 31.8933 28.2635 32.3332 28.0851 32.7499H28.1194C28.3298 32.8184 28.5059 32.8526 28.6478 32.8918H28.6821L28.6478 33.4202H28.5059C28.364 33.3811 28.1879 33.3126 28.0166 33.2783C26.6074 33.0288 24.4251 32.9603 23.2263 33.8753L22.9082 33.4545C23.1266 33.2976 23.3632 33.1678 23.6128 33.0679C23.1102 32.2878 22.7784 31.4101 22.6393 30.4925C22.5001 29.5749 22.5568 28.6383 22.8054 27.7442C22.8054 27.71 22.8397 27.6757 22.8397 27.6415C23.2263 26.3008 24.1804 25.3172 25.2863 25.1949L25.3107 25.2096Z" fill="black"/>
<path fill-rule="evenodd" clip-rule="evenodd" d="M25.3452 25.8461C26.7544 25.7042 27.5324 26.6535 27.8847 27.9208C28.2638 29.4992 28.165 31.1547 27.6009 32.6769C26.9798 32.6144 26.3547 32.603 25.7317 32.6426C25.1976 32.6599 24.6665 32.7304 24.1464 32.853V32.8922C23.4075 31.9136 23.1971 30.5631 23.1286 29.5061C22.9867 27.6419 23.9702 25.9831 25.3452 25.8461Z" fill="white"/>
<path fill-rule="evenodd" clip-rule="evenodd" d="M25.6974 27.9938C26.3678 27.9204 26.9647 28.5907 27.0381 29.5057C27.1115 30.4208 26.6124 31.233 25.9567 31.3309C25.3011 31.4287 24.7237 30.6948 24.6503 29.7798C24.5769 28.8648 25.0271 28.0623 25.6974 27.9938Z" fill="black"/>
<path d="M27.914 27.9062C27.4115 27.2332 26.6869 26.7599 25.8686 26.5704C24.9536 26.4285 24.1805 27.0255 23.6863 27.7643C23.4261 28.1942 23.2237 28.6565 23.0844 29.1393C23.0497 29.2025 22.9987 29.2553 22.9368 29.2923C22.8749 29.3292 22.8043 29.3491 22.7321 29.3497C22.6273 29.2297 22.5548 29.0848 22.5217 28.9289C22.4285 28.4197 22.4399 27.8968 22.5551 27.392C22.6704 26.8873 22.8871 26.4113 23.1921 25.993C23.4735 25.6387 23.8356 25.357 24.2482 25.1713C24.6608 24.9857 25.1119 24.9016 25.5637 24.926C26.0154 24.9504 26.4548 25.0827 26.845 25.3118C27.2351 25.5408 27.5648 25.86 27.8063 26.2426C28.0356 26.582 28.1922 26.9651 28.2663 27.368C28.3005 27.5784 28.3005 28.0041 28.1929 28.0383C27.9874 28.0628 28.0607 28.0286 27.914 27.9062Z" fill="black"/>
<path fill-rule="evenodd" clip-rule="evenodd" d="M27.9872 27.4171C27.7344 27.042 27.3998 26.7291 27.0086 26.5021C26.501 26.1627 25.8863 26.0221 25.2817 26.1069C24.6771 26.1917 24.1248 26.4961 23.7302 26.962C23.237 27.4764 22.9068 28.1249 22.7809 28.8263C22.7096 27.9142 22.9858 27.0088 23.5541 26.2917C23.8422 25.8821 24.2563 25.5779 24.7332 25.4251C25.2101 25.2723 25.7238 25.2793 26.1963 25.4452C26.6274 25.6124 27.0136 25.8776 27.3244 26.2199C27.6352 26.5621 27.8621 26.972 27.9872 27.4171Z" fill="#699547"/>
<path fill-rule="evenodd" clip-rule="evenodd" d="M26.4755 27.9597C26.7201 27.9205 26.9648 28.2043 27.0039 28.5566C27.0431 28.9089 26.8278 29.2612 26.5782 29.2955C26.3287 29.3297 26.0889 29.0508 26.0498 28.6643C26.0106 28.2777 26.2259 27.9597 26.4755 27.9597Z" fill="white"/>
<path fill-rule="evenodd" clip-rule="evenodd" d="M21.9982 25.3178C21.6459 25.9147 21.5089 25.8462 21.4013 25.5624C21.2553 25.2335 21.1422 24.8909 21.0636 24.5398C21.0113 24.3279 21.0355 24.1043 21.1321 23.9085C22.1548 22.284 25.3598 21.2663 26.7348 23.1305C25.8146 22.9215 24.8511 23.0226 23.9943 23.4182C23.1376 23.8138 22.4358 24.4817 21.9982 25.3178Z" fill="black"/>
<path d="M32.7778 21.7552H32.8071C33.3165 21.7304 33.8252 21.8155 34.2989 22.0046C34.7725 22.1937 35.1999 22.4824 35.5522 22.8512C36.1596 23.5046 36.5848 24.3061 36.7852 25.1755C37.0456 26.4965 36.9852 27.8607 36.6091 29.1536C36.4791 29.8344 36.2535 30.4933 35.9387 31.1108C36.183 31.2085 36.4187 31.3263 36.6433 31.4631L36.4329 31.9231C34.8818 31.0423 31.7502 30.7243 30.1991 31.8154L30.067 31.331C30.1698 31.2289 30.2889 31.1446 30.4193 31.0815C29.9901 30.3245 29.7031 29.4953 29.5728 28.6349C29.5043 28.2092 29.4309 27.6807 29.3966 27.167C29.2205 24.9699 30.1012 22.0341 32.7778 21.7552Z" fill="black"/>
<path fill-rule="evenodd" clip-rule="evenodd" d="M32.807 22.5227C34.5685 22.3465 36.1539 23.9906 36.33 26.1828C36.4328 27.5235 35.9043 29.9896 35.4493 30.66C33.9435 30.3136 32.3801 30.3019 30.8693 30.6257C30.0913 29.2507 30.0913 28.1791 29.9886 26.8189C29.8222 24.6121 31.0895 22.6744 32.807 22.5227Z" fill="white"/>
<path fill-rule="evenodd" clip-rule="evenodd" d="M33.7856 24.2217C34.7006 24.119 35.5472 25.034 35.6548 26.2671C35.7625 27.5001 35.0921 28.5913 34.1869 28.6647C33.2816 28.7381 32.4645 27.8524 32.3568 26.6194C32.2492 25.3863 32.8853 24.3294 33.7856 24.2217Z" fill="black"/>
<path fill-rule="evenodd" clip-rule="evenodd" d="M28.7654 19.5878C30.7226 17.8263 33.6585 18.0758 36.4084 19.6954C36.8684 19.9743 36.9711 19.9058 37.0054 19.5878C37.0893 19.1821 37.1025 18.7649 37.0445 18.3547C36.9903 18.1221 36.8824 17.9053 36.7295 17.7218C36.5766 17.5383 36.3828 17.3931 36.1638 17.2978C35.1798 16.703 34.0294 16.4437 32.8854 16.559C31.1239 16.7889 29.5727 17.6012 28.7654 19.5878Z" fill="black"/>
<path fill-rule="evenodd" clip-rule="evenodd" d="M34.681 24.3978C35.0333 24.3636 35.3514 24.7159 35.3856 25.1758C35.4199 25.6358 35.1752 26.0566 34.8229 26.0908C34.4706 26.1251 34.1526 25.7728 34.1183 25.3177C34.0841 24.8627 34.3287 24.437 34.681 24.3978Z" fill="white"/>
<path d="M22.0715 39.2332C22.3649 39.353 22.6724 39.4352 22.9865 39.4779C23.4603 39.5916 23.9434 39.662 24.43 39.6883C28.1977 40.0406 34.2162 39.7617 36.971 36.9041C37.5753 36.3141 37.9499 35.5284 38.028 34.6875L38.7668 34.9322C38.7171 35.8181 38.3727 36.6621 37.7882 37.3298C37.0493 39.4436 36.6236 41.029 35.8309 42.6144C34.8523 44.6205 33.3306 46.8763 30.7568 46.3821C29.2057 46.1032 27.6545 44.9141 26.3872 43.4217C25.3646 42.3306 24.3076 41.029 23.4513 40.4271L22.781 40.3244C22.4105 40.2431 22.0459 40.1369 21.6898 40.0063L22.0715 39.2332Z" fill="black"/>
<path d="M31.4419 23.8002C30.7224 24.5008 30.221 25.3947 29.9984 26.374C29.9593 26.5501 29.925 26.7606 29.7146 26.7606C29.6608 26.7596 29.6084 26.7423 29.5647 26.7108C29.521 26.6793 29.4879 26.6352 29.47 26.5844C29.3942 26.4935 29.3451 26.3834 29.3281 26.2663C29.01 24.681 29.6804 22.6356 31.0896 21.794C31.8952 21.3336 32.8479 21.2033 33.7476 21.4305C34.6472 21.6577 35.4238 22.2247 35.9142 23.0124C36.2926 23.5856 36.5444 24.2328 36.6531 24.911C36.4084 25.0529 36.1246 24.7348 35.9876 24.4901C35.6929 23.9133 35.2238 23.4441 34.6469 23.1494H34.6126C34.0797 22.928 33.4926 22.8716 32.9273 22.9877C32.362 23.1037 31.8445 23.3868 31.4419 23.8002Z" fill="black"/>
<path fill-rule="evenodd" clip-rule="evenodd" d="M29.6461 26.2662C29.7314 25.5384 29.9943 24.8428 30.4115 24.2404C30.8287 23.638 31.3875 23.1474 32.0389 22.8116C32.488 22.5836 32.9859 22.4681 33.4896 22.4749C33.9933 22.4817 34.4878 22.6107 34.9307 22.8508C35.5391 23.1577 36.033 23.6516 36.3399 24.26C36.0603 23.5517 35.5976 22.9303 34.9992 22.4593C34.3812 21.9935 33.6191 21.7598 32.8463 21.7992C32.0734 21.8386 31.339 22.1484 30.7715 22.6746C29.8712 23.6239 29.6461 25.0331 29.6461 26.2662Z" fill="#699547"/>
<path d="M41.8006 30.7043L37.6414 30.6016C37.5338 30.034 37.4653 29.437 37.3234 28.9428C37.9937 28.1697 38.7913 27.2889 39.4372 26.4962C39.8629 26.0069 40.2837 25.4736 40.6703 24.9451C40.5705 24.8156 40.5227 24.6535 40.5363 24.4905C40.5498 24.3276 40.6238 24.1756 40.7437 24.0644C41.9033 22.479 43.1902 20.8936 44.6582 19.2398C46.1261 17.5859 47.6185 15.8586 49.3409 13.9552L49.6932 13.779C50.9996 13.7105 52.267 13.6714 53.5343 13.6371C56.9888 13.5344 60.2623 13.4267 63.8098 12.6145C64.5 12.4655 65.1813 12.2777 65.8503 12.0518V12.086C67.0491 13.6029 68.3506 15.0463 69.5837 16.5632C70.5623 17.762 71.541 18.956 72.6174 20.1205C74.7313 22.479 76.9136 24.7347 79.2378 26.8828L77.5106 28.8401L73.2486 28.1354L73.5667 41.4888L53.8034 45.7164C52.9911 45.8241 53.0645 45.2956 53.1673 46.103L44.159 45.1146C43.8752 40.3927 43.5719 35.3577 41.8006 30.7043Z" fill="black"/>
<path fill-rule="evenodd" clip-rule="evenodd" d="M42.3291 30.7041C44.4038 35.744 44.1934 39.864 44.6533 44.5859L53.2114 45.5205L53.4267 44.1846L52.0517 31.076L42.3291 30.7041Z" fill="#B28D68"/>
<path fill-rule="evenodd" clip-rule="evenodd" d="M52.6145 31.057C53.143 35.5685 53.7057 40.7796 53.9895 45.0807C59.3425 44.058 66.599 42.4727 73.0139 40.9558C72.872 35.3923 72.7644 29.7897 72.6959 24.2213C72.0989 23.6244 71.5313 23.0274 71.0028 22.4255C69.2071 20.5221 67.5189 18.5111 65.8944 16.5098C64.0301 19.0982 62.1659 21.4763 60.2086 23.7663C58.1633 25.9143 55.1002 29.3689 52.9864 31.1059L52.6145 31.057Z" fill="#E6CCAC"/>
<path d="M69.2804 26.9717C69.4565 31.8648 69.5935 36.7286 69.8431 41.651L63.6337 42.7569L62.5034 27.2163C64.9108 27.642 66.917 27.9601 69.2804 26.9717Z" fill="black"/>
<path fill-rule="evenodd" clip-rule="evenodd" d="M63.0416 27.7834C65.1212 28.1357 67.0246 28.3461 68.8204 27.6758C68.9966 32.1872 69.1727 36.6938 69.3489 41.2395L64.123 42.1888L63.0416 27.7834Z" fill="#8A5024"/>
<path d="M61.2459 28.7324L61.7401 35.2843L56.206 36.0232L55.7167 29.7893L61.2459 28.7324Z" fill="black"/>
<path fill-rule="evenodd" clip-rule="evenodd" d="M60.8253 35.1084C60.7861 34.9665 60.8253 34.7903 60.7861 34.6191L60.4338 29.6183L56.2942 30.4257L56.0838 30.4599L56.0447 30.0342L61.0161 29.085L61.4369 35.0399L60.8253 35.1084Z" fill="white"/>
<path fill-rule="evenodd" clip-rule="evenodd" d="M51.6995 29.085H37.8519L38.0623 30.2495L52.5068 30.5627L51.6995 29.085Z" fill="white"/>
<path fill-rule="evenodd" clip-rule="evenodd" d="M38.3459 28.5905L51.5916 28.6247C52.262 27.9935 52.9323 27.3574 53.5489 26.7262L50.3096 26.3739L54.3611 25.8846C55.803 24.4395 57.1763 22.9242 58.4811 21.3389C59.4598 20.1743 60.4384 18.9412 61.417 17.7082L59.0585 17.3216L61.9944 16.9693C62.3124 16.5485 62.5963 16.162 62.9094 15.7705C63.5113 14.8212 64.074 13.872 64.6709 12.9912C59.4598 14.2585 55.0217 14.0481 49.7371 14.327C46.3511 18.0605 43.5327 21.2704 41.1742 24.3677C41.0323 24.5781 41.2818 24.7543 41.3161 24.9304C41.3503 25.1066 41.2084 25.18 41.1399 25.2827L43.9926 25.2142L40.5038 26.095C39.8237 26.9268 39.1191 27.744 38.3459 28.5905Z" fill="#C53629"/>
<path fill-rule="evenodd" clip-rule="evenodd" d="M52.0518 28.84L52.9668 30.4938C57.798 26.053 62.1222 21.0904 65.8601 15.697C69.361 20.1779 73.2516 24.3403 77.4862 28.1354L78.5774 26.9268C75.5522 24.1229 72.7162 21.1217 70.0878 17.943C68.6199 16.1815 66.9171 14.4542 65.6155 12.5605C65.4598 12.9543 65.2453 13.3222 64.9794 13.6517C61.2135 19.1529 56.8806 24.2435 52.0518 28.84Z" fill="white"/>
<path d="M42.329 14.3952C42.2214 13.7591 42.1137 13.123 42.011 12.526C43.9144 12.1395 45.9548 11.8899 47.824 11.293C49.4779 11.4691 51.2052 11.5768 52.859 11.7138C52.8079 13.9988 53.0931 16.2789 53.7055 18.481L50.0063 23.012C47.824 23.149 45.6368 23.2224 43.4545 23.3252C43.3468 22.234 43.2441 21.1428 43.1022 20.0517C42.9945 19.0975 42.8917 18.1482 42.7498 17.199C42.7249 17.0157 42.7628 16.8294 42.8575 16.6705C42.9151 16.6071 42.9614 16.5342 42.9945 16.4552C42.9945 16.421 42.9603 16.4552 42.926 16.421C42.3975 15.9414 42.4318 15.0607 42.329 14.3952Z" fill="black"/>
<path fill-rule="evenodd" clip-rule="evenodd" d="M42.5396 12.8448C42.7157 13.8234 42.8919 14.802 43.0289 15.8394C43.0631 16.0498 43.4497 16.1917 43.4839 16.4021C43.5182 16.6125 43.1659 16.9305 43.205 17.1409C43.4839 19.0982 43.6943 20.982 43.8705 22.9197L49.4731 22.6359L49.1991 20.5661C48.7391 17.6743 47.8241 12.5316 47.7312 11.8955C46.0626 12.3848 44.0173 12.5267 42.5396 12.8448Z" fill="#B28D68"/>
<path fill-rule="evenodd" clip-rule="evenodd" d="M49.7276 22.6361L53.3192 18.3742C52.8592 16.4169 52.3699 14.4303 52.4727 12.1061L48.1765 11.8223L49.7276 22.6361Z" fill="#DDC9A9"/>
<path d="M48.0002 16.0493C48.1375 15.93 48.3085 15.8565 48.4895 15.8389H48.6265C48.8027 17.7031 49.1941 19.5723 49.4388 21.4415C49.3311 21.3681 49.2626 21.2996 49.1941 21.2653C49.0522 21.1919 48.9103 21.1919 48.7684 21.1234C48.5417 21.061 48.3357 20.9394 48.1715 20.7711C48.0751 20.6875 47.9681 20.6167 47.8534 20.5607V20.5216C47.7905 20.495 47.7313 20.4605 47.6773 20.4188C47.3935 20.2769 47.3935 20.2427 47.3592 19.7142C47.325 19.5038 46.7623 19.4647 46.1261 19.3962C45.49 19.3277 44.8588 19.3277 44.575 19.0439L44.5408 19.0096L44.3646 18.8335L44.6142 18.7601C44.7292 18.6668 44.8341 18.5619 44.9273 18.4469C45.5157 17.8538 46.1728 17.3331 46.8846 16.8958C46.9873 16.7539 47.3739 16.2254 47.5892 16.1912C47.7342 16.1714 47.8739 16.1232 48.0002 16.0493Z" fill="black"/>
<path fill-rule="evenodd" clip-rule="evenodd" d="M48.3525 16.1621C48.2791 16.1964 48.2106 16.2649 48.1421 16.2991C47.992 16.3892 47.8258 16.4491 47.6528 16.4753C47.6185 16.5144 47.6185 16.5144 47.5794 16.5144V17.7768L48.558 17.6349C48.4895 17.0722 48.4161 16.578 48.3476 16.167L48.3525 16.1621ZM47.5745 19.2252V18.0557L48.6314 17.9187L48.7733 18.8974L48.8076 19.005L47.5745 19.2154V19.2252ZM47.6136 19.5433C47.6416 19.585 47.6538 19.6353 47.6479 19.6852C47.6821 20.0717 47.6821 20.106 47.824 20.1745L48.0002 20.2821C48.138 20.3638 48.2675 20.4589 48.3867 20.5659C48.5149 20.6952 48.6728 20.7909 48.8467 20.8448L48.8809 20.8791C48.9152 20.8791 48.9837 20.9182 49.0229 20.9182L49.0914 20.9525V20.9182C49.0228 20.4583 48.9495 19.8956 48.8467 19.2937L47.6136 19.5433ZM47.5745 16.5144C47.4147 16.6866 47.2737 16.8752 47.1537 17.0771L47.0852 17.1456H47.046C46.6322 17.3884 46.2437 17.672 45.8864 17.9921L47.5745 17.7817V16.5095V16.5144ZM47.5745 18.0606V19.2252L47.2222 19.2937C47.0415 19.2235 46.8523 19.1774 46.6595 19.1567L46.6252 18.1781L47.5745 18.0704V18.0606ZM45.5341 18.3102C45.3237 18.5206 45.1084 18.731 44.8979 18.9072C45.3051 19.0497 45.7339 19.1209 46.1653 19.1176L46.3414 19.1567L46.3072 18.1781L45.5341 18.3102Z" fill="#999999"/>
<path d="M45.9892 34.6875C46.2961 34.9644 46.5483 35.2963 46.7329 35.6661L48.5972 35.7738L48.7048 35.808L49.2333 36.3707L50.3245 36.723L50.8872 36.8649L50.6083 37.0068L48.7734 38.0638L47.7164 38.876V38.9103C47.6822 38.9445 47.6137 38.9788 47.5745 39.013V38.9788C47.5403 39.013 47.4718 39.0522 47.4375 39.0864C46.8388 39.4085 46.1451 39.5073 45.4803 39.3653C45.051 39.3271 44.6184 39.3754 44.2081 39.5072L44.0319 39.6149C43.9078 38.2054 43.697 36.805 43.4007 35.4215L43.3665 35.2453C44.2573 35.1488 45.1361 34.9619 45.9892 34.6875Z" fill="black"/>
<path fill-rule="evenodd" clip-rule="evenodd" d="M46.5077 39.0917V37.8243C46.6934 37.7782 46.8839 37.7536 47.0753 37.751C47.7799 37.6482 48.4454 37.5748 49.15 37.5063L48.6949 37.751C48.5594 37.8361 48.4302 37.9309 48.3084 38.0348L47.5401 38.6709L47.4374 38.7785C47.384 38.7858 47.3343 38.8097 47.2955 38.847C47.0524 38.9681 46.7882 39.0412 46.5175 39.0623V39.0966L46.5077 39.0917ZM46.5077 37.5405L47.0361 37.4329L46.997 36.1656L46.5077 36.2243V37.5259V37.5405ZM46.5077 35.9209V35.8867L46.5468 35.9209H46.5077ZM49.7861 37.154L50.1384 36.9436L49.0472 36.5913L48.5188 36.0628L47.7408 36.0237L47.2857 36.0971L47.3199 37.3986C48.1762 37.2959 48.9836 37.2029 49.7959 37.154H49.7861ZM44.57 36.1754L45.2061 36.1069L45.1376 35.1918C44.9452 35.2252 44.7555 35.2727 44.57 35.3338V36.2243V36.1754ZM46.5273 35.8622V35.8965L45.5095 36.0726L45.4703 35.1185C45.642 35.0568 45.8189 35.011 45.9988 34.9814C46.2149 35.2491 46.3928 35.5455 46.5273 35.8622ZM46.5273 36.2145V37.5161C45.896 37.5846 45.2599 37.6922 44.57 37.7999V36.5179L46.5273 36.239V36.2145ZM46.5273 37.7999C46.3511 37.8341 46.175 37.8341 45.9988 37.8684L46.0722 39.0672H46.5077V37.8243L46.5273 37.7999ZM44.57 39.0672V38.0886C44.9615 38.0201 45.3138 37.9516 45.7003 37.9124L45.7688 39.0427C45.3578 39.0917 44.9712 39.0574 44.5798 39.0917L44.57 39.0672ZM43.7284 35.5099C43.801 35.7642 43.8598 36.0223 43.9045 36.283L44.57 36.1754V35.3582C44.2859 35.3981 44.0047 35.457 43.7284 35.5344V35.5099ZM44.57 36.4885V37.795L44.1492 37.8977C44.0807 37.4427 44.0073 37.017 43.9388 36.5619L44.57 36.4885ZM44.57 38.1081V39.0868C44.4805 39.1219 44.3867 39.1449 44.2911 39.1553C44.2569 38.8764 44.2177 38.5926 44.1835 38.3088L44.1492 38.206C44.3009 38.1815 44.4428 38.1815 44.5798 38.1375L44.57 38.1081Z" fill="#999999"/>
<path fill-rule="evenodd" clip-rule="evenodd" d="M64.5585 34.8977C64.8031 34.8635 65.0135 35.1081 65.0478 35.4604C65.082 35.8127 64.8716 36.0965 64.6221 36.0965C64.3725 36.0965 64.167 35.8861 64.1328 35.5338C64.0985 35.1815 64.2747 34.8977 64.5585 34.8977Z" fill="black"/>
<path d="M62.7628 35.4941L62.0582 37.329L61.7059 37.5051L54.0237 31.7606L53.916 31.3056L55.1491 29.5049C57.6886 31.5845 60.2086 33.5564 62.7628 35.4941Z" fill="black"/>
<path fill-rule="evenodd" clip-rule="evenodd" d="M55.2225 29.8975L62.3371 35.6371L61.7744 37.0806L54.2341 31.3752L55.2225 29.8975Z" fill="#B28D68"/>
<path fill-rule="evenodd" clip-rule="evenodd" d="M55.2226 30.7387C55.3988 30.7044 55.5407 30.8806 55.5407 31.0567C55.5407 31.2329 55.433 31.4433 55.2911 31.4433C55.1492 31.4433 55.0122 31.3063 54.9731 31.1301C54.934 30.954 55.0807 30.7387 55.2226 30.7387Z" fill="#0A0B0C"/>
<path fill-rule="evenodd" clip-rule="evenodd" d="M61.4563 35.3926C61.5378 35.4077 61.6113 35.4516 61.6634 35.5162C61.7154 35.5808 61.7426 35.6619 61.7401 35.7449C61.7743 35.9553 61.6667 36.1314 61.4905 36.1314C61.3143 36.1314 61.2116 35.9895 61.2116 35.7791C61.2022 35.7377 61.2011 35.6948 61.2083 35.6529C61.2155 35.611 61.2309 35.571 61.2537 35.5351C61.2764 35.4992 61.306 35.4681 61.3408 35.4436C61.3755 35.4192 61.4148 35.4018 61.4563 35.3926Z" fill="#0A0B0C"/>
<path d="M58.956 42.013C59.0987 41.6951 59.3319 41.4262 59.6263 41.2399C59.8867 41.1092 60.1772 41.0503 60.4679 41.0693C60.7586 41.0882 61.039 41.1842 61.2802 41.3475C61.3145 41.3818 61.3536 41.416 61.3879 41.416C61.8276 41.6925 62.2097 42.0514 62.5133 42.4729C62.5984 42.6085 62.6932 42.7377 62.7971 42.8595C63.0219 43.2064 63.1872 43.5884 63.2864 43.9898C63.635 44.8994 63.7082 45.8915 63.4968 46.8425C63.3836 47.3386 63.1938 47.8141 62.9341 48.2517C62.1903 49.5533 60.7126 50.894 57.8257 51.4224C56.5117 51.6729 55.1645 51.6961 53.8427 51.4909C53.6647 51.485 53.4878 51.4621 53.3142 51.4224C50.1092 50.894 46.5128 49.3429 42.887 46.7006L43.0289 40.9561C43.6601 41.416 44.0858 41.8026 44.3647 41.9787L44.5751 44.6553L52.9668 45.5213C52.9643 45.189 53.0486 44.8618 53.2114 44.5721C53.4363 44.252 53.7389 43.9943 54.0906 43.8231C54.4424 43.6519 54.8319 43.5729 55.2225 43.5934C55.3267 43.1472 55.5253 42.7284 55.8048 42.3653C56.0065 42.1186 56.2625 41.9218 56.5528 41.7902C56.843 41.6586 57.1597 41.5959 57.4782 41.6068C57.9968 41.6184 58.5044 41.7579 58.956 42.013Z" fill="black"/>
<path fill-rule="evenodd" clip-rule="evenodd" d="M24.3958 40.569C25.4185 41.3079 26.084 42.6829 27.7085 44.0236C29.4308 45.4915 32.4646 47.0524 34.8231 42.9324C35.6644 41.3056 36.4174 39.6346 37.0788 37.9268C35.3515 39.3947 33.0958 39.9721 30.9477 40.3244C28.7709 40.6779 26.5586 40.76 24.3616 40.569H24.3958Z" fill="white"/>
<path fill-rule="evenodd" clip-rule="evenodd" d="M43.1709 46.2057C45.4088 47.9025 47.9075 49.2246 50.5693 50.1202C52.7299 50.9203 55.0574 51.1627 57.3365 50.8248H57.3707C58.9904 50.5801 60.7176 49.944 61.8088 48.6767C62.0238 48.4607 62.2023 48.2111 62.3373 47.9379C62.7484 47.2072 62.9525 46.3781 62.9275 45.5401C62.9025 44.702 62.6493 43.8866 62.1954 43.1817C62.0786 43.0094 61.9494 42.8459 61.8088 42.6924C61.5763 42.3813 61.2748 42.1284 60.928 41.9536C60.7298 41.8197 60.4969 41.7465 60.2577 41.7432C60.0781 41.7821 59.9121 41.8677 59.7763 41.9915C59.6406 42.1152 59.5399 42.2726 59.4846 42.4478C60.1783 43.0449 60.6876 43.8273 60.9525 44.7035C61.1756 45.2964 61.2378 45.9378 61.133 46.5625C61.0281 47.1873 60.7599 47.7732 60.3555 48.2608L59.8956 47.8008C60.2052 47.395 60.4066 46.9173 60.4811 46.4123C60.5556 45.9074 60.5006 45.3918 60.3213 44.9139C60.0943 44.1441 59.6386 43.4616 59.0148 42.9567C58.7983 42.7525 58.5484 42.587 58.276 42.4673C57.9657 42.313 57.6145 42.2606 57.2727 42.3177C56.9308 42.3748 56.6158 42.5385 56.3725 42.7854C56.1582 43.0422 56.0029 43.3428 55.9175 43.6662C56.0594 43.7004 56.1964 43.7689 56.304 43.8032C57.9579 44.5812 58.8044 47.8547 57.4295 49.1611L57.0086 48.6718C57.8894 47.8253 57.3267 45.0069 56.03 44.4442C55.7629 44.3315 55.4759 44.2735 55.186 44.2735C54.896 44.2735 54.609 44.3315 54.3419 44.4442C54.1093 44.5469 53.9132 44.7174 53.7792 44.9335C53.4269 45.5304 53.74 46.1665 54.1657 46.6608C54.3791 46.8656 54.5213 47.1333 54.5714 47.4247C54.6216 47.7162 54.5772 48.016 54.4446 48.2804C54.0251 48.8121 53.4636 49.2142 52.825 49.44C52.7565 49.3715 52.4727 49.0192 52.3357 48.8773C52.8658 48.7106 53.3487 48.4205 53.7449 48.0308C53.8037 47.9644 53.8486 47.887 53.877 47.803C53.9055 47.719 53.9168 47.6302 53.9104 47.5418C53.9041 47.4533 53.8801 47.3671 53.8399 47.288C53.7997 47.209 53.7441 47.1388 53.6764 47.0816C53.6112 47.0429 53.5519 46.9951 53.5003 46.9397C53.3855 46.8639 53.2994 46.7519 53.2556 46.6216C53.1489 46.4494 53.0758 46.2584 53.0403 46.0589L44.1593 45.1145L43.8755 42.2618L43.2443 41.7725L43.1709 46.2057Z" fill="#63B72F"/>
<path fill-rule="evenodd" clip-rule="evenodd" d="M16.748 2.30954C16.6399 2.42121 16.5563 2.55414 16.5024 2.69987C16.4485 2.8456 16.4255 3.00095 16.4348 3.15605C16.4171 3.36023 16.4424 3.56585 16.5089 3.75968C16.5755 3.95351 16.6819 4.13126 16.8214 4.28147C17.3498 4.91757 18.3333 5.41178 19.6398 5.7494C20.6245 5.99513 21.6251 6.17171 22.6344 6.27786L23.8332 1.11072C22.678 0.772532 21.4719 0.641658 20.271 0.724168C18.9351 0.774164 17.6713 1.34287 16.748 2.30954Z" fill="#699547"/>
<path fill-rule="evenodd" clip-rule="evenodd" d="M73.2584 27.7104L73.1899 24.7158C74.3879 26.0225 75.6834 27.2362 77.0653 28.3465C75.7827 28.2264 74.5104 28.0138 73.2584 27.7104Z" fill="#B28D68"/>
<path d="M84.1079 36.9177V33.646H86.6412V20.8093H84.1079V17.6172H93.8433L98.092 28.8976L102.352 17.6172H112.246V20.8093H109.793V33.646H112.246V36.9177H102.511V33.646H104.885V20.8093H104.397L98.4214 36.9177H96.2971L90.2423 20.8093H89.7538V33.646H92.287V36.9177H84.1079Z" fill="white"/>
<path d="M123.038 33.8051V36.9177H113.553V33.8051H116.006V26.6143H113.734V23.4221H119.96V26.8301C120.234 25.8185 120.837 24.9271 121.675 24.2968C122.513 23.5765 123.592 23.1991 124.697 23.2404H125.356V27.3299C124.469 27.2915 123.583 27.399 122.731 27.648C122.352 27.7938 122.004 28.0134 121.71 28.2942C121.416 28.575 121.18 28.9113 121.016 29.2838C120.574 30.1724 120.352 31.1542 120.369 32.1465V33.7823L123.038 33.8051Z" fill="white"/>
<path d="M143.327 17.618H146.587V24.434H143.327C142.43 21.9802 140.794 20.7533 138.499 20.7533C137.683 20.7055 136.867 20.8611 136.126 21.206C135.384 21.551 134.74 22.0747 134.251 22.73C133.25 24.0294 132.728 25.6344 132.774 27.2739C132.692 28.9319 133.249 30.5582 134.33 31.8179C134.808 32.3912 135.407 32.85 136.086 33.1606C136.764 33.4713 137.503 33.6258 138.249 33.6128C138.882 33.6253 139.51 33.5088 140.096 33.2706C140.682 33.0323 141.213 32.6772 141.657 32.2268C142.715 31.25 143.431 29.9601 143.702 28.5462L147.462 30.4206C146.065 34.9646 142.918 37.1343 137.886 37.1343C134.478 37.1343 131.842 36.2255 130.036 34.3511C128.284 32.3999 127.348 29.8499 127.423 27.2285C127.358 25.3342 127.839 23.4611 128.809 21.8325C129.679 20.3628 130.958 19.1785 132.49 18.4246C134.077 17.6725 135.812 17.2844 137.568 17.2886C139.653 17.1937 141.705 17.8284 143.373 19.0834L143.327 17.618Z" fill="#63B72F"/>
<path d="M164.104 33.8047V36.9173H157.64V35.8495C156.987 36.3946 156.205 36.7624 155.369 36.9173V34.384C156.22 34.1372 156.999 33.6892 157.64 33.0777V31.9417C156.96 31.4753 156.184 31.1685 155.369 31.0442V28.4087C156.141 28.574 156.9 28.7942 157.64 29.0676V28.2497C157.649 27.6146 157.413 27.0005 156.982 26.5344C156.538 26.1678 155.997 25.9388 155.425 25.8755V23.0923H155.675C156.786 23.0673 157.892 23.2325 158.947 23.5808C159.67 23.7733 160.324 24.1672 160.833 24.7168C161.254 25.1238 161.563 25.6324 161.73 26.1936C161.921 27.0777 162.001 27.982 161.969 28.8859V33.7933L164.104 33.8047ZM155.425 36.9173C154.953 37.0774 154.458 37.1618 153.96 37.1672C152.731 37.1672 151.535 36.7686 150.552 36.0312C150.079 35.6703 149.698 35.204 149.438 34.6696C149.177 34.1351 149.045 33.5472 149.052 32.9527C149.05 32.337 149.189 31.729 149.459 31.1755C149.729 30.6221 150.122 30.138 150.609 29.7606C151.701 28.8295 153.105 28.3466 154.539 28.4087H155.437V31.0329C155.407 30.9994 155.37 30.9736 155.329 30.9578C155.287 30.9419 155.242 30.9365 155.198 30.942C154.69 30.9475 154.198 31.1235 153.801 31.4418C153.6 31.5723 153.441 31.7566 153.34 31.9736C153.24 32.1906 153.203 32.4315 153.233 32.6687C153.226 32.8958 153.266 33.1218 153.35 33.3328C153.434 33.5439 153.56 33.7354 153.721 33.8956C153.866 34.0811 154.053 34.2294 154.266 34.3282C154.479 34.427 154.713 34.4734 154.948 34.4636C155.115 34.477 155.283 34.4497 155.437 34.384V36.9173H155.425ZM155.425 25.8755H155.107C154.644 25.8582 154.183 25.9451 153.759 26.13C153.334 26.3148 152.956 26.5928 152.653 26.9433L149.132 26.2844C150.109 24.2397 152.245 23.1718 155.425 23.0923V25.8755Z" fill="#63B72F"/>
<path d="M165.899 36.9183V32.3743H169.091C169.091 32.6682 169.166 32.9573 169.309 33.2139C169.452 33.4705 169.659 33.686 169.909 33.8397C170.51 34.2504 171.228 34.4538 171.954 34.4191C172.552 34.4356 173.143 34.2946 173.669 34.0101C173.83 33.9181 173.966 33.7883 174.065 33.6319C174.164 33.4755 174.223 33.2973 174.237 33.1127C174.242 32.9337 174.19 32.7577 174.088 32.6106C173.985 32.4635 173.839 32.3528 173.669 32.2948C173.005 31.9669 172.284 31.7702 171.545 31.7155C169.854 31.5585 168.226 30.9975 166.797 30.0796C166.35 29.7511 165.991 29.3187 165.749 28.8199C165.508 28.321 165.392 27.7708 165.411 27.2169C165.402 26.6842 165.515 26.1565 165.742 25.6742C165.968 25.1918 166.302 24.7676 166.717 24.4337C167.781 23.6505 169.078 23.2501 170.398 23.2978C171.565 23.2928 172.722 23.5126 173.806 23.9453V23.4568H176.918V27.3873H173.749C173.51 26.4785 172.522 25.9901 170.807 25.9901C169.58 25.9901 168.921 26.3195 168.921 27.0579C168.921 27.2964 169.091 27.4668 169.33 27.6259C169.953 27.8965 170.618 28.0615 171.295 28.1144C172.565 28.3052 173.821 28.5784 175.055 28.9323C175.836 29.2304 176.517 29.7421 177.021 30.4091C177.492 31.108 177.723 31.9414 177.679 32.7833C177.7 33.3893 177.594 33.9929 177.369 34.5561C177.144 35.1192 176.805 35.6296 176.373 36.0549C175.226 36.9294 173.803 37.3646 172.363 37.2818C171.779 37.3561 171.186 37.3065 170.622 37.1362C170.058 36.9659 169.537 36.6788 169.091 36.2935V36.9524L165.899 36.9183Z" fill="#63B72F"/>
<path d="M179.236 36.9177V33.8051H181.36V20.6389H179.236V17.6172H185.609V24.5694C186.711 23.6952 188.055 23.1798 189.46 23.0927C192.231 23.0927 193.629 24.808 193.629 28.0797V33.7596H195.594V36.8722H189.289V28.2841C189.357 27.8222 189.238 27.3523 188.96 26.9778C188.834 26.8457 188.682 26.7412 188.514 26.6708C188.346 26.6004 188.165 26.5657 187.983 26.5688C187.125 26.6503 186.306 26.9602 185.609 27.4662V33.7596H187.574V36.8722L179.236 36.9177Z" fill="#63B72F"/>
<path d="M206.465 17.6178C207.675 17.5662 208.886 17.677 210.067 17.9472C211.087 18.1531 211.992 18.7375 212.6 19.583C213.285 20.4865 213.641 21.5964 213.611 22.7297C213.648 23.5895 213.404 24.4381 212.916 25.1471C212.429 25.8562 211.723 26.3873 210.907 26.6602C213.179 27.5577 214.429 29.114 214.429 31.3178C214.455 32.5094 214.052 33.6706 213.293 34.5895C212.626 35.5364 211.636 36.2071 210.51 36.4752C209.207 36.8472 207.854 37.012 206.5 36.9637V33.692C207.194 33.685 207.874 33.4886 208.465 33.124C208.737 32.88 208.946 32.5739 209.075 32.2318C209.203 31.8897 209.247 31.5216 209.203 31.1588C209.251 30.7765 209.202 30.3883 209.059 30.0306C208.915 29.6729 208.684 29.3575 208.385 29.114C207.82 28.7555 207.169 28.5554 206.5 28.5346V25.1835C206.998 25.2041 207.488 25.0604 207.897 24.7745C208.155 24.5574 208.357 24.2803 208.483 23.9675C208.61 23.6546 208.658 23.3154 208.624 22.9796C208.646 22.6758 208.599 22.3709 208.487 22.0876C208.375 21.8043 208.2 21.5501 207.976 21.3438C207.512 21.1223 207.012 20.9839 206.5 20.9348L206.465 17.6178ZM196.9 36.9296V33.6579H199.275V20.8213H196.9V17.6178H206.465V20.8894C206.136 20.8894 205.897 20.8099 205.568 20.8099H204.341V25.2175H205.727C205.976 25.2317 206.225 25.2048 206.465 25.138V28.4892H204.341V33.6466H206.465V36.9182H196.9V36.9296Z" fill="white"/>
<path d="M232.639 33.8057V36.9183H226.175V35.7823C225.054 36.6592 223.679 37.1494 222.256 37.1796C221.698 37.2147 221.14 37.1305 220.617 36.9327C220.095 36.7349 219.62 36.4279 219.226 36.0324C218.831 35.6368 218.526 35.1616 218.329 34.6386C218.133 34.1155 218.05 33.5566 218.087 32.9991V26.6262H216.121V23.4341H222.415V31.8177C222.353 32.3044 222.47 32.7969 222.744 33.2036C222.903 33.4535 223.312 33.5331 223.812 33.5331C224.671 33.475 225.494 33.1626 226.175 32.6356V26.5808H224.13V23.3887H230.514V33.7716L232.639 33.8057Z" fill="white"/>
<path d="M236.569 43.0528V39.9401H239.182L240.079 37.4978L235.172 26.615H233.218V23.4229H241.306V26.615H239.761L241.965 32.6698L244.339 26.615H242.624V23.4229H249.656V26.615H247.77L241.306 43.0528H236.569Z" fill="white"/>
<path d="M260.448 32.9542L263.856 34.022C263.147 35.092 262.169 35.9572 261.021 36.5313C259.873 37.1054 258.594 37.3683 257.313 37.2937H256.904V34.431C257.062 34.4947 257.233 34.5219 257.403 34.5105C258.599 34.4094 259.709 33.8521 260.505 32.9542H260.448ZM256.847 23.1392H257.017C258.425 23.0922 259.807 23.5248 260.936 24.3661C262.027 25.0268 262.863 26.0351 263.311 27.2288C263.755 28.4912 263.978 29.821 263.97 31.1593H256.847V28.7056H259.63C259.555 27.9929 259.238 27.3274 258.733 26.8198C258.498 26.5528 258.207 26.341 257.881 26.1996C257.555 26.0582 257.202 25.9907 256.847 26.0019V23.1392ZM256.847 37.2937C254.958 37.3184 253.126 36.6471 251.701 35.4079C251.032 34.7812 250.504 34.0197 250.152 33.1737C249.799 32.3277 249.63 31.4165 249.656 30.5004C249.634 29.5288 249.811 28.5629 250.177 27.6623C250.542 26.7616 251.088 25.9453 251.78 25.2635C252.439 24.5875 253.227 24.0511 254.098 23.6861C254.968 23.3211 255.903 23.1351 256.847 23.1392V26.0019H256.779C255.222 26.0019 254.245 26.8993 253.996 28.7056H256.858V31.1593H253.916C253.91 31.6591 254.018 32.1537 254.23 32.6061C254.443 33.0586 254.755 33.4571 255.143 33.7721C255.655 34.1242 256.242 34.3499 256.858 34.431L256.847 37.2937Z" fill="white"/>
<path d="M274.954 33.8051V36.9177H265.458V33.8051H267.911V26.6142H265.639V23.4221H271.853V26.8301C272.131 25.8404 272.701 24.9575 273.489 24.2968C274.362 23.5753 275.47 23.1993 276.602 23.2403H277.226V27.3299C276.344 27.2915 275.461 27.399 274.614 27.648C274.233 27.7921 273.885 28.0111 273.59 28.2921C273.296 28.5731 273.06 28.9103 272.898 29.2838C272.411 30.1559 272.182 31.149 272.239 32.1465V33.7823L274.954 33.8051Z" fill="white"/>
<path d="M223.642 49.0278V48.119H223.721C224.064 48.1152 224.402 48.0336 224.71 47.8805C224.945 47.6587 225.115 47.3754 225.198 47.0626H226.175C226.058 47.6418 225.741 48.161 225.278 48.528C224.805 48.8759 224.228 49.0522 223.642 49.0278ZM223.642 46.2446V45.4495H225.278C225.244 45.0131 225.104 44.5916 224.869 44.2226C224.713 44.0549 224.523 43.924 224.31 43.8395C224.098 43.755 223.87 43.719 223.642 43.7341V42.8253H223.721C224.077 42.8125 224.43 42.8792 224.757 43.0208C225.083 43.1623 225.374 43.375 225.607 43.6432C226.049 44.3177 226.278 45.1091 226.266 45.9152V46.2446H223.642ZM227.572 48.8574V42.973H228.549V43.9499C228.629 43.7909 228.72 43.7114 228.799 43.541C228.955 43.3165 229.162 43.1323 229.403 43.0039C229.644 42.8755 229.912 42.8064 230.185 42.8026C230.231 42.7972 230.277 42.8025 230.321 42.8183C230.364 42.8341 230.403 42.8598 230.435 42.8935V43.8704H230.265C230.036 43.8483 229.805 43.8811 229.592 43.9661C229.379 44.051 229.189 44.1857 229.038 44.3589C228.872 44.5319 228.743 44.737 228.659 44.9617C228.575 45.1863 228.537 45.4258 228.549 45.6653V48.8574H227.572ZM223.642 42.8026V43.7114C223.407 43.7016 223.173 43.748 222.96 43.8468C222.746 43.9455 222.559 44.0939 222.415 44.2794C222.154 44.6008 222.01 45.0013 222.006 45.4154H223.642V46.2333H222.006C222.011 46.714 222.124 47.1876 222.335 47.6192C222.507 47.787 222.712 47.9171 222.937 48.0012C223.162 48.0853 223.402 48.1216 223.642 48.1077V49.0165H223.562C223.194 49.0373 222.826 48.9745 222.486 48.8329C222.145 48.6912 221.842 48.4744 221.597 48.1986C221.117 47.5427 220.887 46.7369 220.949 45.9266C220.904 45.1056 221.163 44.2966 221.676 43.6546C221.914 43.3648 222.215 43.1326 222.555 42.9752C222.895 42.8178 223.267 42.7394 223.642 42.7458V42.8026ZM204.83 48.8574V47.96H205.239C205.738 47.9896 206.232 47.8451 206.636 47.551C206.909 47.2366 207.055 46.8315 207.045 46.4151C207.045 46.2332 207.009 46.053 206.939 45.8852C206.869 45.7174 206.766 45.5654 206.636 45.4381C206.191 45.174 205.674 45.0586 205.159 45.1087H204.83V44.2112H205C205.46 44.2513 205.92 44.1352 206.307 43.8818C206.449 43.7644 206.561 43.6141 206.632 43.4439C206.703 43.2737 206.732 43.0886 206.715 42.9048C206.721 42.7322 206.687 42.5607 206.616 42.4032C206.545 42.2457 206.439 42.1065 206.307 41.9961C205.955 41.8195 205.563 41.7373 205.171 41.7575H204.841V40.7692H205.5C206.1 40.7382 206.689 40.9466 207.136 41.3485C207.342 41.5148 207.508 41.7262 207.62 41.9664C207.732 42.2066 207.788 42.4693 207.783 42.7344C207.793 43.0328 207.732 43.3292 207.606 43.5996C207.48 43.87 207.291 44.1068 207.056 44.2907C206.886 44.3703 206.806 44.4498 206.647 44.5407C207.093 44.6337 207.492 44.8803 207.774 45.2374C208.057 45.5945 208.205 46.0395 208.192 46.4946C208.198 46.8259 208.127 47.1539 207.985 47.4534C207.843 47.7528 207.634 48.0155 207.374 48.2213C206.763 48.6765 206.012 48.9053 205.25 48.8688L204.83 48.8574ZM210.317 42.973V46.7331C210.299 47.1148 210.411 47.4911 210.635 47.801C210.75 47.9222 210.893 48.0143 211.051 48.0696C211.209 48.1249 211.378 48.1418 211.543 48.119C211.758 48.1348 211.973 48.0986 212.171 48.0136C212.369 47.9286 212.543 47.7972 212.679 47.6306C213.001 47.1791 213.147 46.6255 213.088 46.0743V42.973H214.077V48.8574H213.179V47.96C213.071 48.0486 212.986 48.1614 212.929 48.2894C212.746 48.5259 212.51 48.7159 212.239 48.8442C211.969 48.9725 211.672 49.0354 211.373 49.0278C210.811 49.0507 210.26 48.8736 209.817 48.528C209.637 48.3156 209.501 48.0697 209.418 47.8045C209.334 47.5393 209.303 47.2601 209.328 46.9831V42.973H210.317ZM220.37 42.973L218.098 49.0278C217.902 49.6744 217.594 50.2817 217.189 50.8227C217.023 50.9701 216.829 51.0823 216.618 51.1526C216.407 51.2229 216.184 51.2498 215.962 51.2316C215.796 51.2414 215.629 51.2142 215.474 51.1521V50.2547C215.66 50.3199 215.857 50.3469 216.053 50.3342C216.161 50.3379 216.268 50.3173 216.366 50.274C216.464 50.2308 216.551 50.1659 216.621 50.0843C216.848 49.7653 217.014 49.4071 217.11 49.0278L217.189 48.937L214.986 42.973H216.121L217.678 47.801L219.223 42.973H220.359H220.37ZM204.83 40.7578V41.7461H203.035V44.1999H204.83V45.0973H203.035V47.96H204.83V48.8574H201.967V40.7578H204.83ZM194.856 49.0278V48.119H194.935C195.277 48.1369 195.617 48.0539 195.912 47.8805C196.057 47.7969 196.179 47.6783 196.267 47.5353C196.354 47.3924 196.404 47.2299 196.412 47.0626H197.389C197.302 47.6336 197.011 48.154 196.571 48.528C196.063 48.8644 195.465 49.0386 194.856 49.0278ZM194.856 46.2446V45.4495H196.492C196.49 45.0073 196.347 44.5773 196.083 44.2226C195.945 44.0581 195.77 43.9282 195.573 43.8434C195.375 43.7586 195.161 43.7211 194.947 43.7341H194.867V42.8253H194.947C195.303 42.8039 195.66 42.8667 195.987 43.0088C196.315 43.1509 196.604 43.3683 196.832 43.6432C197.331 44.2934 197.588 45.0965 197.559 45.9152V46.2446H194.856ZM194.856 42.8367V43.7455C194.621 43.7356 194.387 43.782 194.173 43.8808C193.96 43.9796 193.773 44.128 193.629 44.3135C193.429 44.6661 193.291 45.0503 193.22 45.4495H194.856V46.2674H193.22C193.243 46.7555 193.383 47.231 193.629 47.6533C193.778 47.8288 193.968 47.965 194.182 48.0502C194.395 48.1354 194.627 48.1668 194.856 48.1418V49.0505C194.488 49.0714 194.12 49.0086 193.779 48.867C193.439 48.7253 193.135 48.5084 192.89 48.2326C192.62 47.9236 192.415 47.5629 192.288 47.1724C192.161 46.7819 192.115 46.3696 192.152 45.9607C192.11 45.1382 192.373 44.3291 192.89 43.6887C193.128 43.3983 193.428 43.1655 193.769 43.0081C194.109 42.8507 194.481 42.7726 194.856 42.7799V42.8367ZM179.236 49.0619V48.1531C179.471 48.163 179.705 48.1166 179.918 48.0178C180.132 47.919 180.318 47.7706 180.463 47.5851C180.781 47.0989 180.95 46.5304 180.95 45.9493C180.95 45.3682 180.781 44.7997 180.463 44.3135C180.323 44.1165 180.139 43.9546 179.926 43.8403C179.714 43.726 179.477 43.6625 179.236 43.6546V42.8367C179.602 42.8159 179.969 42.8788 180.307 43.0205C180.646 43.1622 180.947 43.379 181.19 43.6546C181.697 44.3009 181.958 45.1058 181.928 45.9266C181.965 46.7276 181.702 47.5136 181.19 48.1304C180.955 48.4206 180.657 48.6533 180.318 48.8108C179.979 48.9683 179.609 49.0464 179.236 49.0392V49.0619ZM183.076 48.8915V43.0071H184.075V43.9045L184.246 43.6546C184.434 43.3986 184.681 43.1911 184.965 43.0489C185.249 42.9067 185.564 42.834 185.881 42.8367C186.109 42.8319 186.336 42.8738 186.547 42.9597C186.758 43.0457 186.949 43.1739 187.108 43.3365C187.258 43.4347 187.374 43.5779 187.438 43.7455L187.597 43.5751C187.77 43.3468 187.993 43.1614 188.249 43.0333C188.505 42.9053 188.787 42.838 189.074 42.8367C189.339 42.8177 189.605 42.8522 189.857 42.9381C190.109 43.0239 190.341 43.1594 190.539 43.3365C190.708 43.5234 190.839 43.7423 190.923 43.9803C191.007 44.2182 191.042 44.4705 191.027 44.7224V48.8574H190.051V45.0973C190.078 44.7242 189.991 44.3515 189.801 44.0295C189.695 43.9209 189.567 43.8364 189.426 43.7815C189.285 43.7266 189.134 43.7027 188.983 43.7114C188.781 43.7038 188.579 43.7441 188.396 43.829C188.212 43.9139 188.051 44.041 187.926 44.1999C187.671 44.6146 187.555 45.1004 187.597 45.5858V48.8574H186.62V44.8474C186.633 44.6828 186.611 44.5173 186.554 44.3623C186.497 44.2073 186.407 44.0666 186.29 43.9499C186.109 43.7897 185.873 43.7045 185.632 43.7114C185.41 43.7037 185.19 43.7517 184.991 43.8509C184.793 43.9501 184.622 44.0974 184.496 44.2794C184.219 44.688 184.076 45.1722 184.087 45.6653V48.8574H183.11L183.076 48.8915ZM179.236 42.8367V43.6546C178.994 43.6598 178.757 43.7222 178.543 43.8367C178.33 43.9513 178.147 44.1146 178.009 44.3135C177.741 44.8169 177.6 45.3787 177.6 45.9493C177.6 46.5199 177.741 47.0817 178.009 47.5851C178.152 47.7728 178.338 47.9227 178.552 48.0217C178.766 48.1207 179.001 48.1659 179.236 48.1531V49.0619C178.872 49.0727 178.51 48.9958 178.182 48.8376C177.854 48.6795 177.569 48.4447 177.35 48.1531C176.843 47.5336 176.58 46.7495 176.612 45.9493C176.588 45.1293 176.849 44.3264 177.35 43.6773C177.573 43.3965 177.862 43.175 178.191 43.0323C178.52 42.8896 178.879 42.8302 179.236 42.8594V42.8367ZM155.596 46.5173V45.8698H156.164L156.414 44.2339H155.596V43.5751H156.493L156.823 41.1213H157.561L157.232 43.5751H158.368L158.277 44.2339H157.061L156.902 45.8698H158.038L157.959 46.5173H156.743L156.414 48.8574H155.755L156.084 46.4832L155.596 46.5173ZM161.651 48.8574V43.1775H159.845V42.4504C160.312 42.4517 160.768 42.3089 161.151 42.0415C161.521 41.7596 161.782 41.3582 161.889 40.9055H162.707V48.8574H161.651ZM168.921 48.8574V40.7578H169.989V44.1658H174.238V40.7578H175.305V48.8574H174.238V45.0973H169.989V48.8574H168.921ZM155.596 43.541V44.1999H155.017L154.778 45.8357H155.596V46.4832H154.698L154.29 48.8574H153.631L153.96 46.4832H152.733L152.813 45.8357H154.04L154.29 44.1999H153.063L153.142 43.541H154.369L154.698 41.0873H155.426L155.107 43.541H155.596ZM140.465 49.0278V48.2099C140.686 48.2068 140.903 48.153 141.1 48.0526C141.297 47.9521 141.468 47.8077 141.601 47.6306C141.95 47.2254 142.125 46.6989 142.089 46.1651C142.105 45.5384 141.965 44.9175 141.68 44.3589C141.552 44.151 141.371 43.9813 141.155 43.8674C140.939 43.7535 140.697 43.6996 140.453 43.7114V42.8026C140.764 42.8292 141.064 42.9245 141.334 43.0817C141.603 43.2389 141.834 43.454 142.009 43.7114L142.089 43.7909V40.7578H143.066V48.8574H142.089V48.0395L142.009 48.2099C141.83 48.4558 141.596 48.6574 141.326 48.7991C141.056 48.9409 140.758 49.0191 140.453 49.0278H140.465ZM147.826 44.6883C147.789 44.3988 147.643 44.1344 147.417 43.9499C147.146 43.7509 146.822 43.6371 146.486 43.623C146.15 43.6088 145.818 43.6949 145.531 43.8704C145.445 43.9255 145.371 43.9984 145.316 44.0843C145.26 44.1702 145.223 44.2669 145.208 44.3681C145.193 44.4693 145.2 44.5726 145.228 44.6709C145.257 44.7693 145.306 44.8605 145.372 44.9383C145.639 45.1193 145.948 45.2288 146.269 45.2563L147.337 45.5063C147.785 45.5978 148.205 45.7923 148.564 46.0743C148.686 46.2219 148.777 46.3925 148.831 46.576C148.886 46.7594 148.903 46.9519 148.882 47.1421C148.894 47.4005 148.849 47.6582 148.751 47.8976C148.653 48.1369 148.504 48.352 148.314 48.528C147.812 48.8763 147.21 49.0517 146.599 49.0278C145.932 49.0734 145.27 48.8977 144.713 48.528C144.49 48.3407 144.315 48.1027 144.202 47.834C144.089 47.5653 144.043 47.2735 144.066 46.9831H145.043C145.032 47.1547 145.063 47.3265 145.135 47.483C145.206 47.6396 145.315 47.7761 145.452 47.8805C145.803 48.057 146.195 48.1392 146.588 48.119C146.929 48.1369 147.269 48.0539 147.564 47.8805C147.68 47.7981 147.772 47.6862 147.83 47.5563C147.888 47.4264 147.91 47.2834 147.894 47.1421C147.891 46.9912 147.835 46.8463 147.735 46.7331C147.464 46.5498 147.152 46.4366 146.826 46.4037L145.77 46.1651C145.34 46.0958 144.942 45.8931 144.634 45.5858C144.502 45.4601 144.397 45.3083 144.327 45.1402C144.256 44.972 144.222 44.7911 144.225 44.6088C144.22 44.3539 144.278 44.1017 144.392 43.8741C144.507 43.6464 144.676 43.4502 144.884 43.3024C145.315 42.9432 145.868 42.7642 146.428 42.8026C147.015 42.7782 147.592 42.9546 148.064 43.3024C148.273 43.4676 148.441 43.6785 148.555 43.9187C148.669 44.159 148.727 44.4223 148.723 44.6883H147.826ZM140.465 42.8026V43.7114C140.236 43.6864 140.004 43.7178 139.79 43.803C139.576 43.8881 139.387 44.0244 139.238 44.1999C138.968 44.7291 138.854 45.3238 138.908 45.9152C138.83 46.4928 138.976 47.0784 139.317 47.551C139.432 47.7506 139.598 47.9165 139.797 48.0321C139.997 48.1477 140.223 48.209 140.453 48.2099V49.0278H140.374C140.011 49.0264 139.654 48.944 139.328 48.7868C139.002 48.6296 138.715 48.4014 138.488 48.119C138.029 47.4186 137.799 46.593 137.829 45.7562C137.808 44.9913 138.04 44.2408 138.488 43.6205C138.706 43.3581 138.981 43.1482 139.292 43.0066C139.603 42.865 139.941 42.7953 140.283 42.8026H140.465ZM127.787 48.937V48.119C128.134 48.0984 128.471 47.9889 128.764 47.801C129.014 47.551 129.173 47.392 129.173 47.0626C129.252 47.0626 129.252 46.9831 129.252 46.8922V45.9152C129.093 45.9947 128.843 45.9947 128.684 46.0743L127.787 46.1651V45.4495L128.525 45.2791H128.843C129.014 45.1995 129.093 45.1995 129.173 45.0405C129.252 44.8815 129.252 44.8701 129.252 44.7111V44.6315C129.268 44.4914 129.248 44.3495 129.192 44.2199C129.136 44.0903 129.047 43.9777 128.934 43.8932C128.635 43.7173 128.292 43.6306 127.946 43.6432H127.787V42.8253H128.025C128.615 42.7725 129.202 42.9518 129.661 43.3252C129.865 43.4723 130.025 43.6707 130.127 43.9002C130.229 44.1296 130.268 44.382 130.241 44.6315V47.9032C130.241 47.9827 130.32 48.0622 130.32 48.1418C130.32 48.2213 130.479 48.2326 130.57 48.2326H130.684C130.763 48.1418 130.763 48.1418 130.843 48.1418V48.8574C130.763 48.8574 130.684 48.937 130.525 48.937H130.275C129.982 48.9567 129.693 48.8722 129.457 48.6984C129.364 48.5096 129.28 48.3162 129.207 48.119L128.968 48.369C128.632 48.6869 128.201 48.8863 127.741 48.937H127.787ZM131.956 48.8574V42.973H132.853V43.8704L133.103 43.541C133.292 43.3109 133.53 43.1254 133.799 42.9978C134.068 42.8701 134.362 42.8035 134.66 42.8026C134.938 42.7576 135.224 42.7795 135.492 42.8663C135.761 42.9532 136.005 43.1026 136.205 43.3022C136.404 43.5018 136.554 43.746 136.641 44.0146C136.728 44.2833 136.749 44.5687 136.704 44.8474V48.8574H135.716V45.1768C135.742 44.975 135.727 44.7699 135.67 44.5744C135.613 44.3789 135.517 44.1973 135.387 44.0408C135.274 43.919 135.134 43.8264 134.977 43.771C134.821 43.7155 134.653 43.699 134.489 43.7227C134.266 43.7072 134.043 43.7518 133.844 43.8517C133.644 43.9516 133.475 44.1032 133.353 44.2907C133.043 44.6824 132.896 45.1792 132.944 45.6767V48.8574H131.967H131.956ZM127.787 42.8026V43.6205C127.495 43.6163 127.209 43.7037 126.969 43.8704C126.838 43.9797 126.733 44.1171 126.662 44.2725C126.591 44.4278 126.556 44.5972 126.56 44.7679H125.663C125.648 44.4899 125.699 44.2124 125.811 43.9578C125.924 43.7032 126.095 43.4787 126.31 43.3024C126.722 42.9557 127.249 42.7772 127.787 42.8026ZM127.787 45.4267V46.1651C127.401 46.2035 127.032 46.3447 126.719 46.5741C126.61 46.6201 126.519 46.7005 126.459 46.8029C126.4 46.9054 126.375 47.0245 126.39 47.1421C126.387 47.4339 126.474 47.7195 126.64 47.96C126.74 48.0485 126.857 48.1161 126.984 48.159C127.11 48.2019 127.244 48.2192 127.378 48.2099C127.537 48.2099 127.707 48.2099 127.787 48.119V48.937C127.605 49.0174 127.405 49.0488 127.208 49.0278C126.955 49.0399 126.703 49.0019 126.465 48.9161C126.227 48.8304 126.008 48.6985 125.822 48.528C125.659 48.3691 125.531 48.1778 125.447 47.9664C125.363 47.7551 125.324 47.5284 125.333 47.3011C125.319 47.0732 125.355 46.845 125.44 46.6329C125.524 46.4207 125.655 46.23 125.822 46.0743C126.195 45.7047 126.685 45.4759 127.208 45.4267H127.787ZM107.419 51.3112V50.4933C107.622 50.4991 107.824 50.458 108.009 50.3733C108.194 50.2887 108.358 50.1625 108.486 50.0048C108.825 49.5586 108.998 49.0083 108.975 48.4485V48.2099C108.801 48.4624 108.569 48.6688 108.298 48.8113C108.027 48.9539 107.725 49.0282 107.419 49.0278V48.119C107.632 48.1238 107.844 48.0827 108.04 47.9984C108.236 47.9141 108.411 47.7887 108.555 47.6306C108.831 47.1924 108.973 46.683 108.963 46.1651C109.036 45.5341 108.891 44.8973 108.555 44.3589C108.455 44.1471 108.292 43.9712 108.089 43.8553C107.886 43.7394 107.652 43.6892 107.419 43.7114V42.8026C107.725 42.7991 108.027 42.8826 108.288 43.0435C108.55 43.2043 108.76 43.4359 108.895 43.7114L108.975 43.7909V42.973H109.952V48.4485C110.014 49.2588 109.784 50.0646 109.304 50.7205C108.777 51.1618 108.106 51.3924 107.419 51.368V51.3112ZM114.7 48.8574V40.7578H115.836V48.8574H114.7ZM120.914 44.6883C120.915 44.5406 120.878 44.3951 120.806 44.2658C120.734 44.1365 120.631 44.0277 120.505 43.9499C120.372 43.8327 120.218 43.7432 120.05 43.6866C119.882 43.6301 119.705 43.6076 119.528 43.6205C119.207 43.6071 118.889 43.6945 118.619 43.8704C118.508 43.9376 118.419 44.0357 118.363 44.1526C118.306 44.2696 118.285 44.4005 118.301 44.5293C118.301 44.6126 118.323 44.6944 118.365 44.7663C118.407 44.8383 118.467 44.8976 118.54 44.9383C118.801 45.1315 119.113 45.2423 119.437 45.2563L120.426 45.5063C120.873 45.5978 121.293 45.7923 121.653 46.0743C121.789 46.2158 121.895 46.3832 121.965 46.5666C122.036 46.7501 122.068 46.9458 122.061 47.1421C122.056 47.4065 121.994 47.6667 121.88 47.9056C121.767 48.1444 121.604 48.3566 121.403 48.528C120.906 48.8875 120.3 49.0641 119.687 49.0278C119.049 49.0752 118.414 48.8985 117.892 48.528C117.669 48.3354 117.489 48.0986 117.362 47.8328C117.234 47.5669 117.164 47.2776 117.154 46.9831H118.188C118.207 47.3228 118.353 47.6429 118.597 47.8805C118.948 48.057 119.34 48.1392 119.733 48.119C120.104 48.1441 120.475 48.0613 120.801 47.8805C120.999 47.6852 121.113 47.4203 121.119 47.1421C121.12 47.0586 121.099 46.9762 121.057 46.9041C121.015 46.8319 120.954 46.7728 120.88 46.7331C120.613 46.5498 120.305 46.4366 119.983 46.4037L118.915 46.1651C118.5 46.0531 118.113 45.8558 117.779 45.5858C117.66 45.4538 117.57 45.2991 117.514 45.1312C117.457 44.9632 117.435 44.7855 117.449 44.6088C117.431 44.3602 117.474 44.1108 117.575 43.8828C117.676 43.6549 117.832 43.4555 118.029 43.3024C118.471 42.9551 119.023 42.7777 119.585 42.8026C120.173 42.7676 120.753 42.945 121.221 43.3024C121.428 43.4682 121.594 43.6794 121.706 43.9198C121.819 44.1601 121.874 44.4231 121.868 44.6883H120.914ZM123.186 48.8574V40.7578H124.163V48.8574H123.186ZM107.396 42.8026V43.7114C107.167 43.6893 106.937 43.7221 106.723 43.807C106.51 43.892 106.32 44.0267 106.169 44.1999C105.878 44.7232 105.736 45.3167 105.76 45.9152C105.735 46.4886 105.877 47.0568 106.169 47.551C106.308 47.7426 106.494 47.8954 106.708 47.9948C106.923 48.0942 107.16 48.137 107.396 48.119V49.0278H107.316C106.952 49.0386 106.591 48.9617 106.263 48.8036C105.934 48.6454 105.649 48.4106 105.431 48.119C104.941 47.4334 104.711 46.5957 104.783 45.7562C104.721 44.988 104.952 44.2248 105.431 43.6205C105.65 43.3565 105.927 43.1458 106.24 43.0041C106.553 42.8625 106.893 42.7936 107.237 42.8026H107.396ZM107.396 50.4933V51.3112H107.237C106.663 51.336 106.095 51.194 105.601 50.9022C105.186 50.5523 104.922 50.056 104.863 49.5163H105.919C105.955 49.8058 106.102 50.0702 106.328 50.2547C106.57 50.4147 106.855 50.4979 107.146 50.4933H107.396ZM94.8999 49.0278V48.119C95.1492 48.139 95.3997 48.0977 95.6293 47.9987C95.859 47.8997 96.061 47.746 96.2177 47.551C96.4862 47.0476 96.6266 46.4858 96.6266 45.9152C96.6266 45.3446 96.4862 44.7828 96.2177 44.2794C96.0668 44.0721 95.8684 43.9041 95.6391 43.7894C95.4098 43.6748 95.1563 43.6169 94.8999 43.6205V42.8026C95.2789 42.7892 95.6565 42.8551 96.0086 42.9959C96.3607 43.1367 96.6795 43.3495 96.9447 43.6205C97.4515 44.2668 97.7131 45.0717 97.6831 45.8925C97.7204 46.6935 97.4571 47.4795 96.9447 48.0963C96.6862 48.3821 96.3707 48.6107 96.0185 48.7672C95.6664 48.9237 95.2853 49.0048 94.8999 49.0051V49.0278ZM98.8759 48.8574V42.973H99.7733V43.8704L100.023 43.541C100.212 43.3109 100.45 43.1254 100.719 42.9978C100.988 42.8701 101.282 42.8035 101.58 42.8026C102.138 42.7795 102.686 42.9568 103.125 43.3024C103.47 43.7413 103.647 44.2893 103.624 44.8474V48.8574H102.636V45.1768C102.662 44.975 102.647 44.7699 102.59 44.5744C102.533 44.3789 102.437 44.1973 102.307 44.0408C102.194 43.919 102.054 43.8264 101.897 43.771C101.741 43.7155 101.573 43.699 101.409 43.7227C101.186 43.7072 100.963 43.7518 100.764 43.8517C100.564 43.9516 100.394 44.1032 100.273 44.2907C99.9626 44.6824 99.8161 45.1792 99.8642 45.6767V48.8574H98.8759ZM86.38 48.8574V40.7578H87.516V47.8805H91.6056V48.8574H86.38ZM94.8772 42.8026V43.6205C94.6358 43.6284 94.3994 43.692 94.1866 43.8062C93.9738 43.9205 93.7903 44.0825 93.6503 44.2794C93.3818 44.7828 93.2414 45.3446 93.2414 45.9152C93.2414 46.4858 93.3818 47.0476 93.6503 47.551C93.7948 47.7366 93.9816 47.8849 94.195 47.9837C94.4084 48.0825 94.6423 48.1289 94.8772 48.119V49.0278C94.5038 49.035 94.1338 48.9569 93.7952 48.7994C93.4566 48.6419 93.1584 48.4092 92.9233 48.119C92.411 47.5022 92.1476 46.7162 92.1849 45.9152C92.1549 45.0944 92.4165 44.2896 92.9233 43.6432C93.1656 43.3677 93.4675 43.1508 93.806 43.0091C94.1445 42.8674 94.5108 42.8046 94.8772 42.8253V42.8026Z" fill="white"/>
<path d="M257.665 48.6985V46.8923C257.868 46.8981 258.07 46.857 258.255 46.7723C258.441 46.6876 258.604 46.5615 258.732 46.4038C259.036 45.9439 259.18 45.3971 259.141 44.8475C259.168 44.3275 259.024 43.8131 258.732 43.382C258.61 43.217 258.448 43.0857 258.261 43.0003C258.075 42.9149 257.869 42.8782 257.665 42.8936V41.0873C258.683 41.0608 259.674 41.4129 260.448 42.0756C260.809 42.4377 261.091 42.8713 261.275 43.3487C261.459 43.826 261.541 44.3365 261.516 44.8475C261.549 45.3729 261.471 45.8993 261.287 46.3925C261.103 46.8858 260.817 47.3347 260.448 47.7102C259.681 48.3847 258.685 48.7386 257.665 48.6985ZM262.334 43.0185V41.3032H265.866V41.8712C266.582 41.4371 267.404 41.2091 268.241 41.2123C268.672 41.1741 269.106 41.2445 269.503 41.4172C269.899 41.5898 270.247 41.8592 270.513 42.2006C271.37 41.5801 272.397 41.2354 273.455 41.2123C273.966 41.1678 274.478 41.2829 274.92 41.5417C275.112 41.6254 275.284 41.7486 275.425 41.9032C275.566 42.0579 275.673 42.2405 275.738 42.4392C275.907 42.9981 275.965 43.5847 275.909 44.1659V46.9377H277.135V48.5735H273.614V44.3135C273.614 43.5752 273.284 43.1776 272.637 43.1776C272.034 43.1991 271.445 43.3667 270.922 43.666V46.9377H272.148V48.5735H268.627V44.3135C268.627 43.4956 268.297 43.0867 267.65 43.0867C267.045 43.1197 266.456 43.2865 265.923 43.5752V46.8468H267.15V48.4826H262.413V46.8468H263.594V42.9276L262.334 43.0185ZM240.988 48.5735V46.0403H243.522V48.5735H240.988ZM257.665 41.1328V42.939C256.688 42.939 256.199 43.5865 256.199 44.9838C256.181 45.4779 256.325 45.9645 256.608 46.3697C256.714 46.5535 256.869 46.7041 257.055 46.8045C257.242 46.9049 257.453 46.951 257.665 46.9377V48.7439C256.674 48.7687 255.711 48.4153 254.972 47.7556C254.593 47.3844 254.296 46.9378 254.101 46.4447C253.905 45.9516 253.815 45.423 253.836 44.8929C253.824 44.3775 253.919 43.8652 254.114 43.3882C254.31 42.9112 254.602 42.4798 254.972 42.1211C255.711 41.4614 256.674 41.1079 257.665 41.1328ZM252.848 41.3032V44.2454H251.212C251.071 43.8816 250.823 43.5693 250.5 43.3502C250.178 43.131 249.796 43.0153 249.406 43.0185C249.179 43.0116 248.953 43.0514 248.742 43.1354C248.531 43.2194 248.339 43.3459 248.179 43.507C247.914 43.9208 247.772 44.4015 247.77 44.8929C247.745 45.1717 247.775 45.4527 247.859 45.7198C247.943 45.9869 248.079 46.2348 248.259 46.4492C248.402 46.6073 248.577 46.7327 248.773 46.817C248.969 46.9013 249.181 46.9425 249.395 46.9377C249.776 46.9552 250.153 46.8431 250.462 46.6196C250.771 46.3851 251.046 46.11 251.28 45.8017L253.075 46.5287C252.804 47.2286 252.318 47.8251 251.688 48.233C251.058 48.6409 250.315 48.8396 249.565 48.8007C248.443 48.8547 247.338 48.504 246.452 47.8124C246.083 47.437 245.798 46.988 245.614 46.4948C245.43 46.0015 245.352 45.4751 245.385 44.9497C245.354 44.4501 245.434 43.9498 245.618 43.4845C245.803 43.0191 246.088 42.6002 246.452 42.2574C247.168 41.6116 248.101 41.2588 249.065 41.2691C249.856 41.2368 250.636 41.4686 251.28 41.928V41.36L252.848 41.3032Z" fill="#C53629"/>
</svg>
