<svg width="1920" height="903" viewBox="0 0 1920 903" fill="none" xmlns="http://www.w3.org/2000/svg">
<path opacity="0.02" d="M-120.89 828.496C-16.451 840.338 223.472 796.292 347.651 525.372C502.876 186.721 816.322 22.7027 1190.32 73.0696C1564.31 123.437 1645.47 177.832 1869.02 68.0152C2047.86 -19.8383 2248.01 -61.5917 2325.73 -71.4867L2221.09 179.369C2118.16 179.409 1895.87 223.863 1830.1 401.36C1747.9 623.23 1438.56 87.19 934.977 213.062C431.399 338.935 479.976 846.416 120.617 934.33C-166.871 1004.66 -550.042 1198.46 -705.692 1286.57C-596.377 1268.29 -274.252 1202.3 139.737 1084.51C657.223 937.272 697.895 445.15 1044.79 436.614C1391.69 428.078 1401.05 781.406 1713.84 812.842C1964.08 837.991 2477.45 607.149 2702.86 488.584L2547.82 40.3831" stroke="white" stroke-width="30"/>
</svg>
