<svg width="621" height="277" viewBox="0 0 621 277" fill="none" xmlns="http://www.w3.org/2000/svg">
<g clip-path="url(#clip0_6024_11300)">
<g opacity="0.2">
<path d="M187.846 96.3719C187.509 95.7491 186.82 95.6466 186.138 95.6246C184.298 95.566 182.436 95.1557 180.589 95.0385C176.198 94.7161 171.793 94.5842 167.395 94.3864C163.033 94.1886 158.621 94.2399 154.274 94.4743C152.683 94.5476 151.093 94.5989 149.495 94.6795C147.787 92.6281 144.327 91.6097 141.805 91.1921C139.276 90.7599 136.462 90.8478 134.021 91.6683C134.71 89.5217 132.166 88.1517 130.055 87.6681C127.38 87.0674 123.106 87.5363 121.061 89.6682C120.929 88.9063 119.947 88.4887 119.111 88.2835C117.997 88.0125 116.802 88.1224 115.673 88.4154C115.468 85.8072 111.312 84.2467 109.032 83.7778C107.156 83.3968 105.257 83.3382 103.366 83.4628C104.363 82.5543 104.949 81.3528 104.509 79.8948C103.916 77.9094 101.988 76.6053 100.207 75.8213C97.927 74.803 95.7133 74.1143 93.2137 73.9531C91.0146 73.8066 88.647 73.411 86.4919 73.9897C84.5055 74.5172 81.9766 74.8982 80.3053 76.2096C79.499 76.8324 78.3555 77.3892 77.6811 78.1731C77.3806 78.5175 77.1753 78.8618 76.9847 79.2428C76.5523 79.001 76.0391 78.8618 75.4014 78.8471C73.6202 78.8325 71.8756 79.3966 70.3143 80.2318C69.508 80.6641 68.4085 81.6165 68.1006 82.503C68.0933 82.5177 68.0933 82.525 68.0933 82.525C67.6461 82.2539 67.155 82.0121 66.6419 81.7997C62.8155 80.2318 58.7767 81.1403 54.8477 81.6751C52.5973 81.9682 48.9908 83.8804 47.818 85.9025C47.2756 86.8256 46.8065 87.4996 46.8065 88.5546V88.6059C45.6557 88.0418 44.2483 87.9905 42.9508 88.4081C42.3424 88.6206 41.1696 89.4851 40.6418 90.3862C39.2931 89.7268 37.9443 89.4558 36.449 89.2579C33.3776 88.855 30.1597 88.8257 27.081 89.1334C24.3322 89.4118 21.4808 90.2837 19.0765 91.6317C17.933 92.2838 16.5256 93.1776 15.7999 94.3791C14.5611 94.1227 13.271 94.1007 11.9442 94.1007C8.68232 94.1007 5.44238 94.3718 2.20245 94.6868C-4.05751 95.3242 -10.2735 96.218 -16.4308 97.5295C-17.0246 97.654 -25.0217 99.6907 -22.6614 101.039C-22.075 101.368 -21.2393 101.368 -20.587 101.405C-19.1796 101.493 -17.7576 101.515 -16.3502 101.537C-13.1689 101.588 -9.98025 101.405 -6.79163 101.332C19.4283 100.753 45.6337 100.892 71.8536 100.68C72.7846 100.68 73.7155 100.665 74.6537 100.658C74.5878 100.731 74.5218 100.804 74.4485 100.878C72.7699 102.892 79.4477 103.662 80.0487 103.757C85.3411 104.555 90.7581 104.577 96.0872 104.607C107.28 104.643 118.437 105.281 129.615 104.878C134.915 104.68 140.215 104.284 145.507 103.881C150.506 103.486 155.491 102.717 160.167 100.848C160.343 100.775 160.673 100.416 160.453 100.233C159.867 99.72 159.156 99.3977 158.401 99.1999C161.773 99.0533 165.137 98.7969 168.502 98.5405C172.247 98.2474 176.015 98.0863 179.754 97.8665C182.099 97.7199 185.434 98.1595 187.56 96.98C187.729 96.914 187.956 96.5917 187.846 96.3719Z" fill="white"/>
<path d="M27.374 90.7818C30.9877 90.0565 36.0308 89.1847 39.1608 91.6757C39.2488 91.7343 39.2635 91.9101 39.2048 91.998C38.1713 93.4047 37.5702 94.9066 37.4016 96.5843C38.1786 95.185 39.0069 93.749 40.2017 92.694C41.6751 91.3973 43.4637 90.6573 45.3768 90.3056C47.8471 89.8294 50.7058 89.7268 53.1028 90.65C51.8786 89.507 50.3027 88.7378 48.6461 88.5253C48.4995 88.5033 48.3309 88.3788 48.3968 88.2103C49.5696 85.3017 52.6923 83.5873 55.5364 82.6789C59.3847 81.4407 63.3284 81.8217 67.0961 83.1477C67.2647 83.2063 67.3306 83.3822 67.2573 83.5287C66.3997 85.2797 65.6593 87.1479 65.4174 89.0748C66.6636 86.3494 68.8773 83.9097 71.1936 82.4297C75.2472 79.8069 80.0704 80.393 84.4172 81.9022C83.3104 80.2465 81.6464 79.5212 79.6233 79.2061C79.3814 79.1695 79.4034 78.8618 79.5646 78.7372C85.0256 74.6931 104.253 73.3743 101.335 84.5031C101.313 84.591 101.24 84.6643 101.152 84.6716C99.444 85.0306 98.022 86.005 96.7685 87.1626C97.8534 86.6717 98.8943 86.071 100.067 85.7999C101.775 85.4189 103.52 85.3457 105.25 85.5288C107.287 85.7486 109.178 86.3127 110.996 87.2725C113.349 88.5107 116.215 90.7159 115.871 93.2948C116.538 92.3863 116.904 91.28 116.904 90.1518C116.904 90.0199 117.029 89.8954 117.161 89.9027C119.067 89.9759 119.947 91.3387 120.24 92.9578C122.351 90.4888 125.789 88.2689 128.838 88.9576C130.546 89.3532 132.151 90.7525 132.107 92.6281C132.093 93.3168 131.367 93.7783 130.861 94.1227C129.937 94.7454 129.3 95.4854 128.787 96.3792C132.415 93.5805 137.209 92.3424 141.761 92.9211C144.598 93.2801 147.75 94.3058 149.568 96.5477C156.377 95.3096 163.4 95.3315 170.29 95.1997C174.593 95.1044 178.844 95.2143 183.132 95.4341C183.572 95.4561 184.012 95.4854 184.459 95.4927C183.169 95.3462 181.872 95.1337 180.582 95.0385C176.191 94.7161 171.785 94.5842 167.387 94.3864C163.026 94.1886 158.613 94.2399 154.266 94.4743C152.676 94.5476 151.085 94.5989 149.487 94.6795C147.779 92.6281 144.319 91.6097 141.798 91.1921C139.269 90.7599 136.454 90.8478 134.013 91.6683C134.702 89.5217 132.159 88.1517 130.047 87.6681C127.372 87.0674 123.098 87.5363 121.053 89.6682C120.921 88.9063 119.939 88.4887 119.104 88.2835C117.989 88.0125 116.795 88.1224 115.666 88.4154C115.46 85.8072 111.304 84.2467 109.025 83.7778C107.148 83.3968 105.25 83.3382 103.358 83.4628C104.355 82.5543 104.942 81.3528 104.502 79.8948C103.908 77.9094 101.98 76.6053 100.199 75.8213C97.9194 74.803 95.7056 74.1143 93.2061 73.9531C91.007 73.8066 88.6394 73.411 86.4843 73.9897C84.4978 74.5172 81.969 74.8982 80.2977 76.2096C79.4914 76.8324 78.3479 77.3892 77.6735 78.1731C77.373 78.5175 77.1677 78.8618 76.9771 79.2428C76.5446 79.001 76.0315 78.8618 75.3938 78.8471C73.6126 78.8325 71.868 79.3966 70.3067 80.2318C69.5003 80.6641 68.4009 81.6165 68.093 82.503C68.0857 82.5177 68.0857 82.525 68.0857 82.525C67.6385 82.2539 67.1474 82.0121 66.6342 81.7997C62.8079 80.2318 58.769 81.1403 54.84 81.6751C52.5897 81.9682 48.9832 83.8804 47.8104 85.9025C47.268 86.8256 46.7988 87.4996 46.7988 88.5546V88.6059C45.648 88.0418 44.2407 87.9905 42.9432 88.4081C42.3348 88.6206 41.162 89.4851 40.6342 90.3862C39.2855 89.7268 37.9367 89.4558 36.4414 89.2579C33.37 88.855 30.1521 88.8257 27.0734 89.1334C24.3246 89.4118 21.4732 90.2837 19.0689 91.6317C17.9254 92.2838 16.518 93.1776 15.7923 94.3791C14.5535 94.1227 13.2634 94.1007 11.9366 94.1007C8.67471 94.1007 5.43477 94.3718 2.19484 94.6868C2.18018 94.6868 2.17287 94.6868 2.15088 94.7015C6.54164 94.6502 10.947 94.9872 15.1179 96.0495C18.5118 93.119 22.9979 91.661 27.374 90.7818Z" fill="#FFD3DC"/>
<path d="M181.681 96.8845C177.444 97.0091 173.2 97.0164 168.971 97.2801C166.112 97.4487 163.239 97.793 160.373 97.6977C158.335 97.6245 156.136 97.4193 154.369 96.3204C154.45 96.716 154.479 97.1043 154.538 97.5586C154.56 97.7197 154.472 97.8882 154.288 97.8809C153.416 97.8443 152.595 97.6465 151.811 97.3388C152.023 97.5512 152.214 97.7564 152.419 97.9542C152.515 98.0494 152.522 98.2326 152.419 98.3205C149.692 100.65 145.602 101.471 142.106 101.09C141.857 101.068 141.732 100.746 141.974 100.614C142.846 100.108 143.645 99.5074 144.327 98.7894C142.047 99.9543 139.709 101.214 137.092 100.958C136.901 100.943 136.718 100.68 136.916 100.518C137.217 100.269 137.554 100.028 137.876 99.7711C135.223 101.134 131.975 101.661 129.205 101.976C126.727 102.247 124.227 102.335 121.728 102.489C118.928 102.687 115.878 102.943 113.225 101.83C113.034 101.742 113.078 101.471 113.225 101.39C113.929 100.951 114.662 100.57 115.314 100.079C113.262 100.665 111.304 101.5 109.12 101.354C108.812 101.332 108.783 100.951 109.047 100.841C110.725 100.181 112.309 99.3608 113.841 98.4231C108.343 100.057 102.237 101.207 96.8127 99.3169C97.2672 99.7198 97.6557 100.167 97.9196 100.702C97.9782 100.826 97.9636 100.98 97.8243 101.061C95.5446 102.225 92.8398 101.566 90.4062 101.464C87.2689 101.317 83.853 101.39 80.789 100.658C79.6308 100.379 78.3334 99.7638 78.7806 98.3644C79.0738 97.434 79.9314 96.6721 80.8257 96.0566C78.4214 96.8552 76.1563 98.1007 73.5688 98.2765C73.2976 98.2912 73.2463 97.9175 73.4368 97.8003C73.7814 97.5659 74.1406 97.3461 74.4997 97.1043C70.2043 98.2106 65.7109 98.3938 61.2981 98.5842C58.8279 98.6941 56.3869 98.9066 53.9239 99.1264C51.7176 99.3096 49.4966 99.4121 47.3269 98.9066C47.1363 98.87 47.0776 98.6136 47.2096 98.4744C47.8107 97.9102 48.463 97.3974 49.1227 96.9212C46.8137 97.6538 44.5927 98.5183 42.1151 98.7454C38.9118 99.0385 35.6646 99.1044 32.454 99.2876C29.2727 99.4707 26.0914 99.6026 22.9174 99.7052C20.7184 99.7784 18.3654 99.9982 16.269 99.163C16.0271 99.0678 16.0271 98.7674 16.269 98.6722C17.4638 98.1666 18.6952 97.727 19.8827 97.2215C12.7651 98.4963 5.55226 99.3828 -1.48469 97.2801C-0.304537 98.2839 1.19081 98.826 2.60553 99.4634C2.81077 99.5513 2.74483 99.881 2.54692 99.9323C-2.15904 101.039 -7.10691 100.365 -11.8935 100.592C-13.7554 100.687 -15.7199 100.811 -17.5744 100.46C-18.4467 100.291 -19.8174 99.9543 -20.1106 98.9506C-20.1399 98.8407 -20.1546 98.7454 -20.1546 98.6428C-22.163 99.3682 -23.9883 100.313 -22.6981 101.061C-22.1117 101.39 -21.2761 101.39 -20.6237 101.427C-19.2163 101.515 -17.7943 101.537 -16.3869 101.559C-13.2056 101.61 -10.017 101.427 -6.82835 101.354C19.3916 100.775 45.5969 100.914 71.8169 100.702C72.7478 100.702 73.6788 100.687 74.617 100.68C74.5511 100.753 74.4851 100.826 74.4118 100.899C72.7332 102.914 79.4109 103.683 80.012 103.779C85.3044 104.577 90.7213 104.599 96.0504 104.629C107.244 104.665 118.4 105.303 129.579 104.9C134.878 104.702 140.178 104.306 145.47 103.903C150.469 103.508 155.454 102.738 160.131 100.87C160.307 100.797 160.636 100.438 160.416 100.255C159.83 99.7418 159.119 99.4195 158.364 99.2216C161.736 99.0751 165.1 98.8187 168.465 98.5623C172.211 98.2692 175.978 98.108 179.717 97.8882C182.062 97.7417 185.398 98.1813 187.523 97.0017C187.582 96.9651 187.663 96.9065 187.729 96.8186C185.72 96.9212 183.66 96.8259 181.681 96.8845Z" fill="#FFD3DC"/>
<path d="M72.0001 85.3464C72.9237 84.7309 73.9059 84.2327 74.9248 83.8371C75.0934 83.7492 75.2693 83.6759 75.4526 83.6027C77.3584 82.7821 79.5648 82.0422 81.7565 81.8956C78.8684 81.1483 74.9248 81.8077 72.4839 83.0019C69.9037 84.2547 66.5831 87.0021 66.2166 90.0646C66.2019 90.1012 66.2019 90.1232 66.1946 90.1525C67.7926 88.2549 69.8303 86.6358 72.0001 85.3464Z" fill="white"/>
<path d="M59.5979 83.3373C59.5832 83.3226 59.5686 83.3153 59.5686 83.3153C57.5967 82.7732 55.5223 83.2274 53.6385 83.9674C52.1285 84.5681 49.9367 85.9821 49.6729 87.7185C51.6447 84.6707 56.226 83.8135 59.5979 83.3373Z" fill="white"/>
<path d="M44.3584 92.4809C46.1396 91.7703 47.8768 91.4259 49.6947 91.1402C48.0528 90.1731 45.7657 90.7958 44.0505 91.338C41.9394 91.9901 40.1655 93.3747 38.9634 95.1917C40.5687 93.9535 42.4892 93.2355 44.3584 92.4809Z" fill="white"/>
<path d="M26.2014 92.3712C28.5544 91.829 30.9807 91.5873 33.385 91.7484C30.8781 90.9059 28.1659 91.1697 25.6003 91.7484C24.5814 91.9829 19.1571 93.5874 18.6514 95.3091C20.9091 93.8438 23.6432 92.95 26.2014 92.3712Z" fill="white"/>
<path d="M114.493 93.3525C113.782 89.9677 110.41 88.1361 107.434 87.0811C103.3 85.6231 100.155 86.6269 96.4609 88.268C102.86 86.6342 110.813 87.7405 114.493 93.3525Z" fill="white"/>
<path d="M128.64 92.4374C128.75 92.3055 128.838 92.1443 128.926 91.9465C129.337 91.038 128.091 90.4153 127.38 90.386C126.324 90.3494 125.408 90.4593 124.601 91.2212C124.579 91.2359 124.557 91.2725 124.535 91.2945C126.067 91.1699 127.416 91.5802 128.64 92.4374Z" fill="white"/>
<path d="M131.338 96.2616C132.775 95.7854 134.255 95.4777 135.765 95.3531C138.155 95.1553 140.574 95.2212 142.949 95.5656C143.008 95.4703 143.03 95.3458 142.942 95.2945C139.453 93.2431 131.727 93.3457 129.33 97.2726C130.019 96.9576 130.642 96.5034 131.338 96.2616Z" fill="white"/>
<path d="M85.3333 43.1534C77.2482 40.4793 68.4153 39.6807 59.9783 38.8602C50.7277 37.9663 41.4037 37.7172 32.1164 37.7465C23.1296 37.7832 14.1429 38.1275 5.19273 38.8235C0.743329 39.1825 -3.69144 39.7173 -8.10419 40.3694C-8.37541 40.406 -8.6393 40.4427 -8.91051 40.4793C-9.45295 33.3287 -17.9266 32.6693 -23.8347 33.1822C-26.4369 33.4166 -30.7104 34.076 -33.5765 35.9296C-33.1587 34.1639 -33.1147 32.325 -33.5032 30.4568C-34.4048 26.0902 -38.9788 24.1121 -42.8784 23.3209C-44.623 22.9692 -46.3969 22.9252 -48.1635 23.1011C-47.1812 18.4635 -47.6284 13.6207 -50.2233 9.48862C-54.4895 2.69705 -63.7914 0.557745 -71.2169 0.0815288C-79.9911 -0.467951 -88.8385 2.84358 -95.1718 8.87321C-98.1405 11.6792 -100.164 15.1886 -101.27 19.1009C-101.307 19.2327 -101.336 19.3573 -101.366 19.4965C-104.21 18.6979 -107.333 18.5367 -110.081 18.9177C-113.241 19.3573 -116.561 21.2695 -118.929 23.885C-123.862 21.079 -130.921 20.3757 -135.825 21.4673C-139.966 22.3758 -144.35 24.9107 -146.564 28.6398C-147.223 29.7461 -147.854 31.1162 -148.271 32.5668C-150.72 31.1455 -153.447 30.0758 -156.034 29.1966C-164.273 26.3906 -173.172 26.3174 -181.69 27.409C-188.367 28.2808 -195.91 31.27 -201.137 35.5559C-202.427 36.611 -203.497 37.9004 -204.267 39.2997C-208.056 39.4243 -211.853 39.5928 -215.408 39.8053C-224.38 40.3181 -233.646 40.9482 -242.405 43.1168C-245.513 43.8934 -249.508 46.5382 -244.714 48.5237C-240.771 50.1648 -236.622 50.7289 -232.429 51C-233.023 51.0513 -233.624 51.0952 -234.218 51.1465C-243.483 51.9671 -252.675 53.7108 -261.581 56.3996C-266.016 57.7476 -270.429 59.2788 -274.665 61.169C-277.883 62.605 -281.849 64.3487 -283.777 67.4624C-286.247 71.4333 -278.565 72.525 -276.425 72.8473C-267.555 74.1441 -258.422 73.6825 -249.501 73.3016C-232.913 72.5909 -216.251 71.1549 -199.715 69.2281C-195.925 70.012 -192.003 70.2831 -188.133 70.6128C-179.754 71.3381 -171.361 71.2648 -162.968 71.6531C-145.244 72.4737 -127.571 73.9609 -109.817 73.0305C-92.2544 72.1 -74.706 71.3014 -57.1576 70.0486C-48.5227 69.4332 -39.9464 68.0119 -31.3701 66.8616C-30.8276 66.7884 -30.2852 66.7151 -29.7355 66.6272C-27.0453 67.0228 -24.2525 66.9862 -21.621 67.0082C-15.8009 67.0595 -9.94406 66.6272 -4.13858 66.2243C8.16876 65.3671 20.4321 63.8945 32.6808 62.4365C38.7355 61.7258 44.8196 61.0591 50.7863 59.7404C53.0367 59.2275 55.5216 58.7586 57.3395 57.2494C59.2966 55.6303 57.618 54.4068 54.9425 53.5423C61.5543 53.3005 68.1734 52.9415 74.7413 52.3407C78.7508 51.9744 82.7751 51.4542 86.7627 50.9048C88.5586 50.663 91.2708 50.304 92.7221 49.0292C96.1966 45.9301 86.6308 43.5857 85.3333 43.1534Z" fill="white"/>
<path d="M-257.27 56.6335C-250.065 54.4649 -242.742 52.7359 -235.243 51.9226C-232.091 51.5783 -228.925 51.3439 -225.758 51.1241C-229.35 50.3987 -232.971 49.82 -236.57 49.0873C-238.036 48.7796 -241.782 47.7979 -239.942 45.578C-238.674 44.0541 -236.533 43.5559 -234.679 43.1749C-232.04 42.6254 -229.423 42.032 -226.755 41.6217C-223.522 41.1162 -220.231 40.7279 -216.984 40.5521C-215.291 40.4642 -213.597 40.4055 -211.904 40.4788C-210.519 40.5301 -209.17 40.9477 -207.777 40.7572C-207.535 40.7206 -207.308 41.0283 -207.396 41.2481C-208.4 43.6878 -208.855 46.2374 -208.686 48.8016C-204.405 40.4202 -195.338 34.669 -186.696 31.6285C-174.124 27.1887 -159.479 26.9836 -147.648 33.5993C-147.399 33.7458 -147.377 34.1488 -147.648 34.288C-150.741 35.7459 -152.141 39.1307 -152.911 42.5815C-152.281 41.8195 -151.606 41.1235 -150.968 40.4935C-148.432 38.0538 -145.529 35.7826 -142.407 34.1415C-137.899 31.7531 -132.592 30.9545 -127.585 30.427C-123.869 30.024 -119.852 29.5039 -116.048 29.9581C-118.21 29.1742 -120.438 28.61 -122.696 28.0459C-123.019 27.9726 -123.084 27.4964 -122.791 27.3352C-119.969 25.804 -116.458 25.3132 -113.093 25.8114C-113.973 25.4524 -114.875 25.174 -115.637 24.9175C-115.974 24.793 -116.004 24.4047 -115.725 24.1922C-111.415 20.9393 -103.726 20.4265 -98.1619 22.9394C-98.2572 19.6279 -96.7546 15.95 -94.9733 13.6422C-90.8245 8.25731 -84.0661 5.36338 -77.4982 4.19848C-71.6195 3.15813 -64.9637 3.72959 -59.7226 6.82133C-57.2377 8.26463 -54.8188 10.3014 -53.5067 12.9315C-51.8501 16.2577 -51.7034 19.8403 -51.8061 23.4816C-51.8134 23.6501 -51.9234 23.8259 -52.0846 23.8625C-55.1853 24.5366 -58.2053 26.2143 -60.4703 28.5588C-56.1968 26.8883 -51.6448 25.9945 -47.0488 26.4707C-41.5658 27.0642 -36.0976 30.1632 -35.5771 36.1709C-35.5625 36.3394 -35.709 36.4859 -35.8629 36.5372C-38.6704 37.4823 -40.8035 39.5264 -42.4601 41.9074C-36.9845 37.812 -29.6177 35.7899 -22.9032 35.7606C-18.4832 35.746 -11.886 36.9621 -11.974 42.369C-5.76536 41.3726 0.479944 40.6986 6.74723 40.1491C15.5581 39.3652 24.3836 38.4201 33.2311 38.2443C42.0786 38.0611 50.9114 38.3395 59.7443 38.911C64.8827 39.2406 70.0065 40.0612 75.1376 40.6766C70.1018 39.8194 64.978 39.3286 59.9788 38.8377C50.7282 37.9439 41.4042 37.6948 32.1169 37.7241C23.1301 37.7607 14.1434 38.1051 5.19325 38.8011C0.743845 39.1601 -3.69092 39.6949 -8.10368 40.3469C-8.37489 40.3836 -8.63878 40.4202 -8.91 40.4568C-9.45243 33.3063 -17.9261 32.6469 -23.8342 33.1597C-26.4364 33.3942 -30.7099 34.0535 -33.576 35.9071C-33.1581 34.1415 -33.1141 32.3025 -33.5026 30.4343C-34.4043 26.0678 -38.9783 24.0897 -42.8779 23.2984C-44.6225 22.9467 -46.3964 22.9028 -48.163 23.0786C-47.1807 18.441 -47.6279 13.5982 -50.2228 9.46616C-54.4889 2.67459 -63.7909 0.535284 -71.2163 0.0590678C-79.9905 -0.490412 -88.838 2.82112 -95.1713 8.85075C-98.14 11.6568 -100.163 15.1661 -101.27 19.0784C-101.307 19.2103 -101.336 19.3348 -101.365 19.474C-104.209 18.6754 -107.332 18.5143 -110.081 18.8952C-113.24 19.3348 -116.561 21.247 -118.928 23.8625C-123.861 21.0565 -130.92 20.3532 -135.824 21.4448C-139.966 22.3533 -144.349 24.8882 -146.563 28.6174C-147.223 29.7236 -147.853 31.0937 -148.271 32.5443C-150.719 31.123 -153.446 30.0533 -156.034 29.1742C-164.273 26.3682 -173.171 26.2949 -181.689 27.3865C-188.367 28.2584 -195.91 31.2475 -201.136 35.5335C-202.426 36.5885 -203.496 37.8779 -204.266 39.2773C-208.056 39.4018 -211.853 39.5703 -215.408 39.7828C-224.38 40.2956 -233.645 40.9257 -242.405 43.0943C-245.513 43.8709 -249.508 46.5158 -244.714 48.5012C-240.77 50.1423 -236.621 50.7065 -232.428 50.9775C-233.022 51.0288 -233.623 51.0728 -234.217 51.1241C-243.482 51.9446 -252.674 53.6883 -261.58 56.3771C-266.015 57.7251 -270.428 59.2564 -274.665 61.1466C-277.883 62.5825 -281.848 64.3262 -283.776 67.4399C-283.871 67.5645 -283.937 67.6964 -283.996 67.8209C-282.171 65.7695 -278.792 64.524 -276.688 63.6375C-270.311 60.9781 -263.897 58.6336 -257.27 56.6335Z" fill="#FFD3DC"/>
<path d="M92.1728 45.8779C89.5047 49.8781 81.4342 49.7756 77.4246 49.8122C65.9162 49.9221 54.5325 52.1567 42.9948 52.2006C42.6576 52.2006 42.489 51.7684 42.7163 51.5266C44.043 50.2005 45.3771 48.7792 46.2714 47.1234C42.2691 50.3763 37.2627 52.8673 32.0876 53.8564C33.5463 54.0908 34.9977 54.3692 36.427 54.7649C36.7496 54.8528 36.8082 55.307 36.5149 55.4902C33.7441 57.1313 30.5042 57.6881 27.3449 58.0764C23.1594 58.5819 19.0619 59.3292 14.913 60.0032C8.16191 61.1168 1.42553 61.7323 -5.40618 61.8715C-10.0535 61.9667 -14.7888 61.996 -19.3922 61.2487C-22.141 60.7945 -26.3191 60.0618 -27.6386 57.2045C-29.713 59.0654 -32.022 61.0582 -34.9394 61.0436C-35.2252 61.0436 -35.4379 60.7139 -35.2693 60.4575C-34.8368 59.7468 -34.309 59.1241 -33.7959 58.4867C-39.0223 61.8568 -45.5974 63.7763 -51.7255 62.5968C-52.1433 62.5235 -52.048 61.974 -51.7255 61.8495C-49.8343 61.1242 -47.5399 59.8787 -45.876 58.2302C-62.1416 64.1573 -79.4261 66.978 -96.6667 68.0696C-105.851 68.6557 -115.146 69.0147 -124.353 68.6117C-133.2 68.2161 -141.974 66.8681 -150.162 63.3514C-150.441 63.2268 -150.382 62.8092 -150.162 62.6774C-148.337 61.5711 -145.757 60.7066 -143.536 59.4757C-154.362 61.0582 -165.248 62.3843 -176.199 62.5894C-181.191 62.6993 -186.314 62.8678 -191.292 62.5894C-194.715 62.4063 -198.138 61.7762 -200.872 59.7688C-200.073 61.2634 -198.981 62.5382 -197.449 63.4613C-197.134 63.6444 -197.251 64.2232 -197.654 64.1866C-209.918 63.2928 -222.372 67.249 -234.459 63.7836C-234.767 63.7104 -234.818 63.3514 -234.628 63.1316C-234.063 62.4209 -233.44 61.7835 -232.773 61.1681C-237.743 63.7543 -242.947 65.8277 -248.679 65.7691C-249.039 65.7544 -249.251 65.1903 -248.877 65.0365C-247.199 64.2892 -245.637 63.3807 -244.12 62.399C-248.166 63.725 -252.432 64.2379 -256.677 64.7141C-260.957 65.1903 -265.363 66.0255 -269.651 65.3881C-268.251 66.0402 -266.792 66.5677 -265.363 67.1904C-265.062 67.315 -265.15 67.7179 -265.363 67.8645C-268.222 69.9232 -272.84 70.48 -276.263 70.5166C-278.718 70.5386 -283.182 70.2236 -283.322 66.8607C-283.322 66.8388 -283.322 66.8095 -283.322 66.8095C-283.483 67.0073 -283.652 67.2417 -283.784 67.4688C-286.254 71.4397 -278.572 72.5314 -276.431 72.8537C-267.562 74.1505 -258.429 73.6889 -249.508 73.308C-232.92 72.5973 -216.258 71.1613 -199.721 69.2345C-195.932 70.0184 -192.01 70.2895 -188.14 70.6192C-179.761 71.3445 -171.368 71.2712 -162.975 71.6595C-145.251 72.4801 -127.578 73.9673 -109.824 73.0369C-92.2612 72.1064 -74.7129 71.3079 -57.1645 70.055C-48.5295 69.4396 -39.9532 68.0183 -31.3769 66.8681C-30.8345 66.7948 -30.2921 66.7215 -29.7423 66.6336C-27.0521 67.0292 -24.2594 66.9926 -21.6279 67.0146C-15.8077 67.0659 -9.9509 66.6336 -4.14541 66.2307C8.16192 65.3735 20.4253 63.9009 32.674 62.4429C38.7287 61.7323 44.8127 61.0656 50.7795 59.7468C53.0298 59.234 55.5147 58.7651 57.3326 57.2558C59.2898 55.6367 57.6111 54.4132 54.9356 53.5487C61.5474 53.3069 68.1666 52.9479 74.7344 52.3471C78.744 51.9808 82.7683 51.4606 86.7559 50.9112C88.5518 50.6694 91.2639 50.3104 92.7153 49.0356C94.0347 47.8414 93.4556 46.7718 92.1728 45.8779Z" fill="#FFD3DC"/>
<path d="M-18.1537 45.8929C-20.2428 46.6769 -22.2293 47.6366 -23.9958 48.7356C-24.1424 48.8235 -24.2891 49.014 -24.377 49.2411C-22.046 48.5158 -19.803 47.5634 -17.3547 47.1311C-14.2834 46.589 -11.1534 46.164 -8.0454 45.8563C-3.55935 45.4167 0.963339 45.2409 5.43473 45.6512C5.40541 45.5779 5.3688 45.5193 5.2735 45.49C-1.17703 42.6913 -9.19622 42.9844 -16.2112 45.2189C-17.5893 38.4347 -25.7844 37.5262 -31.6119 38.3394C-34.9764 38.8083 -41.3316 40.9183 -44.1024 44.3104C-44.5349 43.5705 -45.0994 42.8745 -45.7737 42.2151C-48.0681 39.9366 -51.3813 39.9586 -54.4526 40.2663C-49.2336 41.629 -44.7988 44.9259 -43.7799 50.384C-43.0469 48.7795 -42.9883 47.2703 -43.4208 45.849C-42.0207 44.9259 -40.1442 44.1712 -38.9787 43.6071C-36.1786 42.2591 -33.0926 41.7389 -30.0139 41.4971C-27.3824 41.292 -25.0807 41.966 -22.6177 42.7133C-20.558 43.3287 -19.4805 44.5889 -18.1537 45.8929Z" fill="white"/>
<path d="M51.2407 40.2371C45.4205 40.0759 39.6004 40.3836 33.8316 41.1163C30.9728 41.4826 28.136 42.0101 25.3506 42.75C33.7876 41.8269 42.0047 41.6731 50.5956 42.3691C59.2672 43.0578 68.0414 44.0761 76.581 45.7172C68.6645 42.054 60.0149 40.4789 51.2407 40.2371Z" fill="white"/>
<path d="M52.9196 107.559C52.5751 106.922 51.8787 106.834 51.2043 106.812C49.3644 106.739 47.5026 106.343 45.6554 106.211C41.2573 105.904 36.8592 105.772 32.4611 105.559C28.0997 105.361 23.6942 105.413 19.3401 105.647C17.7568 105.735 16.1588 105.772 14.5682 105.867C12.8529 103.816 9.4004 102.79 6.8715 102.372C4.34259 101.955 1.53517 102.028 -0.920429 102.863C-0.224064 100.717 -2.76031 99.3465 -4.87139 98.8629C-7.5469 98.2475 -11.8204 98.7164 -13.8728 100.848C-14.0047 100.086 -14.987 99.6688 -15.83 99.4784C-16.9369 99.2073 -18.117 99.3099 -19.2531 99.6029C-19.4657 97.002 -23.6146 95.4488 -25.8943 94.9799C-27.7782 94.5843 -29.6766 94.5257 -31.5678 94.6576C-30.5709 93.7491 -29.9772 92.5329 -30.417 91.0896C-31.0181 89.1042 -32.9386 87.7928 -34.7198 87.0088C-37.0068 86.0051 -39.2205 85.3018 -41.7201 85.1479C-43.9045 85.0014 -46.2868 84.6204 -48.4419 85.1846C-50.4357 85.7121 -52.9646 86.1077 -54.6285 87.4045C-55.4348 88.0419 -56.571 88.584 -57.2527 89.3679C-57.5459 89.7123 -57.7585 90.0639 -57.949 90.4376C-58.3815 90.2031 -58.8873 90.0713 -59.5324 90.0566C-61.3136 90.0346 -63.0655 90.5988 -64.6122 91.4413C-65.4185 91.8736 -66.5107 92.8187 -66.8332 93.7125L-66.8406 93.7345C-67.2877 93.4634 -67.7788 93.2216 -68.2846 93.0092C-72.1256 91.4413 -76.1645 92.3498 -80.0935 92.8773C-82.3438 93.185 -85.9503 95.0972 -87.1231 97.1119C-87.6655 98.0277 -88.1347 98.7164 -88.142 99.7641L-88.1347 99.8154C-89.2782 99.2659 -90.6929 99.2146 -91.9903 99.6322C-92.6061 99.8447 -93.7789 100.709 -94.292 101.596C-95.6554 100.944 -97.0042 100.68 -98.4995 100.482C-101.571 100.064 -104.781 100.05 -107.86 100.358C-110.609 100.636 -113.46 101.5 -115.872 102.849C-117.015 103.501 -118.423 104.409 -119.149 105.611C-120.387 105.339 -121.677 105.332 -123.004 105.332C-126.251 105.317 -129.499 105.589 -132.739 105.911C-138.999 106.548 -145.215 107.442 -151.372 108.754C-151.966 108.885 -159.956 110.915 -157.603 112.27C-157.023 112.6 -156.181 112.6 -155.528 112.637C-154.128 112.71 -152.706 112.746 -151.291 112.768C-148.11 112.82 -144.914 112.622 -141.718 112.549C-115.505 111.985 -89.3002 112.109 -63.0802 111.897C-62.1566 111.897 -61.211 111.882 -60.28 111.882C-60.3533 111.941 -60.4266 112.014 -60.4853 112.087C-62.1639 114.102 -55.4935 114.886 -54.8777 114.974C-49.5853 115.772 -44.1757 115.809 -38.8467 115.816C-27.6609 115.853 -16.497 116.49 -5.31851 116.087C-0.0188085 115.904 5.28089 115.509 10.5733 115.091C15.5798 114.695 20.5496 113.941 25.2336 112.072C25.4168 111.999 25.7393 111.633 25.5194 111.45C24.933 110.937 24.222 110.629 23.467 110.417C26.8388 110.27 30.2034 110.014 33.568 109.757C37.3137 109.464 41.0667 109.303 44.8197 109.083C47.1654 108.951 50.5006 109.376 52.6264 108.211C52.8023 108.094 53.0295 107.779 52.9196 107.559Z" fill="white"/>
<path d="M-107.552 101.955C-103.938 101.229 -98.9023 100.358 -95.7576 102.863C-95.677 102.922 -95.6623 103.083 -95.7283 103.171C-96.7618 104.585 -97.3629 106.087 -97.5169 107.757C-96.7472 106.358 -95.9189 104.937 -94.7094 103.882C-93.2507 102.577 -91.4475 101.845 -89.5417 101.478C-87.0787 101.002 -84.2273 100.9 -81.823 101.823C-83.0471 100.68 -84.6231 99.9253 -86.2724 99.6982C-86.4264 99.6835 -86.5949 99.5516 -86.5216 99.3831C-85.3561 96.4745 -82.2335 94.7602 -79.3894 93.8517C-75.5411 92.6282 -71.6047 92.9945 -67.8151 94.3279C-67.6538 94.3865 -67.5952 94.5477 -67.6685 94.7089C-68.5261 96.4599 -69.2665 98.3281 -69.501 100.255C-68.2549 97.5295 -66.0485 95.0825 -63.7248 93.5953C-59.6713 90.9797 -54.848 91.5732 -50.5012 93.0678C-51.6008 91.412 -53.272 90.7013 -55.2878 90.379C-55.537 90.3277 -55.5004 90.02 -55.3538 89.9101C-49.8782 85.8513 -30.6658 84.5398 -33.5832 95.6613C-33.6052 95.7492 -33.6785 95.8225 -33.7665 95.8445C-35.4671 96.1888 -36.8891 97.1706 -38.1499 98.3208C-37.0651 97.8446 -36.0169 97.2438 -34.8514 96.9727C-33.1435 96.5771 -31.4062 96.5038 -29.669 96.7017C-27.6312 96.9214 -25.7473 97.4856 -23.9294 98.4307C-21.5691 99.6835 -18.7103 101.874 -19.0549 104.453C-18.3951 103.559 -18.014 102.438 -18.014 101.325C-18.014 101.193 -17.8894 101.054 -17.7575 101.068C-15.8516 101.141 -14.972 102.504 -14.6787 104.138C-12.5677 101.669 -9.12985 99.4417 -6.07317 100.138C-4.36525 100.519 -2.7746 101.925 -2.81126 103.794C-2.82592 104.49 -3.54426 104.959 -4.05004 105.303C-4.96631 105.926 -5.61134 106.666 -6.13178 107.545C-2.50335 104.746 2.29054 103.523 6.84257 104.101C9.67201 104.46 12.8313 105.486 14.6492 107.728C21.4589 106.49 28.4739 106.512 35.3642 106.38C39.667 106.285 43.9258 106.38 48.2066 106.614C48.6391 106.636 49.0863 106.651 49.5261 106.68C48.236 106.519 46.9458 106.314 45.6631 106.211C41.265 105.904 36.8669 105.772 32.4688 105.559C28.1074 105.361 23.7019 105.413 19.3478 105.647C17.7645 105.735 16.1665 105.772 14.5759 105.867C12.8606 103.816 9.40811 102.79 6.8792 102.372C4.3503 101.955 1.54288 102.028 -0.912725 102.863C-0.21636 100.717 -2.75261 99.3465 -4.86369 98.8629C-7.5392 98.2475 -11.8127 98.7164 -13.8651 100.848C-13.997 100.086 -14.9793 99.6688 -15.8223 99.4784C-16.9291 99.2073 -18.1093 99.3099 -19.2454 99.6029C-19.458 97.002 -23.6069 95.4488 -25.8866 94.9799C-27.7704 94.5843 -29.6689 94.5257 -31.5601 94.6576C-30.5632 93.7491 -29.9695 92.5329 -30.4093 91.0896C-31.0104 89.1042 -32.9309 87.7928 -34.7121 87.0088C-36.9991 86.0051 -39.2128 85.3018 -41.7124 85.1479C-43.8968 85.0014 -46.2791 84.6204 -48.4341 85.1846C-50.4279 85.7121 -52.9569 86.1077 -54.6208 87.4045C-55.4271 88.0419 -56.5633 88.584 -57.245 89.3679C-57.5382 89.7123 -57.7508 90.0639 -57.9413 90.4376C-58.3738 90.2031 -58.8796 90.0713 -59.5247 90.0566C-61.3059 90.0346 -63.0578 90.5988 -64.6045 91.4413C-65.4108 91.8736 -66.503 92.8187 -66.8255 93.7125L-66.8329 93.7345C-67.28 93.4634 -67.7711 93.2216 -68.2769 93.0092C-72.1179 91.4413 -76.1568 92.3498 -80.0858 92.8773C-82.3361 93.185 -85.9426 95.0972 -87.1154 97.1119C-87.6578 98.0277 -88.1269 98.7164 -88.1343 99.7641L-88.127 99.8154C-89.2705 99.2659 -90.6852 99.2146 -91.9826 99.6322C-92.5984 99.8447 -93.7711 100.709 -94.2843 101.596C-95.6477 100.944 -96.9965 100.68 -98.4918 100.482C-101.563 100.064 -104.774 100.05 -107.852 100.358C-110.601 100.636 -113.453 101.5 -115.864 102.849C-117.008 103.501 -118.415 104.409 -119.141 105.611C-120.38 105.339 -121.67 105.332 -122.996 105.332C-126.244 105.317 -129.491 105.589 -132.731 105.911C-132.746 105.911 -132.753 105.911 -132.768 105.933C-128.384 105.882 -123.979 106.211 -119.801 107.266C-116.407 104.306 -111.928 102.834 -107.552 101.955Z" fill="#FFD3DC"/>
<path d="M46.7553 108.072C42.5332 108.197 38.2743 108.197 34.0522 108.453C31.1934 108.622 28.32 108.98 25.4466 108.871C23.4088 108.797 21.2171 108.592 19.4432 107.508C19.5238 107.904 19.5605 108.284 19.6191 108.731C19.6338 108.893 19.5605 109.061 19.3772 109.061C18.5049 109.024 17.684 108.827 16.8996 108.519C17.0975 108.717 17.2955 108.922 17.5007 109.134C17.5887 109.237 17.6033 109.405 17.5007 109.501C14.7739 111.823 10.691 112.644 7.17981 112.263C6.94524 112.241 6.81331 111.918 7.05521 111.787C7.92016 111.281 8.72648 110.695 9.40085 109.97C7.12851 111.134 4.78286 112.402 2.17332 112.138C1.97541 112.116 1.79947 111.852 1.99738 111.699C2.29059 111.45 2.62048 111.193 2.95766 110.951C0.296816 112.314 -2.9431 112.827 -5.72123 113.149C-8.19882 113.435 -10.6984 113.516 -13.198 113.677C-15.9981 113.86 -19.0401 114.116 -21.701 113.003C-21.8916 112.929 -21.8476 112.644 -21.701 112.563C-20.9899 112.131 -20.2643 111.743 -19.6046 111.266C-21.657 111.845 -23.6215 112.673 -25.8059 112.526C-26.0991 112.504 -26.1357 112.124 -25.8718 112.021C-24.1932 111.362 -22.6099 110.534 -21.0852 109.596C-26.5829 111.23 -32.6743 112.38 -38.1132 110.504C-37.6588 110.893 -37.2703 111.347 -37.0064 111.889C-36.9477 111.999 -36.9624 112.175 -37.1017 112.233C-39.374 113.398 -42.0862 112.746 -44.5271 112.636C-47.6571 112.504 -51.0803 112.578 -54.1443 111.83C-55.2951 111.552 -56.6072 110.937 -56.1601 109.545C-55.8595 108.6 -55.0093 107.838 -54.1003 107.229C-56.5119 108.043 -58.7696 109.281 -61.3572 109.449C-61.6357 109.471 -61.687 109.105 -61.4891 108.973C-61.1446 108.753 -60.7927 108.519 -60.4336 108.277C-64.729 109.391 -69.2077 109.567 -73.6278 109.772C-76.0981 109.867 -78.539 110.087 -81.0093 110.299C-83.223 110.497 -85.4294 110.585 -87.5991 110.094C-87.7897 110.043 -87.8557 109.786 -87.7164 109.655C-87.1227 109.09 -86.4703 108.585 -85.7959 108.109C-88.1122 108.834 -90.3333 109.691 -92.8035 109.926C-96.0215 110.219 -99.2614 110.285 -102.487 110.475C-105.668 110.658 -108.835 110.783 -112.023 110.893C-114.215 110.966 -116.575 111.178 -118.672 110.343C-118.914 110.255 -118.914 109.948 -118.672 109.852C-117.477 109.347 -116.245 108.922 -115.051 108.416C-122.175 109.691 -129.388 110.563 -136.418 108.468C-135.238 109.471 -133.742 110.014 -132.328 110.651C-132.122 110.753 -132.181 111.069 -132.386 111.12C-137.085 112.226 -142.033 111.552 -146.827 111.794C-148.696 111.889 -150.653 112.006 -152.508 111.647C-153.38 111.486 -154.743 111.142 -155.037 110.138C-155.073 110.043 -155.081 109.94 -155.088 109.83C-157.089 110.563 -158.914 111.508 -157.624 112.255C-157.045 112.585 -156.202 112.585 -155.55 112.622C-154.15 112.695 -152.728 112.732 -151.313 112.754C-148.132 112.805 -144.936 112.607 -141.74 112.534C-115.527 111.97 -89.3217 112.094 -63.1017 111.882C-62.1781 111.882 -61.2326 111.867 -60.3016 111.867C-60.3749 111.926 -60.4482 111.999 -60.5069 112.072C-62.1855 114.087 -55.515 114.871 -54.8993 114.959C-49.6069 115.757 -44.1972 115.794 -38.8682 115.801C-27.6824 115.838 -16.5186 116.475 -5.3401 116.072C-0.0403994 115.889 5.2593 115.494 10.5517 115.076C15.5582 114.68 20.528 113.926 25.212 112.058C25.3952 111.984 25.7178 111.618 25.4979 111.435C24.9115 110.922 24.2004 110.614 23.4454 110.402C26.8173 110.255 30.1818 109.999 33.5464 109.742C37.2921 109.449 41.0452 109.288 44.7982 109.068C47.1438 108.937 50.4791 109.361 52.6048 108.197C52.6781 108.16 52.7441 108.087 52.8101 107.999C50.7943 108.094 48.7418 107.999 46.7553 108.072Z" fill="#FFD3DC"/>
<path d="M-3.58112 107.449C-2.14441 106.958 -0.663746 106.665 0.846266 106.541C3.2359 106.336 5.64755 106.409 8.02252 106.753C8.08849 106.643 8.11782 106.519 8.01519 106.475C4.53337 104.423 -3.2073 104.526 -5.5896 108.446C-4.90789 108.13 -4.28482 107.684 -3.58112 107.449Z" fill="white"/>
<path d="M581.769 115.098C581.461 114.512 580.823 114.424 580.207 114.402C578.514 114.344 576.806 113.985 575.128 113.86C571.089 113.567 567.064 113.457 563.04 113.259C559.038 113.076 555.006 113.135 551.026 113.347C549.567 113.421 548.109 113.457 546.643 113.545C545.074 111.67 541.915 110.739 539.598 110.344C537.289 109.963 534.716 110.036 532.466 110.783C533.089 108.82 530.773 107.559 528.838 107.127C526.397 106.578 522.482 106.995 520.606 108.944C520.481 108.255 519.587 107.875 518.825 107.691C517.806 107.435 516.713 107.53 515.673 107.801C515.489 105.42 511.685 103.984 509.596 103.559C507.881 103.215 506.136 103.156 504.392 103.281C505.308 102.446 505.85 101.347 505.447 100.021C504.905 98.189 503.138 96.9875 501.518 96.2695C499.422 95.3464 497.391 94.7236 495.097 94.5625C493.088 94.4306 490.911 94.0716 488.947 94.5991C487.114 95.0753 484.813 95.4489 483.273 96.6358C482.54 97.2146 481.485 97.7128 480.869 98.4235C480.598 98.7458 480.4 99.0755 480.224 99.4052C479.835 99.1854 479.366 99.0609 478.78 99.0462C477.153 99.0316 475.555 99.5517 474.133 100.321C473.392 100.717 472.388 101.581 472.102 102.409L472.095 102.424C471.692 102.182 471.237 101.955 470.775 101.764C467.257 100.328 463.555 101.164 459.956 101.64C457.904 101.918 454.598 103.677 453.528 105.515C453.029 106.358 452.597 106.988 452.597 107.955V107.977C451.548 107.472 450.251 107.435 449.078 107.816C448.506 107.999 447.436 108.798 446.96 109.604C445.714 109.017 444.482 108.768 443.111 108.585C440.304 108.219 437.357 108.19 434.535 108.475C432.013 108.732 429.404 109.516 427.198 110.754C426.149 111.355 424.867 112.175 424.2 113.281C423.056 113.04 421.876 113.025 420.666 113.025C417.69 113.01 414.714 113.259 411.753 113.567C406.014 114.146 400.325 114.952 394.681 116.153C394.139 116.278 386.823 118.139 388.978 119.377C389.506 119.685 390.283 119.685 390.869 119.721C392.16 119.78 393.457 119.817 394.747 119.831C397.672 119.882 400.582 119.707 403.507 119.648C427.513 119.121 451.526 119.23 475.525 119.047C476.383 119.047 477.241 119.033 478.091 119.033C478.025 119.091 477.959 119.157 477.908 119.23C476.361 121.069 482.482 121.78 483.046 121.868C487.884 122.593 492.847 122.63 497.721 122.637C507.961 122.674 518.187 123.253 528.427 122.886C533.287 122.718 538.132 122.359 542.977 121.978C547.551 121.619 552.111 120.908 556.399 119.208C556.56 119.15 556.868 118.813 556.656 118.644C556.128 118.168 555.468 117.882 554.779 117.699C557.872 117.56 560.951 117.333 564.022 117.098C567.46 116.827 570.898 116.681 574.329 116.476C576.476 116.351 579.533 116.747 581.483 115.677C581.651 115.582 581.879 115.289 581.769 115.098Z" fill="white"/>
<path d="M434.814 109.962C438.127 109.302 442.73 108.504 445.604 110.782C445.677 110.841 445.699 110.987 445.64 111.061C444.695 112.357 444.145 113.735 443.998 115.281C444.702 113.991 445.464 112.68 446.564 111.713C447.905 110.533 449.555 109.852 451.299 109.515C453.557 109.082 456.174 108.987 458.365 109.83C457.251 108.789 455.815 108.086 454.29 107.896C454.158 107.874 454.004 107.749 454.063 107.588C455.133 104.936 457.999 103.368 460.601 102.533C464.127 101.39 467.741 101.749 471.193 102.965C471.347 103.023 471.406 103.17 471.332 103.309C470.548 104.914 469.874 106.635 469.654 108.386C470.797 105.895 472.821 103.668 474.939 102.305C478.655 99.9024 483.075 100.445 487.048 101.829C486.044 100.305 484.505 99.646 482.658 99.3529C482.438 99.3163 482.467 99.0306 482.606 98.9207C487.606 95.2135 505.22 94.012 502.537 104.196C502.522 104.269 502.449 104.342 502.376 104.357C500.814 104.687 499.502 105.58 498.359 106.635C499.363 106.196 500.316 105.639 501.386 105.397C502.948 105.053 504.538 104.965 506.136 105.155C508.005 105.353 509.721 105.866 511.392 106.753C513.554 107.881 516.178 109.903 515.856 112.262C516.472 111.441 516.809 110.423 516.809 109.39C516.809 109.266 516.919 109.148 517.043 109.156C518.788 109.229 519.594 110.467 519.865 111.962C521.793 109.705 524.945 107.654 527.745 108.298C529.314 108.657 530.765 109.94 530.729 111.647C530.729 112.284 530.054 112.716 529.6 113.031C528.75 113.595 528.163 114.269 527.694 115.083C531.022 112.533 535.398 111.405 539.576 111.932C542.178 112.262 545.059 113.193 546.716 115.259C552.961 114.13 559.382 114.152 565.701 114.02C569.63 113.932 573.53 114.035 577.458 114.24C577.862 114.262 578.257 114.277 578.675 114.291C577.488 114.16 576.308 113.962 575.128 113.874C571.089 113.581 567.064 113.471 563.04 113.273C559.038 113.09 555.006 113.149 551.026 113.361C549.567 113.434 548.109 113.471 546.643 113.559C545.074 111.683 541.915 110.753 539.598 110.357C537.289 109.976 534.716 110.049 532.466 110.797C533.089 108.833 530.773 107.573 528.838 107.141C526.397 106.591 522.482 107.009 520.606 108.958C520.481 108.269 519.587 107.888 518.825 107.705C517.806 107.449 516.713 107.544 515.673 107.815C515.489 105.434 511.685 103.998 509.596 103.573C507.881 103.229 506.136 103.17 504.392 103.295C505.308 102.459 505.85 101.36 505.447 100.034C504.905 98.2027 503.138 97.0012 501.518 96.2832C499.422 95.3601 497.391 94.7373 495.097 94.5761C493.088 94.4443 490.911 94.0853 488.947 94.6128C487.114 95.089 484.813 95.4626 483.273 96.6495C482.54 97.2283 481.485 97.7265 480.869 98.4371C480.598 98.7595 480.4 99.0892 480.224 99.4189C479.835 99.1991 479.366 99.0745 478.78 99.0599C477.153 99.0452 475.555 99.5654 474.133 100.335C473.392 100.73 472.388 101.595 472.102 102.423L472.095 102.437C471.692 102.196 471.237 101.968 470.775 101.778C467.257 100.342 463.555 101.177 459.956 101.653C457.904 101.932 454.598 103.69 453.528 105.529C453.029 106.372 452.597 107.002 452.597 107.969V107.991C451.548 107.485 450.251 107.449 449.078 107.83C448.506 108.013 447.436 108.811 446.96 109.617C445.714 109.031 444.482 108.782 443.111 108.599C440.304 108.233 437.357 108.203 434.535 108.489C432.014 108.745 429.404 109.529 427.198 110.767C426.149 111.368 424.867 112.189 424.2 113.295C423.056 113.053 421.876 113.039 420.666 113.039C417.69 113.024 414.714 113.273 411.753 113.581C411.738 113.581 411.724 113.581 411.709 113.581C415.726 113.544 419.758 113.837 423.584 114.819C426.707 112.108 430.804 110.767 434.814 109.962Z" fill="#FFD3DC"/>
<path d="M576.117 115.552C572.254 115.677 568.347 115.677 564.484 115.911C561.86 116.072 559.229 116.402 556.604 116.299C554.735 116.226 552.727 116.028 551.107 115.039C551.18 115.405 551.217 115.764 551.268 116.182C551.29 116.314 551.217 116.49 551.048 116.475C550.249 116.438 549.501 116.255 548.79 115.984C548.959 116.167 549.142 116.351 549.333 116.548C549.421 116.636 549.428 116.79 549.333 116.863C546.826 118.995 543.095 119.757 539.884 119.406C539.664 119.384 539.554 119.098 539.76 118.973C540.566 118.505 541.292 117.955 541.922 117.296C539.848 118.373 537.7 119.53 535.295 119.296C535.127 119.274 534.966 119.039 535.134 118.893C535.42 118.658 535.713 118.439 536.021 118.204C533.595 119.457 530.612 119.933 528.083 120.212C525.81 120.468 523.516 120.541 521.236 120.702C518.671 120.864 515.885 121.105 513.444 120.08C513.276 120.006 513.312 119.765 513.444 119.677C514.097 119.288 514.756 118.929 515.357 118.49C513.488 119.032 511.685 119.779 509.691 119.64C509.405 119.625 509.383 119.281 509.633 119.186C511.165 118.57 512.616 117.809 514.016 116.966C508.988 118.461 503.387 119.508 498.425 117.787C498.835 118.153 499.194 118.556 499.436 119.047C499.495 119.157 499.473 119.318 499.348 119.376C497.259 120.431 494.782 119.831 492.553 119.743C489.673 119.611 486.55 119.684 483.743 118.995C482.694 118.739 481.499 118.175 481.903 116.9C482.181 116.058 482.951 115.354 483.779 114.79C481.58 115.523 479.506 116.666 477.131 116.812C476.889 116.834 476.838 116.504 477.006 116.38C477.329 116.175 477.658 115.948 477.981 115.742C474.045 116.746 469.94 116.922 465.894 117.105C463.629 117.2 461.386 117.398 459.135 117.596C457.119 117.765 455.089 117.852 453.095 117.398C452.927 117.347 452.868 117.113 452.993 117.003C453.542 116.475 454.143 116.021 454.752 115.581C452.626 116.241 450.596 117.032 448.331 117.237C445.391 117.515 442.43 117.567 439.476 117.743C436.558 117.918 433.656 118.028 430.745 118.138C428.737 118.197 426.567 118.395 424.662 117.633C424.434 117.53 424.442 117.266 424.662 117.178C425.754 116.724 426.868 116.321 427.975 115.852C421.458 117.032 414.846 117.83 408.403 115.911C409.488 116.819 410.859 117.318 412.156 117.896C412.339 117.984 412.288 118.292 412.098 118.329C407.795 119.347 403.265 118.724 398.881 118.944C397.166 119.039 395.37 119.142 393.67 118.82C392.878 118.658 391.617 118.351 391.361 117.435C391.324 117.34 391.317 117.252 391.309 117.156C389.477 117.816 387.798 118.702 388.993 119.376C389.521 119.684 390.298 119.684 390.884 119.721C392.174 119.779 393.472 119.816 394.762 119.831C397.686 119.882 400.597 119.706 403.521 119.647C427.528 119.12 451.541 119.23 475.54 119.047C476.398 119.047 477.255 119.032 478.106 119.032C478.04 119.091 477.974 119.157 477.922 119.23C476.376 121.069 482.496 121.779 483.061 121.867C487.899 122.593 492.861 122.629 497.736 122.637C507.976 122.673 518.202 123.252 528.442 122.886C533.302 122.717 538.147 122.358 542.992 121.977C547.566 121.618 552.126 120.908 556.414 119.208C556.575 119.149 556.883 118.812 556.67 118.644C556.142 118.168 555.483 117.882 554.794 117.699C557.887 117.559 560.966 117.332 564.037 117.098C567.475 116.827 570.913 116.68 574.343 116.475C576.491 116.351 579.548 116.746 581.498 115.677C581.556 115.64 581.629 115.581 581.681 115.508C579.826 115.589 577.935 115.508 576.117 115.552Z" fill="#FFD3DC"/>
<path d="M475.687 104.996C476.537 104.432 477.424 103.963 478.362 103.611C478.524 103.538 478.685 103.465 478.846 103.391C480.591 102.644 482.614 101.97 484.615 101.831C481.969 101.142 478.37 101.757 476.127 102.834C473.766 103.985 470.724 106.512 470.395 109.326C470.38 109.348 470.38 109.362 470.373 109.384C471.831 107.648 473.693 106.175 475.687 104.996Z" fill="white"/>
<path d="M464.325 103.142C464.325 103.142 464.31 103.127 464.296 103.12C462.492 102.644 460.587 103.046 458.871 103.721C457.486 104.27 455.492 105.559 455.235 107.157C457.039 104.38 461.239 103.589 464.325 103.142Z" fill="white"/>
<path d="M450.368 111.53C451.996 110.878 453.601 110.549 455.257 110.307C453.747 109.413 451.651 109.999 450.09 110.475C448.155 111.061 446.527 112.344 445.428 114.007C446.908 112.871 448.66 112.219 450.368 111.53Z" fill="white"/>
<path d="M433.736 111.435C435.906 110.944 438.12 110.709 440.319 110.848C438.01 110.079 435.532 110.321 433.187 110.863C432.248 111.068 427.286 112.541 426.817 114.116C428.899 112.783 431.398 111.962 433.736 111.435Z" fill="white"/>
<path d="M514.595 112.314C513.957 109.223 510.849 107.545 508.145 106.585C504.355 105.252 501.482 106.168 498.095 107.662C503.944 106.175 511.216 107.193 514.595 112.314Z" fill="white"/>
<path d="M527.547 111.487C527.643 111.362 527.716 111.216 527.804 111.047C528.185 110.212 527.042 109.633 526.396 109.611C525.429 109.589 524.593 109.684 523.846 110.38C523.831 110.395 523.809 110.402 523.794 110.439C525.18 110.315 526.418 110.688 527.547 111.487Z" fill="white"/>
<path d="M530.033 114.988C531.345 114.548 532.708 114.263 534.086 114.153C536.285 113.97 538.492 114.028 540.661 114.351C540.72 114.255 540.749 114.146 540.661 114.094C537.473 112.219 530.377 112.314 528.207 115.911C528.816 115.625 529.38 115.208 530.033 114.988Z" fill="white"/>
<path d="M621.109 251.318C620.669 250.497 619.775 250.373 618.903 250.351C616.506 250.263 614.087 249.75 611.683 249.567C605.98 249.164 600.255 248.988 594.552 248.731C588.886 248.475 583.168 248.534 577.509 248.827C575.457 248.951 573.382 248.995 571.315 249.112C569.08 246.46 564.594 245.141 561.324 244.577C558.048 244.035 554.375 244.145 551.201 245.215C552.096 242.431 548.812 240.65 546.063 240.013C542.596 239.229 537.054 239.83 534.379 242.599C534.21 241.632 532.935 241.075 531.85 240.812C530.413 240.467 528.859 240.606 527.4 240.98C527.122 237.595 521.727 235.573 518.758 234.972C516.332 234.467 513.869 234.394 511.399 234.569C512.696 233.383 513.451 231.807 512.887 229.925C512.117 227.346 509.617 225.646 507.301 224.635C504.332 223.309 501.474 222.415 498.212 222.21C495.368 222.012 492.282 221.514 489.489 222.261C486.909 222.95 483.625 223.448 481.455 225.14C480.414 225.961 478.926 226.672 478.046 227.675C477.665 228.13 477.394 228.598 477.138 229.075C476.588 228.752 475.921 228.584 475.092 228.562C472.776 228.547 470.511 229.287 468.481 230.379C467.44 230.928 466.01 232.166 465.607 233.331C465.593 233.331 465.593 233.346 465.593 233.346C465.014 233.002 464.376 232.687 463.716 232.416C458.739 230.379 453.491 231.558 448.389 232.24C445.471 232.635 440.787 235.119 439.255 237.734C438.559 238.936 437.943 239.823 437.943 241.178V241.237C436.455 240.511 434.615 240.453 432.944 240.987C432.145 241.258 430.62 242.387 429.946 243.552C428.194 242.694 426.435 242.35 424.5 242.094C420.505 241.552 416.312 241.544 412.324 241.933C408.747 242.292 405.053 243.42 401.923 245.185C400.435 246.021 398.61 247.186 397.671 248.753C396.059 248.409 394.38 248.387 392.65 248.372C388.428 248.372 384.213 248.717 380.013 249.149C371.884 249.97 363.799 251.134 355.801 252.827C355.032 252.995 344.638 255.633 347.709 257.391C348.464 257.823 349.556 257.831 350.399 257.882C352.224 257.977 354.072 258.014 355.897 258.051C360.038 258.109 364.18 257.867 368.321 257.78C402.363 257.018 436.404 257.193 470.467 256.93C471.669 256.915 472.886 256.908 474.096 256.893C474 256.996 473.912 257.091 473.824 257.186C471.64 259.787 480.319 260.791 481.103 260.93C487.972 261.963 495.008 262 501.935 262.021C516.457 262.073 530.948 262.893 545.477 262.38C552.36 262.139 559.243 261.619 566.104 261.084C572.605 260.578 579.078 259.589 585.147 257.157C585.382 257.069 585.807 256.593 585.529 256.358C584.766 255.684 583.843 255.289 582.86 255.01C587.236 254.827 591.605 254.483 595.974 254.153C600.834 253.787 605.716 253.567 610.59 253.274C613.625 253.105 617.964 253.669 620.728 252.146C620.963 251.999 621.263 251.596 621.109 251.318Z" fill="white"/>
<path d="M412.72 244.042C417.397 243.096 423.95 241.968 428.026 245.206C428.121 245.28 428.15 245.5 428.077 245.609C426.735 247.448 425.951 249.397 425.738 251.573C426.735 249.756 427.828 247.903 429.374 246.533C431.28 244.855 433.618 243.88 436.096 243.419C439.292 242.796 443.008 242.671 446.124 243.858C444.526 242.371 442.488 241.397 440.333 241.096C440.164 241.074 439.93 240.899 440.01 240.693C441.542 236.913 445.603 234.708 449.29 233.521C454.297 231.902 459.406 232.393 464.31 234.136C464.522 234.195 464.618 234.415 464.515 234.612C463.386 236.891 462.441 239.309 462.125 241.829C463.738 238.283 466.619 235.118 469.617 233.184C474.887 229.784 481.154 230.561 486.799 232.51C485.362 230.348 483.2 229.418 480.575 229C480.26 228.949 480.29 228.546 480.502 228.4C487.583 223.139 512.557 221.425 508.76 235.88C508.731 235.99 508.635 236.078 508.525 236.114C506.312 236.554 504.457 237.829 502.822 239.331C504.237 238.708 505.586 237.931 507.125 237.587C509.324 237.081 511.597 236.964 513.847 237.221C516.486 237.514 518.942 238.239 521.294 239.492C524.366 241.089 528.075 243.954 527.635 247.302C528.493 246.122 528.976 244.679 528.976 243.228C528.976 243.045 529.13 242.884 529.321 242.913C531.784 243.001 532.935 244.767 533.316 246.884C536.057 243.668 540.521 240.789 544.48 241.682C546.701 242.173 548.782 244.012 548.724 246.43C548.709 247.338 547.756 247.954 547.104 248.379C545.916 249.199 545.073 250.159 544.414 251.302C549.12 247.683 555.35 246.086 561.251 246.84C564.931 247.294 569.028 248.628 571.389 251.551C580.244 249.947 589.355 249.983 598.305 249.785C603.883 249.676 609.418 249.807 614.989 250.108C615.546 250.13 616.117 250.166 616.704 250.181C615.025 249.983 613.339 249.705 611.668 249.58C605.965 249.177 600.24 249.002 594.537 248.745C588.871 248.489 583.154 248.547 577.495 248.84C575.442 248.965 573.368 249.009 571.301 249.126C569.065 246.474 564.579 245.155 561.31 244.591C558.033 244.049 554.361 244.159 551.187 245.228C552.081 242.444 548.797 240.664 546.048 240.027C542.581 239.243 537.04 239.844 534.364 242.613C534.195 241.646 532.92 241.089 531.835 240.825C530.398 240.481 528.844 240.62 527.386 240.994C527.107 237.609 521.712 235.587 518.744 234.986C516.317 234.481 513.854 234.407 511.384 234.583C512.682 233.396 513.437 231.821 512.872 229.938C512.102 227.359 509.603 225.66 507.286 224.649C504.318 223.322 501.459 222.429 498.197 222.224C495.353 222.026 492.267 221.528 489.474 222.275C486.894 222.963 483.61 223.462 481.44 225.154C480.399 225.975 478.911 226.685 478.032 227.689C477.651 228.143 477.38 228.612 477.123 229.088C476.573 228.766 475.906 228.597 475.078 228.576C472.761 228.561 470.496 229.301 468.466 230.392C467.425 230.942 465.996 232.18 465.593 233.345C465.578 233.345 465.578 233.36 465.578 233.36C464.999 233.015 464.361 232.7 463.701 232.429C458.724 230.392 453.476 231.572 448.374 232.253C445.457 232.649 440.773 235.133 439.241 237.748C438.544 238.95 437.929 239.836 437.929 241.192V241.25C436.441 240.525 434.601 240.466 432.929 241.001C432.13 241.272 430.606 242.4 429.931 243.565C428.179 242.708 426.42 242.364 424.485 242.107C420.49 241.565 416.297 241.558 412.31 241.946C408.733 242.305 405.038 243.433 401.908 245.199C400.42 246.034 398.595 247.199 397.657 248.767C396.044 248.423 394.365 248.401 392.636 248.386C388.413 248.386 384.199 248.73 379.998 249.163C379.969 249.163 379.954 249.163 379.932 249.177C385.628 249.119 391.36 249.544 396.777 250.921C401.205 247.097 407.025 245.192 412.72 244.042Z" fill="#FFD3DC"/>
<path d="M613.112 251.963C607.615 252.131 602.095 252.146 596.605 252.476C592.896 252.71 589.172 253.15 585.434 253.018C582.795 252.922 579.936 252.651 577.642 251.237C577.744 251.75 577.788 252.256 577.869 252.842C577.891 253.047 577.781 253.274 577.554 253.259C576.41 253.208 575.347 252.966 574.336 252.563C574.592 252.835 574.849 253.106 575.12 253.362C575.23 253.487 575.252 253.721 575.12 253.838C571.565 256.857 566.258 257.919 561.72 257.436C561.398 257.399 561.229 256.996 561.537 256.813C562.666 256.153 563.707 255.391 564.594 254.461C561.654 255.956 558.605 257.611 555.211 257.267C554.962 257.245 554.72 256.908 554.969 256.703C555.365 256.381 555.798 256.066 556.223 255.721C552.77 257.501 548.555 258.19 544.956 258.578C541.738 258.937 538.498 259.047 535.251 259.267C531.615 259.516 527.665 259.853 524.212 258.395C523.97 258.285 524.021 257.926 524.212 257.817C525.136 257.252 526.074 256.761 526.932 256.124C524.271 256.886 521.712 257.948 518.883 257.765C518.487 257.751 518.45 257.238 518.788 257.113C520.972 256.241 523.032 255.172 525.018 253.963C517.879 256.087 509.94 257.567 502.896 255.128C503.482 255.641 504.003 256.234 504.34 256.93C504.413 257.091 504.399 257.296 504.215 257.384C501.261 258.893 497.743 258.044 494.576 257.897C490.508 257.729 486.073 257.824 482.093 256.857C480.583 256.498 478.904 255.707 479.476 253.89C479.865 252.673 480.964 251.684 482.144 250.886C479.014 251.926 476.068 253.545 472.71 253.78C472.366 253.794 472.3 253.311 472.549 253.142C472.989 252.849 473.473 252.556 473.927 252.234C468.349 253.684 462.529 253.912 456.782 254.175C453.571 254.322 450.397 254.6 447.201 254.871C444.328 255.113 441.462 255.238 438.632 254.6C438.398 254.527 438.31 254.197 438.493 254.036C439.27 253.296 440.106 252.637 440.978 251.999C437.98 252.959 435.092 254.073 431.874 254.38C427.711 254.747 423.496 254.849 419.325 255.076C415.191 255.318 411.056 255.494 406.922 255.626C404.078 255.714 401.007 255.992 398.302 254.915C397.979 254.791 397.994 254.402 398.302 254.278C399.849 253.626 401.439 253.054 402.993 252.417C393.75 254.058 384.367 255.201 375.241 252.476C376.766 253.787 378.716 254.476 380.563 255.311C380.819 255.435 380.746 255.86 380.482 255.926C374.376 257.362 367.948 256.476 361.732 256.798C359.305 256.923 356.762 257.069 354.35 256.6C353.221 256.395 351.44 255.948 351.059 254.652C351.008 254.505 351.008 254.38 351 254.249C348.384 255.194 346.009 256.417 347.695 257.392C348.45 257.824 349.542 257.831 350.385 257.882C352.21 257.978 354.057 258.014 355.882 258.051C360.024 258.11 364.165 257.868 368.307 257.78C402.348 257.018 436.389 257.194 470.453 256.93C471.655 256.915 472.872 256.908 474.081 256.893C473.986 256.996 473.898 257.091 473.81 257.186C471.625 259.787 480.304 260.791 481.089 260.93C487.957 261.963 494.994 262 501.921 262.022C516.442 262.073 530.934 262.894 545.462 262.381C552.345 262.139 559.228 261.619 566.089 261.084C572.591 260.579 579.064 259.589 585.133 257.157C585.368 257.069 585.793 256.593 585.514 256.359C584.752 255.685 583.828 255.289 582.846 255.011C587.222 254.827 591.591 254.483 595.96 254.153C600.819 253.787 605.701 253.567 610.576 253.274C613.611 253.106 617.95 253.67 620.714 252.146C620.794 252.109 620.897 252.014 620.985 251.911C618.361 252.029 615.692 251.904 613.112 251.963Z" fill="#FFD3DC"/>
<path d="M470.673 236.986C471.868 236.188 473.143 235.536 474.462 235.023C474.69 234.913 474.902 234.818 475.151 234.715C477.614 233.66 480.503 232.678 483.339 232.495C479.586 231.528 474.47 232.4 471.303 233.931C467.953 235.565 463.636 239.147 463.159 243.118C463.145 243.155 463.145 243.177 463.13 243.214C465.204 240.752 467.851 238.664 470.673 236.986Z" fill="white"/>
<path d="M454.554 234.364C454.532 234.349 454.532 234.342 454.51 234.342C451.959 233.653 449.261 234.232 446.813 235.191C444.848 235.975 442.012 237.807 441.675 240.071C444.233 236.107 450.177 234.979 454.554 234.364Z" fill="white"/>
<path d="M434.784 246.248C437.078 245.324 439.351 244.87 441.711 244.519C439.571 243.258 436.602 244.079 434.381 244.775C431.639 245.61 429.338 247.412 427.776 249.764C429.851 248.174 432.336 247.229 434.784 246.248Z" fill="white"/>
<path d="M411.181 246.116C414.253 245.42 417.39 245.097 420.513 245.295C417.251 244.204 413.725 244.548 410.404 245.295C409.07 245.603 402.033 247.698 401.374 249.918C404.32 248.028 407.868 246.878 411.181 246.116Z" fill="white"/>
<path d="M525.854 247.376C524.931 242.987 520.547 240.606 516.692 239.258C511.326 237.346 507.228 238.665 502.434 240.789C510.739 238.658 521.075 240.093 525.854 247.376Z" fill="white"/>
<path d="M544.223 246.196C544.362 246.028 544.487 245.815 544.597 245.559C545.132 244.379 543.505 243.559 542.589 243.522C541.21 243.471 540.03 243.632 538.967 244.614C538.945 244.628 538.923 244.665 538.894 244.709C540.873 244.54 542.632 245.068 544.223 246.196Z" fill="white"/>
<path d="M547.735 251.164C549.604 250.541 551.524 250.145 553.482 249.984C556.59 249.713 559.727 249.801 562.813 250.255C562.886 250.109 562.916 249.977 562.798 249.889C558.268 247.229 548.233 247.361 545.125 252.468C546.005 252.065 546.826 251.471 547.735 251.164Z" fill="white"/>
<path d="M365.096 191.974C354.584 188.501 343.12 187.475 332.161 186.391C320.133 185.226 308.038 184.904 295.965 184.94C284.303 184.991 272.633 185.431 261.008 186.34C255.231 186.808 249.47 187.49 243.745 188.354C243.393 188.406 243.063 188.45 242.704 188.486C242.008 179.211 230.983 178.346 223.316 179.02C219.944 179.299 214.38 180.171 210.664 182.574C211.207 180.295 211.265 177.9 210.759 175.482C209.594 169.789 203.656 167.24 198.584 166.207C196.304 165.738 194.01 165.694 191.716 165.928C192.991 159.891 192.427 153.591 189.047 148.242C183.499 139.414 171.418 136.637 161.787 136.029C150.388 135.304 138.887 139.612 130.67 147.444C126.814 151.1 124.19 155.649 122.746 160.712C122.702 160.895 122.658 161.071 122.622 161.239C118.934 160.184 114.888 159.986 111.311 160.492C107.199 161.071 102.896 163.547 99.8174 166.932C93.3962 163.276 84.2262 162.382 77.871 163.782C72.4833 164.968 66.7878 168.28 63.9217 173.115C63.0714 174.551 62.2504 176.332 61.7153 178.215C58.534 176.361 54.9936 174.991 51.629 173.833C40.927 170.192 29.382 170.082 18.3135 171.518C9.64189 172.625 -0.143879 176.522 -6.93893 182.076C-8.61021 183.453 -9.99562 185.116 -10.9998 186.933C-15.9184 187.094 -20.8442 187.314 -25.4769 187.585C-37.1245 188.259 -49.1607 189.072 -60.5371 191.9C-64.576 192.904 -69.7657 196.325 -63.5424 198.904C-58.404 201.051 -53.0237 201.791 -47.5774 202.143C-48.347 202.201 -49.124 202.252 -49.9083 202.326C-61.9371 203.395 -73.8706 205.659 -85.4376 209.147C-91.1991 210.898 -96.9313 212.89 -102.436 215.352C-106.607 217.213 -111.76 219.462 -114.274 223.506C-117.478 228.657 -107.487 230.093 -104.716 230.51C-93.2076 232.188 -81.34 231.587 -69.7584 231.097C-48.2004 230.181 -26.5764 228.298 -5.09174 225.814C-0.173208 226.818 4.91389 227.177 9.94238 227.616C20.8277 228.54 31.7277 228.452 42.6276 228.95C65.6443 230.027 88.5876 231.954 111.648 230.73C134.46 229.529 157.264 228.496 180.046 226.877C191.261 226.078 202.403 224.217 213.537 222.715C214.249 222.642 214.945 222.517 215.663 222.422C219.16 222.928 222.796 222.891 226.204 222.913C233.761 222.972 241.355 222.422 248.898 221.909C264.878 220.796 280.806 218.869 296.72 216.979C304.593 216.048 312.48 215.198 320.228 213.469C323.16 212.81 326.385 212.209 328.746 210.246C331.289 208.136 329.127 206.553 325.63 205.439C334.221 205.11 342.812 204.67 351.352 203.872C356.556 203.395 361.775 202.729 366.958 202.018C369.289 201.696 372.807 201.234 374.691 199.564C379.192 195.585 366.767 192.53 365.096 191.974Z" fill="white"/>
<path d="M-79.8513 209.477C-70.4981 206.656 -60.9762 204.414 -51.2491 203.359C-47.1588 202.92 -43.0393 202.612 -38.9271 202.326C-43.589 201.366 -48.3023 200.634 -52.9643 199.674C-54.8701 199.278 -59.73 198.004 -57.3477 195.124C-55.7057 193.146 -52.9203 192.502 -50.5013 191.981C-47.0855 191.285 -43.677 190.523 -40.2245 189.974C-36.0243 189.322 -31.7655 188.809 -27.5213 188.589C-25.3296 188.479 -23.1379 188.406 -20.9388 188.494C-19.1356 188.553 -17.3837 189.109 -15.5805 188.86C-15.2726 188.809 -14.9647 189.212 -15.0747 189.512C-16.4015 192.663 -16.9732 195.989 -16.7533 199.322C-11.1897 188.428 0.582517 180.962 11.805 176.999C28.1292 171.248 47.1583 170.977 62.5223 179.585C62.8449 179.768 62.8742 180.296 62.5223 180.464C58.5127 182.369 56.6802 186.743 55.6906 191.234C56.5043 190.238 57.3693 189.344 58.2049 188.538C61.4961 185.351 65.2712 182.42 69.3247 180.274C75.1815 177.182 82.0865 176.142 88.581 175.453C93.4043 174.926 98.616 174.259 103.549 174.838C100.742 173.819 97.8463 173.094 94.9143 172.369C94.4965 172.259 94.4232 171.643 94.7897 171.438C98.4694 169.438 103.021 168.815 107.39 169.467C106.239 168.998 105.074 168.617 104.092 168.288C103.652 168.141 103.623 167.628 103.982 167.357C109.567 163.137 119.566 162.478 126.793 165.738C126.661 161.438 128.611 156.661 130.927 153.657C136.33 146.668 145.097 142.902 153.614 141.393C161.26 140.045 169.902 140.792 176.697 144.792C179.937 146.697 183.074 149.327 184.782 152.741C186.93 157.056 187.128 161.709 186.981 166.442C186.981 166.661 186.842 166.881 186.622 166.932C182.605 167.804 178.676 169.995 175.729 173.028C181.278 170.867 187.186 169.702 193.16 170.332C200.285 171.094 207.388 175.131 208.063 182.926C208.085 183.146 207.879 183.344 207.689 183.417C204.046 184.633 201.275 187.292 199.12 190.37C206.237 185.043 215.803 182.42 224.519 182.406C230.258 182.369 238.842 183.952 238.703 190.978C246.78 189.688 254.895 188.802 263.039 188.098C274.474 187.095 285.938 185.856 297.425 185.622C308.926 185.388 320.397 185.769 331.862 186.494C338.532 186.926 345.195 187.988 351.844 188.787C345.312 187.673 338.649 187.036 332.162 186.399C320.133 185.234 308.039 184.911 295.966 184.948C284.304 184.999 272.634 185.439 261.008 186.347C255.232 186.816 249.471 187.498 243.746 188.362C243.394 188.413 243.064 188.457 242.705 188.494C242.009 179.219 230.984 178.354 223.317 179.028C219.945 179.307 214.381 180.179 210.665 182.582C211.207 180.303 211.266 177.907 210.76 175.49C209.595 169.797 203.657 167.247 198.585 166.214C196.305 165.746 194.011 165.702 191.716 165.936C192.992 159.899 192.427 153.598 189.048 148.25C183.499 139.422 171.419 136.645 161.787 136.037C150.389 135.312 138.888 139.62 130.671 147.452C126.815 151.107 124.191 155.657 122.747 160.72C122.703 160.903 122.659 161.079 122.622 161.247C118.935 160.192 114.889 159.994 111.312 160.5C107.2 161.079 102.897 163.555 99.8182 166.94C93.3969 163.284 84.2269 162.39 77.8717 163.789C72.484 164.976 66.7885 168.288 63.9224 173.123C63.0721 174.559 62.2511 176.339 61.716 178.222C58.5347 176.369 54.9943 174.999 51.6297 173.841C40.9277 170.2 29.3827 170.09 18.3142 171.526C9.64259 172.632 -0.143163 176.53 -6.93822 182.083C-8.60949 183.461 -9.9949 185.124 -10.9991 186.941C-15.9177 187.102 -20.8435 187.322 -25.4762 187.593C-37.1238 188.267 -49.16 189.08 -60.5364 191.908C-64.5753 192.912 -69.765 196.333 -63.5417 198.912C-58.4032 201.059 -53.023 201.799 -47.5767 202.15C-48.3463 202.209 -49.1233 202.26 -49.9076 202.334C-61.9364 203.403 -73.8699 205.667 -85.4369 209.154C-91.1984 210.905 -96.9306 212.898 -102.435 215.36C-106.606 217.221 -111.759 219.47 -114.274 223.514C-114.384 223.683 -114.472 223.859 -114.545 224.02C-112.192 221.36 -107.794 219.726 -105.06 218.576C-96.7913 215.111 -88.4569 212.07 -79.8513 209.477Z" fill="#FFD3DC"/>
<path d="M373.966 195.497C370.499 200.713 360.017 200.574 354.812 200.626C339.866 200.757 325.081 203.666 310.098 203.732C309.658 203.732 309.438 203.182 309.754 202.86C311.461 201.131 313.199 199.292 314.372 197.131C309.182 201.366 302.68 204.604 295.951 205.886C297.842 206.179 299.726 206.545 301.58 207.065C301.998 207.175 302.072 207.761 301.69 207.989C298.091 210.135 293.884 210.861 289.779 211.359C284.362 212.011 279.033 212.978 273.645 213.872C264.878 215.308 256.119 216.106 247.264 216.289C241.217 216.399 235.067 216.451 229.093 215.469C225.523 214.883 220.098 213.923 218.391 210.208C215.686 212.634 212.695 215.227 208.905 215.19C208.524 215.19 208.253 214.773 208.473 214.428C209.045 213.52 209.719 212.699 210.393 211.864C203.606 216.267 195.059 218.744 187.105 217.213C186.556 217.117 186.688 216.399 187.105 216.245C189.561 215.3 192.544 213.681 194.714 211.549C173.581 219.235 151.144 222.89 128.743 224.326C116.817 225.074 104.744 225.55 92.7883 225.015C81.2946 224.51 69.9109 222.759 59.2822 218.194C58.9083 218.033 58.9816 217.484 59.2822 217.3C61.6425 215.879 64.9924 214.736 67.8805 213.154C53.8139 215.205 39.674 216.905 25.4608 217.205C18.981 217.33 12.3252 217.572 5.85264 217.205C1.41789 216.956 -3.03151 216.165 -6.59396 213.542C-5.55308 215.491 -4.13101 217.132 -2.15187 218.341C-1.74138 218.575 -1.88068 219.337 -2.40112 219.286C-18.3442 218.106 -34.5218 223.257 -50.2084 218.758C-50.6042 218.648 -50.6702 218.209 -50.4356 217.901C-49.6953 216.993 -48.8743 216.158 -48.0313 215.359C-54.4819 218.722 -61.233 221.403 -68.6804 221.323C-69.1495 221.323 -69.4134 220.59 -68.9369 220.378C-66.7525 219.41 -64.7295 218.246 -62.7503 216.941C-68.006 218.67 -73.5549 219.344 -79.0599 219.96C-84.6308 220.575 -90.3483 221.667 -95.9119 220.832C-94.0867 221.674 -92.1955 222.363 -90.3483 223.184C-89.9598 223.345 -90.0698 223.858 -90.3483 224.055C-94.0647 226.744 -100.061 227.455 -104.503 227.491C-107.684 227.543 -113.497 227.11 -113.666 222.744C-113.673 222.722 -113.666 222.693 -113.666 222.656C-113.878 222.934 -114.091 223.235 -114.281 223.535C-117.485 228.686 -107.494 230.122 -104.723 230.539C-93.2144 232.217 -81.3469 231.616 -69.7652 231.125C-48.2072 230.21 -26.5833 228.327 -5.09859 225.843C-0.180059 226.847 4.90704 227.206 9.93553 227.645C20.8208 228.568 31.7207 228.481 42.6207 228.979C65.6374 230.056 88.5808 231.983 111.641 230.759C134.453 229.557 157.257 228.524 180.039 226.905C191.254 226.107 202.396 224.246 213.531 222.744C214.242 222.671 214.938 222.546 215.656 222.451C219.153 222.956 222.789 222.92 226.197 222.942C233.755 223 241.349 222.451 248.891 221.938C264.871 220.824 280.799 218.898 296.713 217.007C304.586 216.077 312.473 215.227 320.221 213.498C323.153 212.839 326.378 212.238 328.739 210.274C331.282 208.164 329.12 206.582 325.623 205.468C334.214 205.139 342.805 204.699 351.345 203.9C356.549 203.424 361.768 202.758 366.951 202.047C369.282 201.725 372.8 201.263 374.684 199.593C376.392 198.061 375.637 196.677 373.966 195.497Z" fill="#FFD3DC"/>
<path d="M40.9274 174.999C28.0263 172.904 15.1326 175.966 3.72683 182.062C-1.76345 184.992 -7.39301 188.78 -11.4612 193.528C-13.2058 195.564 -16.651 199.301 -17.1054 202.517C-21.4962 202.803 -24.6482 204.642 -27.9688 206.715C-24.8168 205.389 -21.3276 204.744 -17.9484 204.605C-14.4006 204.459 -10.1198 204.554 -6.85792 206.356C-6.83593 206.21 -6.81389 206.063 -6.83588 205.917C-7.39297 202.664 -11.6372 202.349 -14.8331 202.422C-10.2224 194.759 -1.91739 188.56 6.07248 184.897C11.057 182.604 16.1808 180.37 21.4365 178.765C27.7184 176.824 34.0517 176.523 40.5169 175.893C40.8101 175.886 41.3965 175.08 40.9274 174.999Z" fill="white"/>
<path d="M95.918 178.302C87.9721 177.775 79.6304 178.903 72.205 181.782C65.5858 184.361 61.0705 187.717 57.6326 193.519C56.731 193.644 55.8294 193.805 54.9424 193.952C52.2889 194.442 50.0239 195.776 47.8249 197.285C46.2123 198.391 45.5818 200.362 44.2404 201.586C44.1671 201.659 44.0938 201.798 44.0425 201.915C47.9348 198.582 52.6481 196.706 57.7352 195.842C62.5072 195.021 66.8906 196.164 70.9662 198.347C71.1494 198.054 71.2154 197.732 71.0395 197.49C68.4519 193.783 64.5376 193.014 60.4767 193.219C64.3544 189.885 68.0708 187.285 73.2752 185.035C79.975 182.178 88.3679 180.244 95.5442 179.372C95.9766 179.321 96.5997 178.354 95.918 178.302Z" fill="white"/>
<path d="M168.032 144.784C151.415 140.96 130.128 149.84 129.351 168.603C129.131 168.69 128.918 168.771 128.728 168.874C124.725 170.822 118.092 175.658 118.165 180.933C121.185 175.819 126.213 172.603 131.843 170.764C136.226 169.321 141.497 168.031 146.012 169.562C143.117 165.811 136.688 166.2 131.924 167.65C134.086 161.188 136.292 155.606 142.53 151.488C149.135 147.136 159.822 144.704 167.548 145.649C167.907 145.693 168.486 144.894 168.032 144.784Z" fill="white"/>
<path d="M230.691 195.513C227.971 196.538 225.398 197.784 223.104 199.227C222.921 199.337 222.723 199.593 222.598 199.879C225.633 198.919 228.55 197.696 231.732 197.132C235.719 196.428 239.78 195.879 243.819 195.491C249.632 194.905 255.511 194.67 261.316 195.212C261.28 195.124 261.221 195.044 261.111 195.007C252.733 191.388 242.316 191.754 233.205 194.648C231.409 185.842 220.766 184.677 213.201 185.717C208.84 186.333 200.579 189.051 196.979 193.483C196.422 192.524 195.689 191.622 194.81 190.751C191.819 187.798 187.531 187.82 183.536 188.223C190.331 189.989 196.07 194.267 197.405 201.359C198.343 199.271 198.438 197.308 197.874 195.483C199.692 194.267 202.125 193.285 203.642 192.567C207.286 190.824 211.288 190.15 215.29 189.82C218.699 189.549 221.697 190.435 224.893 191.403C227.561 192.208 228.968 193.842 230.691 195.513Z" fill="white"/>
<path d="M320.807 188.185C313.257 187.966 305.685 188.369 298.201 189.336C294.492 189.805 290.805 190.486 287.191 191.446C298.135 190.244 308.815 190.039 319.979 190.94C331.238 191.849 342.629 193.145 353.72 195.292C343.443 190.545 332.206 188.508 320.807 188.185Z" fill="white"/>
<path d="M445.889 265.825C445.449 265.019 444.548 264.894 443.675 264.865C441.286 264.777 438.874 264.264 436.462 264.081C430.752 263.678 425.035 263.502 419.332 263.231C413.666 262.982 407.941 263.048 402.289 263.341C400.237 263.451 398.162 263.502 396.088 263.627C393.867 260.968 389.381 259.641 386.097 259.092C382.82 258.55 379.155 258.66 375.974 259.729C376.875 256.931 373.584 255.158 370.843 254.528C367.368 253.751 361.827 254.344 359.151 257.114C358.983 256.132 357.707 255.59 356.615 255.326C355.178 254.982 353.646 255.121 352.158 255.495C351.902 252.11 346.499 250.088 343.545 249.472C341.104 248.982 338.634 248.894 336.171 249.069C337.469 247.89 338.238 246.322 337.681 244.432C336.897 241.846 334.405 240.153 332.096 239.12C329.12 237.823 326.246 236.922 322.999 236.703C320.155 236.519 317.069 236.014 314.276 236.754C311.688 237.442 308.405 237.941 306.235 239.648C305.187 240.468 303.713 241.179 302.819 242.197C302.438 242.637 302.167 243.106 301.917 243.582C301.36 243.267 300.693 243.091 299.858 243.069C297.549 243.054 295.276 243.78 293.26 244.871C292.212 245.436 290.79 246.674 290.38 247.824C290.38 247.824 290.38 247.839 290.38 247.861C289.793 247.502 289.156 247.187 288.503 246.915C283.519 244.864 278.27 246.044 273.161 246.747C270.244 247.128 265.56 249.626 264.042 252.242C263.331 253.429 262.73 254.315 262.716 255.685C262.716 255.685 262.73 255.722 262.73 255.744C261.242 255.018 259.395 254.975 257.724 255.502C256.91 255.758 255.393 256.901 254.726 258.052C252.967 257.202 251.207 256.865 249.272 256.594C245.285 256.066 241.106 256.044 237.097 256.432C233.534 256.799 229.818 257.912 226.703 259.685C225.215 260.521 223.375 261.7 222.444 263.253C220.838 262.909 219.153 262.894 217.43 262.887C213.215 262.872 208.993 263.231 204.793 263.649C196.656 264.47 188.586 265.634 180.581 267.341C179.812 267.503 169.439 270.148 172.496 271.906C173.251 272.338 174.343 272.345 175.201 272.397C177.011 272.492 178.851 272.529 180.684 272.558C184.833 272.631 188.967 272.375 193.116 272.287C227.15 271.547 261.198 271.708 295.247 271.437C296.449 271.422 297.673 271.422 298.883 271.415C298.787 271.51 298.699 271.598 298.611 271.701C296.442 274.316 305.106 275.32 305.898 275.444C312.766 276.47 319.788 276.521 326.723 276.536C341.244 276.595 355.735 277.408 370.264 276.895C377.147 276.646 384.03 276.133 390.898 275.606C397.407 275.1 403.865 274.096 409.949 271.679C410.184 271.583 410.602 271.129 410.316 270.865C409.553 270.191 408.622 269.789 407.647 269.532C412.024 269.349 416.4 269.005 420.761 268.675C425.628 268.294 430.503 268.089 435.378 267.803C438.42 267.62 442.759 268.184 445.522 266.66C445.735 266.521 446.036 266.103 445.889 265.825Z" fill="white"/>
<path d="M237.485 258.564C242.169 257.619 248.708 256.491 252.791 259.729C252.901 259.802 252.923 260.022 252.842 260.132C251.508 261.963 250.716 263.912 250.511 266.095C251.508 264.279 252.585 262.418 254.154 261.055C256.06 259.363 258.391 258.403 260.876 257.927C264.064 257.311 267.781 257.194 270.896 258.381C269.313 256.908 267.268 255.919 265.12 255.633C264.922 255.597 264.709 255.436 264.797 255.201C266.322 251.435 270.368 249.201 274.07 248.029C279.069 246.424 284.178 246.915 289.097 248.644C289.302 248.717 289.39 248.922 289.295 249.15C288.181 251.406 287.22 253.831 286.905 256.337C288.518 252.805 291.399 249.64 294.404 247.699C299.674 244.299 305.934 245.061 311.579 247.01C310.156 244.856 307.979 243.933 305.37 243.516C305.047 243.464 305.084 243.061 305.282 242.915C312.377 237.64 337.344 235.94 333.54 250.38C333.518 250.49 333.415 250.586 333.305 250.615C331.099 251.069 329.244 252.344 327.61 253.838C329.024 253.216 330.38 252.424 331.905 252.073C334.111 251.582 336.384 251.472 338.627 251.728C341.28 252.021 343.714 252.747 346.089 254C349.146 255.597 352.862 258.461 352.422 261.81C353.28 260.63 353.771 259.187 353.771 257.736C353.771 257.568 353.925 257.392 354.101 257.406C356.586 257.502 357.714 259.26 358.11 261.377C360.837 258.176 365.316 255.282 369.281 256.176C371.488 256.681 373.562 258.505 373.511 260.938C373.496 261.846 372.558 262.447 371.898 262.887C370.711 263.707 369.875 264.667 369.208 265.802C373.922 262.183 380.145 260.579 386.053 261.326C389.733 261.795 393.823 263.128 396.191 266.037C405.038 264.432 414.142 264.469 423.099 264.286C428.67 264.161 434.212 264.301 439.768 264.601C440.333 264.623 440.905 264.652 441.484 264.674C439.812 264.476 438.134 264.198 436.462 264.073C430.752 263.67 425.035 263.495 419.332 263.224C413.666 262.974 407.941 263.04 402.289 263.333C400.237 263.443 398.162 263.495 396.088 263.619C393.867 260.96 389.381 259.634 386.097 259.084C382.82 258.542 379.155 258.652 375.974 259.722C376.875 256.923 373.584 255.15 370.843 254.52C367.368 253.743 361.827 254.337 359.151 257.106C358.983 256.124 357.707 255.582 356.615 255.318C355.178 254.974 353.646 255.113 352.158 255.487C351.902 252.102 346.499 250.08 343.545 249.465C341.104 248.974 338.634 248.886 336.171 249.062C337.469 247.882 338.238 246.314 337.681 244.424C336.897 241.838 334.405 240.145 332.096 239.112C329.12 237.816 326.246 236.914 322.999 236.695C320.155 236.512 317.069 236.006 314.276 236.746C311.688 237.435 308.405 237.933 306.235 239.64C305.187 240.46 303.713 241.171 302.819 242.189C302.438 242.629 302.167 243.098 301.917 243.574C301.36 243.259 300.693 243.083 299.858 243.061C297.549 243.047 295.276 243.772 293.26 244.864C292.212 245.428 290.79 246.666 290.38 247.816C290.38 247.816 290.38 247.831 290.38 247.853C289.793 247.494 289.156 247.179 288.503 246.908C283.519 244.856 278.27 246.036 273.161 246.739C270.244 247.12 265.56 249.618 264.042 252.234C263.331 253.421 262.73 254.307 262.716 255.677C262.716 255.677 262.73 255.714 262.73 255.736C261.242 255.011 259.395 254.967 257.724 255.494C256.91 255.751 255.393 256.894 254.726 258.044C252.967 257.194 251.207 256.857 249.272 256.586C245.285 256.058 241.106 256.036 237.097 256.425C233.534 256.791 229.818 257.905 226.703 259.678C225.215 260.513 223.375 261.692 222.444 263.246C220.838 262.901 219.153 262.887 217.43 262.879C213.215 262.865 208.993 263.224 204.793 263.641C204.778 263.641 204.749 263.641 204.727 263.663C210.422 263.605 216.14 264.022 221.579 265.407C225.977 261.59 231.804 259.707 237.485 258.564Z" fill="#FFD3DC"/>
<path d="M437.87 266.498C432.394 266.66 426.86 266.674 421.392 266.989C417.661 267.224 413.944 267.678 410.199 267.539C407.56 267.436 404.701 267.172 402.407 265.758C402.517 266.271 402.553 266.777 402.634 267.363C402.663 267.561 402.553 267.795 402.319 267.78C401.19 267.744 400.12 267.473 399.101 267.084C399.357 267.356 399.614 267.627 399.878 267.883C399.995 268.008 400.01 268.242 399.878 268.359C396.337 271.363 391.03 272.44 386.485 271.957C386.163 271.92 386.002 271.517 386.317 271.334C387.446 270.674 388.487 269.912 389.374 268.967C386.42 270.477 383.378 272.118 379.984 271.803C379.734 271.766 379.493 271.436 379.742 271.224C380.13 270.894 380.563 270.572 380.988 270.242C377.55 272.022 373.328 272.696 369.729 273.099C366.511 273.458 363.271 273.568 360.031 273.788C356.388 274.023 352.437 274.367 348.977 272.902C348.735 272.814 348.786 272.447 348.977 272.323C349.908 271.773 350.846 271.268 351.704 270.63C349.036 271.4 346.485 272.469 343.655 272.286C343.267 272.264 343.216 271.759 343.56 271.627C345.73 270.77 347.804 269.693 349.769 268.484C342.636 270.608 334.72 272.074 327.668 269.649C328.247 270.162 328.76 270.755 329.105 271.451C329.193 271.598 329.164 271.817 328.98 271.905C326.026 273.414 322.508 272.557 319.341 272.418C315.273 272.25 310.831 272.345 306.858 271.363C305.363 271.004 303.669 270.213 304.241 268.396C304.622 267.194 305.729 266.198 306.909 265.399C303.772 266.432 300.84 268.059 297.475 268.286C297.116 268.301 297.05 267.832 297.314 267.663C297.754 267.37 298.223 267.077 298.692 266.755C293.107 268.198 287.286 268.433 281.547 268.689C278.336 268.835 275.155 269.092 271.952 269.378C269.078 269.627 266.212 269.744 263.383 269.092C263.141 269.041 263.068 268.726 263.251 268.542C264.021 267.802 264.871 267.158 265.743 266.528C262.738 267.473 259.85 268.586 256.639 268.879C252.476 269.26 248.261 269.348 244.075 269.59C239.948 269.832 235.821 270.008 231.695 270.132C228.85 270.228 225.779 270.513 223.067 269.436C222.752 269.312 222.759 268.923 223.067 268.784C224.628 268.132 226.204 267.568 227.758 266.916C218.515 268.572 209.14 269.715 200.014 266.989C201.546 268.293 203.488 268.989 205.328 269.825C205.592 269.949 205.526 270.367 205.255 270.425C199.141 271.861 192.727 270.989 186.504 271.297C184.071 271.422 181.52 271.576 179.115 271.114C177.987 270.909 176.198 270.462 175.824 269.151C175.787 269.026 175.773 268.901 175.773 268.755C173.171 269.715 170.788 270.938 172.474 271.898C173.229 272.33 174.321 272.338 175.179 272.389C176.99 272.484 178.829 272.521 180.662 272.55C184.811 272.623 188.945 272.367 193.094 272.279C227.128 271.539 261.176 271.7 295.225 271.429C296.427 271.414 297.651 271.414 298.861 271.407C298.765 271.502 298.678 271.59 298.59 271.693C296.42 274.308 305.084 275.312 305.876 275.437C312.744 276.462 319.766 276.514 326.701 276.528C341.222 276.587 355.713 277.4 370.242 276.887C377.125 276.638 384.008 276.125 390.876 275.598C397.385 275.092 403.843 274.089 409.927 271.671C410.162 271.576 410.58 271.121 410.294 270.858C409.532 270.184 408.601 269.781 407.626 269.524C412.002 269.341 416.378 268.997 420.739 268.667C425.607 268.286 430.481 268.081 435.356 267.795C438.398 267.612 442.737 268.176 445.501 266.652C445.588 266.601 445.669 266.52 445.75 266.41C443.126 266.535 440.465 266.41 437.87 266.498Z" fill="#FFD3DC"/>
<path d="M295.452 251.5C296.64 250.716 297.908 250.05 299.235 249.552C299.462 249.442 299.704 249.346 299.924 249.229C302.394 248.189 305.282 247.207 308.119 247.024C304.351 246.042 299.249 246.929 296.068 248.46C292.703 250.094 288.401 253.662 287.931 257.647C287.917 257.669 287.909 257.706 287.902 257.742C289.977 255.273 292.615 253.178 295.452 251.5Z" fill="white"/>
<path d="M279.333 248.885C279.319 248.871 279.311 248.863 279.297 248.863C276.731 248.167 274.041 248.753 271.6 249.713C269.635 250.497 266.799 252.329 266.454 254.593C268.998 250.644 274.957 249.501 279.333 248.885Z" fill="white"/>
<path d="M259.542 260.769C261.851 259.854 264.108 259.399 266.476 259.04C264.336 257.78 261.374 258.601 259.153 259.29C256.412 260.139 254.103 261.942 252.542 264.293C254.631 262.682 257.116 261.751 259.542 260.769Z" fill="white"/>
<path d="M235.953 260.637C239.025 259.941 242.169 259.604 245.277 259.824C242.023 258.711 238.504 259.055 235.176 259.824C233.842 260.132 226.798 262.213 226.146 264.433C229.085 262.55 232.64 261.385 235.953 260.637Z" fill="white"/>
<path d="M350.627 261.89C349.703 257.509 345.312 255.135 341.457 253.787C336.091 251.875 332.008 253.186 327.199 255.303C335.505 253.164 345.84 254.615 350.627 261.89Z" fill="white"/>
<path d="M368.995 260.724C369.135 260.541 369.245 260.328 369.362 260.087C369.904 258.9 368.284 258.087 367.361 258.065C365.975 258.006 364.795 258.16 363.74 259.134C363.725 259.156 363.688 259.193 363.666 259.229C365.645 259.054 367.397 259.596 368.995 260.724Z" fill="white"/>
<path d="M372.514 265.684C374.376 265.061 376.296 264.666 378.254 264.497C381.362 264.241 384.492 264.336 387.585 264.783C387.673 264.636 387.702 264.49 387.57 264.417C383.047 261.757 373.005 261.874 369.912 266.995C370.777 266.585 371.598 266.006 372.514 265.684Z" fill="white"/>
</g>
</g>
<defs>
<clipPath id="clip0_6024_11300">
<rect width="621" height="277" fill="white"/>
</clipPath>
</defs>
</svg>
