<svg width="210" height="52" viewBox="0 0 210 52" fill="none" xmlns="http://www.w3.org/2000/svg">
<path d="M50.1019 32.0898C50.7691 34.2803 48.8751 36.4152 47.085 37.1082C47.5927 35.9074 48.1005 33.906 47.1924 32.8645C47.2999 32.7051 49.3792 32.2789 50.1019 32.0898Z" fill="black"/>
<path d="M6.63006 28.5699C6.57188 27.414 6.58054 26.2557 6.65601 25.1007C6.73755 23.7405 6.78943 22.5063 7.59001 21.3647C7.90973 20.8895 8.32818 20.4887 8.81681 20.1898C10.0992 19.4152 11.4335 20.1639 11.8338 21.5501C12.286 23.0734 11.7819 24.1149 11.0332 25.3676C10.65 25.969 10.3201 26.6027 10.0473 27.2616C9.88476 27.7418 9.86843 28.2596 10.0004 28.7492C10.1324 29.2387 10.4067 29.6781 10.7886 30.0117C11.4817 30.6232 12.4453 30.5713 13.2978 30.3823C13.8233 30.2257 14.3394 30.0388 14.8433 29.8226L15.429 32.8915C14.4707 34.2038 13.1561 35.2136 11.6411 35.801C9.97308 36.4418 8.19356 36.7418 6.40768 36.6831C3.84659 36.5497 3.02007 35.4823 3.10161 34.0887C3.17944 32.4616 4.88807 30.4083 5.9555 29.2704C6.17789 29.0221 6.41509 28.8108 6.63006 28.5699Z" fill="black"/>
<path fill-rule="evenodd" clip-rule="evenodd" d="M7.11205 28.8106C6.94897 28.8624 7.0824 25.2858 7.18989 23.7662C7.2774 22.8387 7.6682 21.9659 8.30179 21.2829C8.65519 20.8639 9.1308 20.5658 9.66203 20.4305C10.6739 20.2452 11.5152 21.0976 11.556 22.4579C11.5545 23.0909 11.3993 23.7141 11.1038 24.274C10.6739 25.0486 9.99189 26.0086 9.66203 26.9685C9.47164 27.5192 9.43067 28.1105 9.54331 28.6821C9.65595 29.2538 9.91817 29.7854 10.3032 30.2227C11.6375 31.746 13.8502 30.8379 14.9436 30.3561L15.3031 32.2575C13.1423 35.6673 8.57977 36.2566 6.38931 36.1491C-0.548984 35.7748 7.27143 28.755 7.11205 28.8106Z" fill="#63B72F"/>
<path fill-rule="evenodd" clip-rule="evenodd" d="M49.7279 32.6543C49.793 33.3893 49.6244 34.126 49.246 34.7595C48.8927 35.3339 48.4199 35.8256 47.8599 36.2013C47.9633 35.97 48.044 35.7292 48.1008 35.4822C48.2609 34.7619 48.2055 34.0104 47.9414 33.3214C47.9118 33.214 47.8858 33.1324 47.8599 33.0546L49.7279 32.6543Z" fill="#63B72F"/>
<path d="M17.1451 45.7005C18.0235 44.848 18.131 43.3803 18.0235 42.261C17.9166 41.2649 17.757 40.2751 17.5454 39.2959L21.4408 39.9927L21.3592 42.765C21.3333 43.3284 21.2814 43.914 21.2814 44.4996C21.3333 45.7005 21.9745 46.1564 22.5897 47.0941C23.0451 47.7221 23.288 48.4792 23.2828 49.2549C23.2665 49.694 23.1472 50.1231 22.9344 50.5076C22.8145 50.7192 22.6716 50.9168 22.5082 51.0969C21.7076 51.9235 20.7217 51.9235 19.6247 51.9494C18.4345 52.0221 17.2407 52.0135 16.0517 51.9235C15.2488 51.8537 14.4726 51.6001 13.7834 51.1822C13.5636 51.0574 13.3747 50.8846 13.231 50.6767C13.0872 50.4688 12.9923 50.2311 12.9532 49.9813C12.6604 48.4098 14.0651 47.209 15.329 46.5678C15.9554 46.2342 16.6633 46.1564 17.1451 45.7005Z" fill="black"/>
<path fill-rule="evenodd" clip-rule="evenodd" d="M15.5845 47.0085C14.4726 47.5681 13.7313 48.3168 13.5312 48.984C13.3162 49.7845 13.5312 50.3182 14.0093 50.6666C14.6124 51.0681 15.313 51.2986 16.0367 51.3338C17.1552 51.4394 18.2798 51.4654 19.4021 51.4116C20.4398 51.4116 21.4294 51.5191 22.2041 50.6926C22.315 50.5602 22.4131 50.4175 22.4969 50.2664C22.6688 49.9445 22.7687 49.5892 22.7897 49.2249C22.7863 48.5575 22.5708 47.9085 22.1744 47.3717C22.0577 47.1671 21.9144 46.9789 21.7482 46.812C21.296 46.2524 20.8142 45.7001 20.8142 44.6512L20.8549 40.4112L18.1567 39.7959C18.5051 41.612 18.7201 42.9167 18.4792 44.1175L18.4532 44.1472C18.3797 44.799 18.1095 45.4131 17.6786 45.9077C17.0893 46.5303 16.3258 46.6341 15.5845 47.0085Z" fill="#63B72F"/>
<path d="M33.423 49.9697C33.234 50.8259 32.8337 51.5449 32.0628 51.8229C31.0732 52.2232 29.8983 51.8785 28.9939 51.4522C27.5056 50.791 26.1836 49.8059 25.1245 48.5687C24.5611 47.7681 24.1905 47.0194 24.2424 46.2189C24.2943 45.4183 24.7502 44.6474 25.8435 43.8468C26.7922 43.1368 27.5824 42.2367 28.1637 41.2042C28.4306 40.6705 28.3268 40.4629 28.0303 39.9218C27.881 39.6777 27.7124 39.4459 27.5262 39.2287L30.4913 37.9463C30.7026 38.4281 30.9694 38.8803 31.2326 39.3621C31.3956 39.7105 31.581 40.0552 31.7144 40.4036C31.8339 40.738 31.8966 41.09 31.8997 41.4451C31.8631 41.7886 31.7924 42.1275 31.6884 42.4569L31.6329 42.6459C31.3553 43.4995 31.0082 44.3288 30.5951 45.1255C31.555 45.8482 32.6225 46.6488 33.1562 47.72C33.5001 48.4172 33.5943 49.2114 33.423 49.9697Z" fill="black"/>
<path fill-rule="evenodd" clip-rule="evenodd" d="M32.9674 49.3074C33.0106 48.6877 32.8319 48.0728 32.4633 47.5728C32.0757 47.0914 31.6466 46.6449 31.1809 46.2385C30.8 45.9084 30.3893 45.6144 29.9541 45.3601C30.221 44.5595 30.6954 43.8108 30.9659 43.0103C31.0357 42.8566 31.0903 42.6965 31.129 42.5322L31.2068 42.3431C31.4172 41.7588 31.4263 41.1209 31.2328 40.5307C30.9659 39.7895 30.4322 39.089 30.1209 38.3662L28.1862 39.2446C28.4524 39.595 28.6533 39.9905 28.7792 40.4121C28.8607 40.726 28.8224 41.059 28.6717 41.3461C28.0777 42.5082 27.218 43.5139 26.1625 44.2816L26.1366 44.3075C25.695 44.6134 25.3173 45.0024 25.0246 45.4528C24.8649 45.7155 24.7695 46.0123 24.7463 46.3189C24.7231 46.6255 24.7728 46.9332 24.8912 47.217C25.0715 47.5919 25.2861 47.9492 25.5324 48.2844C26.5415 49.4492 27.7874 50.3855 29.1869 51.0308C29.8013 51.3366 30.4762 51.5012 31.1624 51.5127C32.4337 51.4941 32.8895 50.4193 32.9674 49.3074Z" fill="#63B72F"/>
<path d="M17.6531 4.82954C19.1177 4.96296 20.5915 4.96296 22.0562 4.82954C25.4957 4.45891 30.8885 4.05492 33.3977 1.60131L32.6342 37.0007C31.8929 38.335 29.8321 39.458 28.4979 40.0436C25.214 41.4854 21.1074 41.8968 17.7976 40.5773C17.035 40.2645 16.3171 39.8519 15.6627 39.3505C15.0734 34.9474 14.3804 30.5702 13.6873 26.193C12.8756 20.7669 11.9416 15.3074 11.5672 9.80718V9.78124C11.5413 9.48843 11.4857 8.95472 11.4597 8.39506C11.3004 6.07117 11.141 3.94743 11.4338 2.52419C11.6191 1.69767 12.5457 0.974934 13.2499 0.600593C14.4012 0.0456971 15.6986 -0.130743 16.9563 0.0965281C17.5261 0.175141 18.0888 0.29908 18.639 0.467164L17.6531 4.82954Z" fill="black"/>
<path fill-rule="evenodd" clip-rule="evenodd" d="M12.1011 1.90918C11.5934 3.6697 13.1945 4.6593 15.7297 5.13742C18.9875 5.72673 23.7613 5.43392 27.4454 4.73713C30.2215 4.20341 32.1673 3.45844 32.942 2.68381L32.2637 36.9231C28.7686 40.5776 20.774 42.4827 16.0929 38.9764C15.6222 35.6148 14.4732 28.3281 13.3279 20.7671C12.7683 16.9792 12.216 13.0579 11.9937 9.72218C11.7713 6.38646 11.408 3.29906 12.1011 1.90918Z" fill="#63B72F"/>
<path d="M16.7965 7.22117C20.5029 8.44798 24.6169 7.38055 28.2195 6.39466L28.9274 6.17969L28.794 6.92096C28.4493 8.73337 30.0764 8.77414 31.1957 8.92239V34.626L30.7954 34.6816C30.5544 34.7294 30.3267 34.8293 30.1283 34.9744C29.9837 35.0896 29.866 35.2351 29.7836 35.4006C29.7074 35.5288 29.6786 35.6796 29.7021 35.8268V35.8565C29.702 35.9014 29.7116 35.9458 29.7301 35.9867C29.7487 36.0276 29.7758 36.0641 29.8095 36.0937L30.1024 36.4643L29.7317 36.7571L29.6798 36.8127C29.2637 37.1247 28.8166 37.3929 28.3455 37.6133C27.8714 37.8559 27.3749 38.0521 26.863 38.1989C24.2925 38.8897 21.5951 38.9634 18.9907 38.4139L18.6423 38.3323V37.9617C18.6423 37.8579 18.6164 37.7764 18.6164 37.6689C18.5755 37.4584 18.4613 37.2692 18.2939 37.1352C18.0749 37.0107 17.8267 36.9467 17.5749 36.9499C17.4309 36.9429 17.2868 36.9605 17.1486 37.0017L16.6965 37.0759L16.5927 36.594C16.4296 35.4821 16.222 34.3258 16.0293 33.0471C15.8366 31.7684 15.629 30.5379 15.4697 29.3629C14.5616 23.1437 13.7351 16.4463 13.2273 10.8312C13.2014 10.4605 13.1495 10.0899 13.1235 9.71926C13.4753 9.6941 13.8233 9.63072 14.1613 9.53023C14.3881 9.42233 14.5959 9.27839 14.7766 9.104C15.4697 8.4628 15.4437 7.55475 15.4437 6.67634C15.8885 6.87278 16.3444 7.05439 16.7965 7.22117Z" fill="white"/>
<path fill-rule="evenodd" clip-rule="evenodd" d="M15.9181 7.38039C19.8134 9.06308 24.5613 7.88817 28.3529 6.84668C27.897 9.2484 29.8984 9.17056 30.7287 9.27434V34.2255C29.5797 34.3886 28.831 35.6154 29.4463 36.39C26.8296 38.5249 21.8668 38.6139 19.0907 37.9615C19.0907 36.7903 18.1863 36.3085 17.0633 36.5235C15.7031 28.4621 14.3169 18.1103 13.6201 10.1046C14.821 9.99708 15.9181 9.03714 15.9181 7.38039Z" fill="#CBF047"/>
<path d="M28.5127 4.97852C28.9942 4.98445 29.4691 5.0922 29.906 5.2947C30.3429 5.49719 30.7321 5.78985 31.0479 6.15343C31.7311 6.91528 32.1029 7.90622 32.0893 8.92949C32.0962 9.95938 31.7258 10.9561 31.0479 11.7315C30.7268 12.0865 30.3359 12.3714 29.8997 12.5684C29.4635 12.7655 28.9913 12.8705 28.5127 12.8768H28.4868C28.01 12.8694 27.5398 12.7639 27.1056 12.5668C26.6713 12.3698 26.2823 12.0855 25.9627 11.7315C25.2848 10.9561 24.9144 9.95938 24.9213 8.92949C24.9137 7.89948 25.2842 6.90248 25.9627 6.12749C26.285 5.77374 26.6761 5.48941 27.112 5.29187C27.5478 5.09432 28.0194 4.9877 28.4979 4.97852H28.5238H28.5127Z" fill="black"/>
<path fill-rule="evenodd" clip-rule="evenodd" d="M28.5124 5.24609C30.3655 5.24609 31.874 6.90283 31.874 8.93021C31.874 10.9576 30.3544 12.6143 28.5124 12.6143C26.6703 12.6143 25.1248 10.9613 25.1248 8.93392C25.1248 6.90654 26.6444 5.24609 28.5124 5.24609Z" fill="#699547"/>
<path d="M30.1133 7.51358C29.9405 7.26828 29.7118 7.06757 29.4462 6.92798V6.01992C29.9938 6.20623 30.4634 6.5702 30.7805 7.05399L30.1133 7.50617V7.51358ZM29.4462 8.1659C29.6485 8.23836 29.8444 8.32762 30.0318 8.43276C30.2061 8.53241 30.3579 8.66702 30.4777 8.82812C30.5974 8.98923 30.6826 9.17336 30.7279 9.36896C30.7731 9.56455 30.7774 9.76738 30.7406 9.96473C30.7037 10.1621 30.6264 10.3497 30.5136 10.5157C30.2686 10.9105 29.8897 11.2038 29.4462 11.3422V10.449C29.5956 10.3544 29.7222 10.2278 29.8168 10.0784C29.8898 9.98445 29.9336 9.87118 29.9428 9.75259C29.9521 9.634 29.9263 9.51532 29.8687 9.41123C29.7593 9.26095 29.6123 9.14208 29.4425 9.06654L29.4462 8.1659ZM29.4462 6.91315C29.3943 6.85756 29.3387 6.85755 29.2868 6.83161L29.1793 8.05841C29.2604 8.11133 29.3511 8.14784 29.4462 8.1659V9.04801C29.3335 8.99496 29.2171 8.95036 29.0978 8.91458L28.9273 10.638C29.1089 10.6149 29.2826 10.5502 29.4351 10.449V11.3571C29.2492 11.4321 29.0499 11.4687 28.8495 11.4646L28.7791 12.2429L28.4603 12.2132V10.3156L28.5937 8.74038C28.5444 8.74013 28.4969 8.72165 28.4603 8.68849V7.79526C28.526 7.84683 28.5968 7.89154 28.6716 7.92869L28.7791 6.81679C28.6678 6.8143 28.5579 6.84114 28.4603 6.89462V5.99397C28.582 5.96492 28.706 5.94632 28.8309 5.93838L28.8865 5.70117L29.3943 5.72712L29.3647 6.01992H29.4462V6.91315ZM28.4603 12.2095L28.2713 12.1836L28.3528 11.409C27.9791 11.3237 27.6456 11.1133 27.4077 10.8127C27.1698 10.5121 27.0416 10.1393 27.0445 9.75593H27.871C27.8678 9.93456 27.9198 10.1098 28.02 10.2578C28.1202 10.4057 28.2636 10.5191 28.4307 10.5824L28.4603 10.3156V12.2095ZM28.4603 8.68849C28.3087 8.64817 28.1638 8.58573 28.0304 8.50318L28.0044 8.47353C27.7166 8.31191 27.491 8.05887 27.3632 7.75449C27.2861 7.49376 27.291 7.21564 27.3772 6.95777C27.4634 6.6999 27.6267 6.47472 27.8451 6.31272C28.0347 6.17901 28.2417 6.07178 28.4603 5.99397V6.87238C27.9525 7.13924 28.1119 7.53952 28.4603 7.78044V8.68849Z" fill="white"/>
<path d="M16.8525 28.2775C16.6855 28.8957 16.6664 29.5446 16.7969 30.1715C16.9435 30.8371 17.3419 31.4201 17.9088 31.7986L17.6938 32.147C17.3533 31.9295 17.0614 31.6442 16.8362 31.3087C16.6111 30.9732 16.4577 30.5949 16.3855 30.1974C16.2701 29.5072 16.289 28.8012 16.4411 28.1182L16.8525 28.2775Z" fill="black"/>
<path d="M28.4311 25.1006C28.7276 25.4712 28.9648 25.9012 29.2872 26.2755C29.6097 26.6498 29.9803 26.9167 30.4325 26.7536L30.5659 27.1243C29.6875 27.4467 29.1278 26.7796 28.646 26.0828C28.4528 25.8471 28.2746 25.5995 28.1123 25.3415L28.4311 25.1006Z" fill="black"/>
<path d="M8.28299 28.303L8.31264 28.3289C9.24664 28.9442 9.32448 30.0375 9.00573 30.9975C8.82747 31.536 8.57818 32.0483 8.26446 32.5208C8.6678 32.9252 8.90005 33.4694 8.91307 34.0404C8.91216 34.7512 8.64809 35.4364 8.1718 35.964C7.68562 36.5026 7.06977 36.908 6.38278 37.1415C5.69579 37.375 4.96049 37.429 4.24677 37.2983C3.70857 37.2021 3.19467 37.0006 2.73458 36.7053C1.9369 36.116 1.29974 35.3361 0.8814 34.437C0.847458 34.3431 0.802678 34.2536 0.747971 34.1701C0.0263596 32.5412 -0.179292 30.7305 0.15866 28.9812C0.326152 28.0926 0.71144 27.2595 1.28001 26.5564C1.84858 25.8533 2.58268 25.3022 3.41655 24.9524C4.31685 24.5888 5.31396 24.5418 6.2445 24.819C6.64615 24.9151 7.0238 25.0927 7.35404 25.3407C7.68429 25.5887 7.9601 25.9018 8.16439 26.2608C8.32738 26.5735 8.42223 26.9171 8.44267 27.2692C8.46311 27.6212 8.40869 27.9735 8.28299 28.303Z" fill="black"/>
<path fill-rule="evenodd" clip-rule="evenodd" d="M7.72381 26.5162C7.85227 26.7619 7.92395 27.0333 7.93357 27.3105C7.9432 27.5876 7.89051 27.8633 7.7794 28.1174C5.80392 27.6615 3.96186 27.769 2.25323 29.0217L2.49414 29.3701C3.1643 28.849 3.95207 28.5003 4.78837 28.3546C5.54905 28.2313 6.32537 28.2414 7.08261 28.3842C7.46059 28.4506 7.81748 28.6056 8.12409 28.8364C8.73935 29.3182 9.0581 30.2782 7.83129 32.2796C6.04483 32.0127 4.3362 32.4649 2.761 33.1876L2.92037 33.5879C4.46963 32.9208 6.04483 32.476 7.73863 32.6539C9.12852 33.9586 8.19452 35.8006 6.56372 36.5493C5.41846 37.0571 3.5764 36.8421 2.74988 36.0675C0.722503 34.281 -0.0261809 30.8119 0.896702 28.2211C1.48231 26.5421 3.21688 25.1004 5.00705 25.1263C6.01518 25.1523 7.24569 25.5266 7.72381 26.5162Z" fill="#63B72F"/>
<path d="M19.1726 19.0967L19.2245 19.0707C19.5242 19.0647 19.8214 19.1262 20.094 19.2507C20.3667 19.3752 20.6079 19.5594 20.7997 19.7897C21.7596 20.8572 21.7893 22.5139 21.541 23.8186C21.4991 24.1593 21.4092 24.4925 21.2741 24.8082H21.3C21.4594 24.86 21.5928 24.886 21.7003 24.9156H21.7263L21.7003 25.3159H21.5928C21.4854 25.2863 21.3519 25.2344 21.2222 25.2084C20.1548 25.0194 18.5017 24.9675 17.5937 25.6606L17.3528 25.3419C17.5182 25.2231 17.6974 25.1247 17.8865 25.0491C17.5058 24.4581 17.2545 23.7933 17.1491 23.0983C17.0437 22.4033 17.0866 21.6938 17.2749 21.0165C17.2749 20.9906 17.3009 20.9647 17.3009 20.9387C17.5937 19.9232 18.3164 19.1782 19.1541 19.0855L19.1726 19.0967Z" fill="black"/>
<path fill-rule="evenodd" clip-rule="evenodd" d="M19.1978 19.578C20.2653 19.4705 20.8546 20.1896 21.1214 21.1495C21.4086 22.3451 21.3337 23.5991 20.9065 24.7521C20.436 24.7048 19.9625 24.6961 19.4906 24.7262C19.086 24.7392 18.6838 24.7926 18.2898 24.8855V24.9152C17.7301 24.1739 17.5707 23.151 17.5189 22.3504C17.4114 20.9383 18.1563 19.6818 19.1978 19.578Z" fill="white"/>
<path fill-rule="evenodd" clip-rule="evenodd" d="M19.4651 21.2044C19.9729 21.1488 20.425 21.6565 20.4806 22.3496C20.5362 23.0427 20.1582 23.658 19.6615 23.7321C19.1649 23.8062 18.7275 23.2503 18.6719 22.5572C18.6163 21.8641 18.9573 21.2562 19.4651 21.2044Z" fill="black"/>
<path d="M21.1441 21.1375C20.7635 20.6277 20.2146 20.2692 19.5949 20.1257C18.9018 20.0182 18.3162 20.4703 17.9418 21.03C17.7447 21.3556 17.5915 21.7058 17.4859 22.0715C17.4596 22.1194 17.421 22.1594 17.3741 22.1874C17.3272 22.2154 17.2737 22.2304 17.2191 22.2309C17.1396 22.1399 17.0848 22.0302 17.0597 21.9121C16.9891 21.5264 16.9977 21.1303 17.085 20.748C17.1723 20.3657 17.3364 20.0052 17.5675 19.6883C17.7806 19.4199 18.0549 19.2065 18.3675 19.0659C18.68 18.9253 19.0216 18.8616 19.3638 18.8801C19.7061 18.8986 20.0388 18.9988 20.3344 19.1723C20.6299 19.3458 20.8796 19.5875 21.0626 19.8773C21.2362 20.1344 21.3549 20.4247 21.411 20.7298C21.4369 20.8892 21.4369 21.2116 21.3554 21.2376C21.1997 21.2561 21.2553 21.2302 21.1441 21.1375Z" fill="black"/>
<path fill-rule="evenodd" clip-rule="evenodd" d="M21.1997 20.7677C21.0083 20.4836 20.7548 20.2466 20.4585 20.0746C20.074 19.8176 19.6084 19.711 19.1504 19.7753C18.6924 19.8395 18.2741 20.0701 17.9752 20.423C17.6016 20.8126 17.3515 21.3039 17.2562 21.8351C17.2021 21.1442 17.4113 20.4584 17.8418 19.9153C18.0601 19.605 18.3737 19.3746 18.7349 19.2588C19.0961 19.1431 19.4853 19.1485 19.8432 19.2741C20.1697 19.4007 20.4622 19.6016 20.6977 19.8609C20.9331 20.1201 21.105 20.4306 21.1997 20.7677Z" fill="#699547"/>
<path fill-rule="evenodd" clip-rule="evenodd" d="M20.0547 21.1785C20.24 21.1489 20.4253 21.3638 20.455 21.6307C20.4847 21.8976 20.3216 22.1644 20.1325 22.1904C19.9435 22.2163 19.7619 22.005 19.7323 21.7122C19.7026 21.4194 19.8657 21.1785 20.0547 21.1785Z" fill="white"/>
<path fill-rule="evenodd" clip-rule="evenodd" d="M16.6627 19.1772C16.3958 19.6293 16.2921 19.5774 16.2105 19.3625C16.1 19.1133 16.0143 18.8538 15.9548 18.5878C15.9151 18.4273 15.9335 18.258 16.0067 18.1097C16.7813 16.8792 19.209 16.1083 20.2505 17.5204C19.5534 17.362 18.8236 17.4387 18.1747 17.7383C17.5258 18.038 16.9942 18.5439 16.6627 19.1772Z" fill="black"/>
<path d="M24.8282 16.4797H24.8504C25.2363 16.461 25.6216 16.5254 25.9804 16.6687C26.3391 16.8119 26.6629 17.0306 26.9297 17.31C27.3898 17.8049 27.7119 18.412 27.8637 19.0705C28.0609 20.0711 28.0151 21.1045 27.7303 22.0837C27.6319 22.5994 27.4609 23.0986 27.2225 23.5663C27.4075 23.6403 27.586 23.7295 27.7562 23.8331L27.5968 24.1815C26.4219 23.5144 24.0499 23.2735 22.8749 24.1L22.7749 23.7331C22.8528 23.6558 22.9429 23.5919 23.0417 23.5441C22.7166 22.9707 22.4993 22.3426 22.4005 21.6909C22.3486 21.3684 22.293 20.9681 22.2671 20.579C22.1337 18.9148 22.8008 16.691 24.8282 16.4797Z" fill="black"/>
<path fill-rule="evenodd" clip-rule="evenodd" d="M24.8506 17.0616C26.1849 16.9281 27.3857 18.1735 27.5191 19.8339C27.597 20.8494 27.1967 22.7175 26.852 23.2252C25.7114 22.9629 24.5272 22.954 23.3829 23.1993C22.7935 22.1578 22.7935 21.3461 22.7157 20.3157C22.5897 18.6442 23.5496 17.1765 24.8506 17.0616Z" fill="white"/>
<path fill-rule="evenodd" clip-rule="evenodd" d="M25.5917 18.3468C26.2848 18.269 26.926 18.962 27.0076 19.896C27.0891 20.83 26.5813 21.6566 25.8957 21.7122C25.21 21.7677 24.591 21.0969 24.5095 20.1629C24.4279 19.2289 24.9098 18.4283 25.5917 18.3468Z" fill="black"/>
<path fill-rule="evenodd" clip-rule="evenodd" d="M21.7891 14.8369C23.2716 13.5026 25.4954 13.6917 27.5784 14.9185C27.9268 15.1297 28.0046 15.0779 28.0306 14.8369C28.0941 14.5296 28.1041 14.2137 28.0602 13.9029C28.0192 13.7267 27.9374 13.5625 27.8216 13.4235C27.7058 13.2845 27.559 13.1745 27.3931 13.1024C26.6478 12.6518 25.7763 12.4554 24.9098 12.5427C23.5755 12.7169 22.4006 13.3322 21.7891 14.8369Z" fill="black"/>
<path fill-rule="evenodd" clip-rule="evenodd" d="M26.2702 18.4803C26.5371 18.4543 26.778 18.7212 26.8039 19.0696C26.8299 19.418 26.6445 19.7367 26.3777 19.7627C26.1108 19.7886 25.8699 19.5217 25.844 19.1771C25.818 18.8324 26.0033 18.5099 26.2702 18.4803Z" fill="white"/>
<path d="M16.7185 29.7186C16.9408 29.8094 17.1737 29.8716 17.4116 29.9039C17.7705 29.99 18.1365 30.0434 18.505 30.0633C21.3589 30.3301 25.9177 30.1189 28.0044 27.9544C28.4621 27.5075 28.7459 26.9123 28.805 26.2754L29.3646 26.4607C29.327 27.1318 29.0661 27.7711 28.6234 28.2768C28.0637 29.878 27.7412 31.0788 27.1408 32.2797C26.3995 33.7993 25.2469 35.5079 23.2973 35.1336C22.1224 34.9223 20.9475 34.0217 19.9875 32.8912C19.2129 32.0647 18.4123 31.0788 17.7637 30.6229L17.256 30.5451C16.9753 30.4836 16.6992 30.4031 16.4294 30.3042L16.7185 29.7186Z" fill="black"/>
<path d="M23.8163 18.0291C23.2713 18.5597 22.8916 19.2368 22.723 19.9786C22.6933 20.112 22.6674 20.2714 22.508 20.2714C22.4672 20.2707 22.4276 20.2576 22.3945 20.2337C22.3613 20.2099 22.3363 20.1765 22.3227 20.138C22.2653 20.0691 22.2281 19.9857 22.2152 19.8971C21.9743 18.6962 22.4821 17.1469 23.5495 16.5095C24.1597 16.1607 24.8813 16.062 25.5628 16.2341C26.2443 16.4062 26.8325 16.8357 27.204 17.4323C27.4905 17.8665 27.6813 18.3567 27.7636 18.8704C27.5783 18.9779 27.3633 18.737 27.2596 18.5517C27.0363 18.1147 26.681 17.7593 26.244 17.5361H26.2181C25.8144 17.3684 25.3697 17.3257 24.9415 17.4136C24.5133 17.5015 24.1213 17.7159 23.8163 18.0291Z" fill="black"/>
<path fill-rule="evenodd" clip-rule="evenodd" d="M22.4561 19.8966C22.5207 19.3453 22.7198 18.8184 23.0358 18.3621C23.3518 17.9058 23.7751 17.5342 24.2685 17.2799C24.6087 17.1072 24.9858 17.0196 25.3673 17.0248C25.7489 17.03 26.1235 17.1277 26.4589 17.3095C26.9197 17.542 27.2939 17.9162 27.5264 18.377C27.3146 17.8404 26.9641 17.3698 26.5108 17.013C26.0427 16.6602 25.4655 16.4832 24.88 16.513C24.2946 16.5428 23.7383 16.7775 23.3085 17.1761C22.6265 17.8952 22.4561 18.9626 22.4561 19.8966Z" fill="#699547"/>
<path d="M31.6623 23.2585L28.5119 23.1807C28.4304 22.7507 28.3785 22.2986 28.271 21.9242C28.7788 21.3386 29.3829 20.6715 29.8721 20.071C30.1946 19.7004 30.5133 19.2964 30.8061 18.8961C30.7306 18.798 30.6944 18.6752 30.7046 18.5518C30.7149 18.4284 30.771 18.3132 30.8617 18.229C31.7401 17.0281 32.7149 15.8273 33.8268 14.5745C34.9387 13.3218 36.0692 12.0134 37.3738 10.5717L37.6407 10.4382C38.6303 10.3863 39.5902 10.3567 40.5502 10.3307C43.1668 10.2529 45.6464 10.1714 48.3335 9.55611C48.8563 9.44331 49.3723 9.30101 49.879 9.12988V9.15583C50.7871 10.3048 51.773 11.3982 52.707 12.5471C53.4483 13.4552 54.1895 14.3596 55.0049 15.2417C56.6061 17.0281 58.2591 18.7368 60.0196 20.3638L58.7113 21.8464L55.4831 21.3127L55.724 31.4273L40.754 34.6296C40.1387 34.7112 40.1943 34.3109 40.2722 34.9224L33.4488 34.1737C33.2338 30.5971 33.004 26.7833 31.6623 23.2585Z" fill="black"/>
<path fill-rule="evenodd" clip-rule="evenodd" d="M32.0632 23.2578C33.6347 27.0754 33.4754 30.1961 33.8238 33.7727L40.3062 34.4807L40.4692 33.4688L39.4278 23.5395L32.0632 23.2578Z" fill="#B28D68"/>
<path fill-rule="evenodd" clip-rule="evenodd" d="M39.854 23.5249C40.2543 26.9421 40.6805 30.8894 40.8955 34.1473C44.9502 33.3726 50.4468 32.1718 55.3058 31.0228C55.1983 26.8087 55.1168 22.5649 55.0649 18.3471C54.6127 17.8949 54.1828 17.4427 53.7825 16.9868C52.4223 15.5451 51.1436 14.0218 49.9131 12.5059C48.5009 14.4665 47.0888 16.2678 45.6063 18.0024C44.057 19.6295 41.7368 22.2462 40.1357 23.5619L39.854 23.5249Z" fill="#E6CCAC"/>
<path d="M52.4775 20.4297C52.611 24.136 52.7147 27.8202 52.9038 31.5488L48.2004 32.3864L47.3442 20.615C49.1678 20.9375 50.6874 21.1784 52.4775 20.4297Z" fill="black"/>
<path fill-rule="evenodd" clip-rule="evenodd" d="M47.752 21.0454C49.3272 21.3123 50.7689 21.4716 52.1292 20.9639C52.2626 24.3811 52.396 27.7947 52.5294 31.2379L48.5711 31.9569L47.752 21.0454Z" fill="#8A5024"/>
<path d="M46.3918 21.7646L46.7661 26.7275L42.5742 27.2871L42.2036 22.5652L46.3918 21.7646Z" fill="black"/>
<path fill-rule="evenodd" clip-rule="evenodd" d="M46.0728 26.5938C46.0431 26.4863 46.0728 26.3529 46.0431 26.2231L45.7763 22.4352L42.6407 23.0468L42.4813 23.0727L42.4517 22.7503L46.2173 22.0312L46.5361 26.5419L46.0728 26.5938Z" fill="white"/>
<path fill-rule="evenodd" clip-rule="evenodd" d="M39.1604 22.0312H28.6714L28.8308 22.9134L39.7719 23.1506L39.1604 22.0312Z" fill="white"/>
<path fill-rule="evenodd" clip-rule="evenodd" d="M29.0459 21.6577L39.079 21.6836C39.5868 21.2055 40.0945 20.7237 40.5615 20.2455L38.1079 19.9787L41.1768 19.608C42.2689 18.5134 43.3092 17.3657 44.2976 16.1648C45.0388 15.2827 45.7801 14.3487 46.5214 13.4147L44.7349 13.1219L46.9587 12.8551C47.1996 12.5363 47.4146 12.2435 47.6518 11.947C48.1077 11.228 48.5339 10.5089 48.9861 9.8418C45.0388 10.8017 41.6772 10.6424 37.6743 10.8536C35.1095 13.6816 32.9746 16.113 31.1882 18.4591C31.0807 18.6184 31.2697 18.7519 31.2957 18.8853C31.3216 19.0187 31.2141 19.0743 31.1622 19.1522L33.323 19.1003L30.6804 19.7674C30.1652 20.3975 29.6315 21.0165 29.0459 21.6577Z" fill="#C53629"/>
<path fill-rule="evenodd" clip-rule="evenodd" d="M39.4275 21.8457L40.1206 23.0984C43.78 19.7347 47.0554 15.9757 49.8868 11.8904C52.5386 15.2845 55.4855 18.4374 58.6931 21.312L59.5196 20.3965C57.2282 18.2727 55.08 15.9994 53.0891 13.5916C51.9772 12.2574 50.6874 10.949 49.7015 9.51465C49.5835 9.8129 49.4211 10.0916 49.2197 10.3412C46.3672 14.5081 43.0851 18.3641 39.4275 21.8457Z" fill="white"/>
<path d="M32.0629 10.9045C31.9814 10.4227 31.8999 9.94086 31.822 9.48869C33.2638 9.19589 34.8093 9.00686 36.2252 8.55469C37.4779 8.68812 38.7863 8.76966 40.039 8.87343C40.0002 10.6043 40.2163 12.3314 40.6802 13.9993L37.8782 17.4314C36.2252 17.5352 34.5684 17.5908 32.9154 17.6686C32.8339 16.8421 32.756 16.0156 32.6485 15.1891C32.567 14.4663 32.4892 13.7473 32.3817 13.0283C32.3628 12.8894 32.3915 12.7483 32.4632 12.628C32.5068 12.5799 32.5419 12.5248 32.567 12.4649C32.567 12.4389 32.5411 12.4649 32.5151 12.4389C32.1148 12.0757 32.1408 11.4086 32.0629 10.9045Z" fill="black"/>
<path fill-rule="evenodd" clip-rule="evenodd" d="M32.2224 9.72977C32.3558 10.471 32.4893 11.2123 32.593 11.9981C32.619 12.1574 32.9118 12.2649 32.9377 12.4243C32.9637 12.5837 32.6968 12.8246 32.7265 12.984C32.9377 14.4665 33.0971 15.8934 33.2305 17.3612L37.4743 17.1462L37.2668 15.5784C36.9184 13.3879 36.2253 9.49257 36.1549 9.01074C34.891 9.38138 33.3417 9.48886 32.2224 9.72977Z" fill="#B28D68"/>
<path fill-rule="evenodd" clip-rule="evenodd" d="M37.6666 17.1461L40.3871 13.9179C40.0387 12.4353 39.668 10.9306 39.7459 9.17005L36.4917 8.95508L37.6666 17.1461Z" fill="#DDC9A9"/>
<path d="M36.359 12.1574C36.4631 12.0671 36.5926 12.0114 36.7297 11.998H36.8335C36.9669 13.4102 37.2634 14.826 37.4487 16.2418C37.3672 16.1862 37.3153 16.1343 37.2634 16.1084C37.1559 16.0528 37.0484 16.0528 36.9409 16.0009C36.7692 15.9536 36.6132 15.8615 36.4888 15.7341C36.4157 15.6707 36.3347 15.6171 36.2479 15.5747V15.545C36.2002 15.5249 36.1554 15.4987 36.1144 15.4672C35.8995 15.3597 35.8995 15.3338 35.8735 14.9335C35.8476 14.7741 35.4213 14.7445 34.9395 14.6926C34.4577 14.6407 33.9796 14.6407 33.7646 14.4257L33.7387 14.3998L33.6052 14.2663L33.7942 14.2107C33.8813 14.1401 33.9608 14.0606 34.0315 13.9735C34.4771 13.5243 34.9748 13.1299 35.514 12.7986C35.5918 12.6911 35.8846 12.2908 36.0477 12.2649C36.1576 12.2499 36.2634 12.2134 36.359 12.1574Z" fill="black"/>
<path fill-rule="evenodd" clip-rule="evenodd" d="M36.6255 12.2422C36.5699 12.2681 36.518 12.32 36.4661 12.346C36.3524 12.4142 36.2265 12.4595 36.0955 12.4794C36.0695 12.509 36.0695 12.509 36.0399 12.509V13.4653L36.7811 13.3578C36.7293 12.9316 36.6737 12.5572 36.6218 12.2459L36.6255 12.2422ZM36.0362 14.5624V13.6765L36.8367 13.5728L36.9442 14.314L36.9702 14.3956L36.0362 14.555V14.5624ZM36.0658 14.8033C36.087 14.8349 36.0962 14.873 36.0918 14.9108C36.1177 15.2036 36.1177 15.2295 36.2252 15.2814L36.3586 15.3629C36.463 15.4248 36.5611 15.4968 36.6514 15.5779C36.7485 15.6758 36.8681 15.7484 36.9998 15.7892L37.0258 15.8151C37.0517 15.8151 37.1036 15.8448 37.1332 15.8448L37.1851 15.8707V15.8448C37.1332 15.4964 37.0777 15.0701 36.9998 14.6143L36.0658 14.8033ZM36.0362 12.509C35.9152 12.6395 35.8083 12.7823 35.7174 12.9353L35.6655 12.9872H35.6359C35.3224 13.1711 35.0282 13.3859 34.7575 13.6284L36.0362 13.469V12.5053V12.509ZM36.0362 13.6803V14.5624L35.7693 14.6143C35.6324 14.561 35.4891 14.5262 35.3431 14.5105L35.3171 13.7692L36.0362 13.6877V13.6803ZM34.4906 13.8693C34.3312 14.0287 34.1682 14.188 34.0088 14.3215C34.3172 14.4294 34.642 14.4833 34.9687 14.4808L35.1022 14.5105L35.0762 13.7692L34.4906 13.8693Z" fill="#999999"/>
<path d="M34.8355 26.2754C35.0679 26.4851 35.259 26.7365 35.3988 27.0167L36.811 27.0982L36.8925 27.1241L37.2928 27.5504L38.1193 27.8172L38.5455 27.9247L38.3343 28.0322L36.9444 28.8328L36.1438 29.448V29.474C36.1179 29.4999 36.066 29.5259 36.0363 29.5518V29.5259C36.0104 29.5518 35.9585 29.5815 35.9326 29.6074C35.4791 29.8514 34.9536 29.9262 34.45 29.8187C34.1248 29.7897 33.7972 29.8263 33.4864 29.9262L33.3529 30.0077C33.259 28.9401 33.0993 27.8793 32.8748 26.8313L32.8489 26.6979C33.5237 26.6248 34.1893 26.4832 34.8355 26.2754Z" fill="black"/>
<path fill-rule="evenodd" clip-rule="evenodd" d="M35.228 29.6104V28.6505C35.3687 28.6155 35.513 28.5969 35.658 28.5949C36.1917 28.517 36.6957 28.4614 37.2294 28.4096L36.8848 28.5949C36.7821 28.6593 36.6842 28.7312 36.592 28.8098L36.0101 29.2917L35.9322 29.3732C35.8918 29.3787 35.8542 29.3969 35.8247 29.4251C35.6406 29.5168 35.4405 29.5722 35.2354 29.5882V29.6141L35.228 29.6104ZM35.228 28.4355L35.6283 28.354L35.5986 27.394L35.228 27.4385V28.4244V28.4355ZM35.228 27.2087V27.1827L35.2577 27.2087H35.228ZM37.7113 28.1427L37.9781 27.9833L37.1516 27.7165L36.7513 27.3162L36.162 27.2865L35.8173 27.3421L35.8433 28.328C36.4919 28.2502 37.1034 28.1798 37.7187 28.1427H37.7113ZM33.7603 27.4014L34.2421 27.3495L34.1902 26.6564C34.0445 26.6817 33.9008 26.7176 33.7603 26.7639V27.4385V27.4014ZM35.2428 27.1642V27.1902L34.4719 27.3236L34.4423 26.6008C34.5723 26.5542 34.7062 26.5194 34.8426 26.4971C35.0063 26.6998 35.141 26.9243 35.2428 27.1642ZM35.2428 27.4311V28.417C34.7647 28.4689 34.2829 28.5504 33.7603 28.6319V27.6609L35.2428 27.4496V27.4311ZM35.2428 28.6319C35.1094 28.6579 34.976 28.6579 34.8426 28.6838L34.8981 29.5919H35.228V28.6505L35.2428 28.6319ZM33.7603 29.5919V28.8506C34.0568 28.7987 34.3237 28.7468 34.6165 28.7172L34.6684 29.5733C34.357 29.6104 34.0642 29.5845 33.7677 29.6104L33.7603 29.5919ZM33.1228 26.8974C33.1778 27.09 33.2223 27.2855 33.2562 27.483L33.7603 27.4014V26.7825C33.5451 26.8127 33.3321 26.8573 33.1228 26.9159V26.8974ZM33.7603 27.6386V28.6282L33.4415 28.7061C33.3897 28.3614 33.3341 28.0389 33.2822 27.6942L33.7603 27.6386ZM33.7603 28.8654V29.6067C33.6925 29.6333 33.6214 29.6507 33.549 29.6586C33.5231 29.4473 33.4934 29.2324 33.4675 29.0174L33.4415 28.9396C33.5564 28.921 33.6639 28.921 33.7677 28.8877L33.7603 28.8654Z" fill="#999999"/>
<path fill-rule="evenodd" clip-rule="evenodd" d="M48.9013 26.435C49.0867 26.4091 49.246 26.5944 49.272 26.8613C49.2979 27.1281 49.1386 27.3431 48.9495 27.3431C48.7605 27.3431 48.6048 27.1837 48.5789 26.9169C48.553 26.65 48.6864 26.435 48.9013 26.435Z" fill="black"/>
<path d="M47.5404 26.8862L47.0067 28.2761L46.7399 28.4095L40.9209 24.0582L40.8394 23.7135L41.7734 22.3496C43.697 23.9248 45.6057 25.4185 47.5404 26.8862Z" fill="black"/>
<path fill-rule="evenodd" clip-rule="evenodd" d="M41.8292 22.6465L47.2183 26.994L46.7921 28.0874L41.0806 23.7658L41.8292 22.6465Z" fill="#B28D68"/>
<path fill-rule="evenodd" clip-rule="evenodd" d="M41.8294 23.2845C41.9628 23.2586 42.0703 23.392 42.0703 23.5254C42.0703 23.6589 41.9888 23.8182 41.8813 23.8182C41.7738 23.8182 41.67 23.7144 41.6404 23.581C41.6107 23.4476 41.7219 23.2845 41.8294 23.2845Z" fill="#0A0B0C"/>
<path fill-rule="evenodd" clip-rule="evenodd" d="M46.5512 26.8086C46.613 26.8201 46.6687 26.8533 46.7081 26.9022C46.7475 26.9512 46.7681 27.0126 46.7662 27.0754C46.7921 27.2348 46.7106 27.3683 46.5772 27.3683C46.4437 27.3683 46.3659 27.2608 46.3659 27.1014C46.3588 27.07 46.358 27.0375 46.3634 27.0058C46.3689 26.9741 46.3806 26.9437 46.3978 26.9165C46.415 26.8893 46.4374 26.8658 46.4637 26.8473C46.4901 26.8287 46.5198 26.8156 46.5512 26.8086Z" fill="#0A0B0C"/>
<path d="M44.6575 31.823C44.7657 31.5822 44.9422 31.3786 45.1653 31.2374C45.3625 31.1385 45.5825 31.0939 45.8027 31.1082C46.0229 31.1225 46.2353 31.1953 46.418 31.319C46.444 31.3449 46.4736 31.3709 46.4996 31.3709C46.8326 31.5803 47.1221 31.8522 47.352 32.1714C47.4165 32.2741 47.4883 32.372 47.567 32.4642C47.7373 32.727 47.8625 33.0164 47.9376 33.3204C48.2017 34.0094 48.2572 34.7609 48.097 35.4812C48.0113 35.857 47.8675 36.2172 47.6708 36.5486C47.1074 37.5345 45.9881 38.5501 43.8013 38.9504C42.8061 39.1401 41.7856 39.1576 40.7844 39.0022C40.6496 38.9977 40.5156 38.9804 40.3841 38.9504C37.9564 38.5501 35.2322 37.3752 32.4858 35.3737L32.5933 31.0225C33.0714 31.3709 33.3939 31.6637 33.6052 31.7971L33.7645 33.8245L40.1209 34.4805C40.119 34.2288 40.1829 33.9809 40.3062 33.7615C40.4766 33.519 40.7057 33.3238 40.9722 33.1941C41.2386 33.0645 41.5337 33.0046 41.8296 33.0202C41.9085 32.6822 42.0589 32.365 42.2706 32.0899C42.4234 31.903 42.6173 31.7539 42.8372 31.6543C43.057 31.5546 43.2969 31.5071 43.5382 31.5154C43.931 31.5241 44.3155 31.6298 44.6575 31.823Z" fill="black"/>
<path fill-rule="evenodd" clip-rule="evenodd" d="M18.4793 30.7299C19.2539 31.2896 19.758 32.3311 20.9885 33.3466C22.2932 34.4585 24.5911 35.6409 26.3776 32.5201C27.0148 31.2879 27.5852 30.0222 28.0862 28.7285C26.7778 29.8404 25.0692 30.2778 23.4421 30.5446C21.7933 30.8124 20.1176 30.8746 18.4534 30.7299H18.4793Z" fill="white"/>
<path fill-rule="evenodd" clip-rule="evenodd" d="M32.7002 34.9993C34.3953 36.2846 36.288 37.286 38.3042 37.9644C39.9408 38.5705 41.7038 38.7541 43.4301 38.4981H43.456C44.6828 38.3128 45.9912 37.831 46.8177 36.871C46.9806 36.7074 47.1158 36.5184 47.218 36.3114C47.5294 35.7579 47.684 35.13 47.6651 34.4952C47.6461 33.8604 47.4544 33.2427 47.1105 32.7088C47.0221 32.5783 46.9242 32.4544 46.8177 32.3382C46.6416 32.1025 46.4132 31.9109 46.1506 31.7785C46.0004 31.6771 45.824 31.6217 45.6428 31.6191C45.5068 31.6486 45.381 31.7135 45.2782 31.8072C45.1753 31.9009 45.0991 32.0202 45.0572 32.1529C45.5827 32.6051 45.9684 33.1978 46.1691 33.8615C46.3381 34.3106 46.3852 34.7964 46.3058 35.2696C46.2264 35.7429 46.0232 36.1867 45.7169 36.556L45.3685 36.2076C45.603 35.9002 45.7556 35.5383 45.812 35.1559C45.8684 34.7734 45.8268 34.3828 45.691 34.0209C45.519 33.4378 45.1739 32.9208 44.7014 32.5383C44.5374 32.3837 44.3481 32.2583 44.1417 32.1677C43.9067 32.0507 43.6407 32.0111 43.3818 32.0543C43.1228 32.0976 42.8842 32.2216 42.6999 32.4086C42.5376 32.6031 42.4199 32.8308 42.3553 33.0757C42.4627 33.1017 42.5665 33.1536 42.6481 33.1795C43.9008 33.7688 44.542 36.2484 43.5005 37.238L43.1818 36.8673C43.8489 36.2261 43.4227 34.0913 42.4405 33.6651C42.2381 33.5797 42.0208 33.5358 41.8012 33.5358C41.5815 33.5358 41.3642 33.5797 41.1618 33.6651C40.9857 33.7429 40.8371 33.872 40.7356 34.0357C40.4687 34.4879 40.7059 34.9697 41.0284 35.344C41.19 35.4992 41.2977 35.7019 41.3357 35.9227C41.3737 36.1435 41.34 36.3706 41.2396 36.5708C40.9218 36.9736 40.4965 37.2781 40.0128 37.4492C39.9609 37.3974 39.746 37.1305 39.6422 37.023C40.0437 36.8967 40.4095 36.6769 40.7096 36.3818C40.7542 36.3315 40.7882 36.2729 40.8097 36.2092C40.8312 36.1456 40.8398 36.0784 40.835 36.0114C40.8302 35.9444 40.812 35.879 40.7816 35.8192C40.7511 35.7593 40.709 35.7061 40.6577 35.6628C40.6084 35.6335 40.5634 35.5973 40.5243 35.5553C40.4374 35.4979 40.3722 35.4131 40.339 35.3144C40.2581 35.1839 40.2028 35.0393 40.1759 34.8881L33.4489 34.1728L33.2339 32.012L32.7558 31.6414L32.7002 34.9993Z" fill="#63B72F"/>
<path fill-rule="evenodd" clip-rule="evenodd" d="M12.6862 1.75027C12.6044 1.83486 12.541 1.93554 12.5002 2.04593C12.4593 2.15631 12.4419 2.27398 12.449 2.39147C12.4356 2.54613 12.4547 2.70188 12.5051 2.8487C12.5556 2.99552 12.6362 3.13015 12.7418 3.24393C13.1421 3.72575 13.887 4.1001 14.8766 4.35584C15.6225 4.54196 16.3804 4.67572 17.1449 4.75612L18.053 0.84221C17.1779 0.586042 16.2644 0.48691 15.3548 0.549408C14.3429 0.587278 13.3856 1.01805 12.6862 1.75027Z" fill="#699547"/>
<path fill-rule="evenodd" clip-rule="evenodd" d="M55.4909 20.99L55.439 18.7217C56.3463 19.7114 57.3277 20.6308 58.3744 21.4718C57.4029 21.3808 56.4392 21.2198 55.4909 20.99Z" fill="#B28D68"/>
<path d="M63.7085 27.9651V25.4869H65.6273V15.7636H63.7085V13.3457H71.0827L74.3009 21.8902L77.5276 13.3457H85.0223V15.7636H83.1637V25.4869H85.0223V27.9651H77.6481V25.4869H79.4465V15.7636H79.0765L74.5504 27.9651H72.9413L68.355 15.7636H67.985V25.4869H69.9039V27.9651H63.7085Z" fill="black"/>
<path d="M93.1969 25.6072V27.9649H86.012V25.6072H87.8706V20.1604H86.1496V17.7425H90.865V20.3239C91.0728 19.5577 91.53 18.8825 92.1643 18.4051C92.7992 17.8594 93.6166 17.5736 94.4532 17.6049H94.9523V20.7026C94.281 20.6735 93.6095 20.7549 92.9646 20.9435C92.6769 21.0539 92.4139 21.2203 92.1909 21.433C91.9679 21.6456 91.7892 21.9004 91.6653 22.1826C91.3303 22.8556 91.1621 23.5993 91.1748 24.3509V25.59L93.1969 25.6072Z" fill="black"/>
<path d="M108.565 13.3454H111.034V18.5083H108.565C107.885 16.6496 106.646 15.7203 104.908 15.7203C104.289 15.6841 103.672 15.8019 103.11 16.0632C102.548 16.3245 102.06 16.7212 101.69 17.2175C100.931 18.2018 100.536 19.4176 100.571 20.6594C100.509 21.9153 100.931 23.1471 101.75 24.1013C102.111 24.5355 102.566 24.8831 103.08 25.1184C103.593 25.3537 104.153 25.4707 104.718 25.4609C105.197 25.4703 105.673 25.3821 106.117 25.2016C106.561 25.0212 106.963 24.7522 107.3 24.4111C108.101 23.6711 108.643 22.6941 108.849 21.6231L111.697 23.0429C110.638 26.4848 108.255 28.1283 104.443 28.1283C101.862 28.1283 99.8653 27.4399 98.4972 26.0202C97.1699 24.5422 96.4614 22.6107 96.5181 20.625C96.4688 19.1901 96.8332 17.7713 97.5679 16.5378C98.2264 15.4245 99.1952 14.5275 100.356 13.9564C101.558 13.3867 102.872 13.0927 104.202 13.0959C105.781 13.024 107.336 13.5048 108.599 14.4554L108.565 13.3454Z" fill="#63B72F"/>
<path d="M124.302 25.6063V27.964H119.406V27.1552C118.911 27.5681 118.319 27.8467 117.685 27.964V26.0452C118.33 25.8582 118.92 25.5188 119.406 25.0556V24.1952C118.891 23.8419 118.303 23.6095 117.685 23.5154V21.5191C118.27 21.6443 118.845 21.811 119.406 22.0182V21.3986C119.412 20.9176 119.234 20.4524 118.907 20.0993C118.571 19.8217 118.161 19.6482 117.728 19.6003V17.4921H117.917C118.758 17.4732 119.597 17.5983 120.396 17.8621C120.944 18.0079 121.439 18.3063 121.824 18.7226C122.143 19.0308 122.377 19.4161 122.504 19.8412C122.648 20.5109 122.709 21.1959 122.684 21.8805V25.5977L124.302 25.6063ZM117.728 27.964C117.37 28.0853 116.996 28.1492 116.618 28.1533C115.687 28.1533 114.781 27.8514 114.037 27.2929C113.679 27.0195 113.39 26.6663 113.193 26.2614C112.995 25.8566 112.895 25.4113 112.901 24.961C112.899 24.4946 113.005 24.0341 113.209 23.6148C113.413 23.1956 113.711 22.8289 114.08 22.5431C114.907 21.8378 115.971 21.472 117.057 21.5191H117.737V23.5068C117.714 23.4814 117.686 23.4619 117.655 23.4499C117.623 23.4379 117.589 23.4338 117.556 23.4379C117.171 23.4421 116.798 23.5754 116.498 23.8166C116.346 23.9154 116.225 24.055 116.149 24.2193C116.073 24.3837 116.045 24.5662 116.067 24.7459C116.062 24.9178 116.092 25.0891 116.156 25.2489C116.22 25.4088 116.315 25.5539 116.437 25.6752C116.547 25.8157 116.688 25.928 116.85 26.0029C117.012 26.0777 117.189 26.1129 117.367 26.1054C117.493 26.1156 117.62 26.0949 117.737 26.0452V27.964H117.728ZM117.728 19.6003H117.487C117.137 19.5871 116.787 19.653 116.466 19.793C116.144 19.933 115.858 20.1436 115.629 20.4091L112.961 19.91C113.701 18.3612 115.319 17.5523 117.728 17.4921V19.6003Z" fill="#63B72F"/>
<path d="M125.662 27.9645V24.5226H128.08C128.08 24.7452 128.137 24.9642 128.245 25.1585C128.353 25.3529 128.51 25.5161 128.7 25.6326C129.155 25.9436 129.698 26.0977 130.249 26.0714C130.701 26.0839 131.15 25.9771 131.548 25.7616C131.67 25.692 131.772 25.5936 131.847 25.4751C131.922 25.3567 131.967 25.2217 131.978 25.0819C131.982 24.9462 131.942 24.813 131.865 24.7016C131.787 24.5901 131.676 24.5063 131.548 24.4623C131.045 24.2139 130.498 24.0649 129.939 24.0235C128.658 23.9046 127.424 23.4797 126.342 22.7844C126.004 22.5356 125.732 22.2081 125.549 21.8302C125.366 21.4524 125.278 21.0356 125.292 20.616C125.286 20.2125 125.372 19.8128 125.543 19.4475C125.715 19.0821 125.967 18.7607 126.282 18.5079C127.087 17.9146 128.07 17.6113 129.07 17.6474C129.954 17.6436 130.83 17.8102 131.651 18.1379V17.7679H134.009V20.7451H131.608C131.427 20.0567 130.679 19.6867 129.38 19.6867C128.45 19.6867 127.951 19.9363 127.951 20.4956C127.951 20.6763 128.08 20.8053 128.261 20.9258C128.733 21.1308 129.236 21.2558 129.75 21.2958C130.711 21.4404 131.663 21.6473 132.598 21.9154C133.189 22.1412 133.705 22.5288 134.086 23.034C134.443 23.5634 134.619 24.1946 134.585 24.8324C134.601 25.2914 134.521 25.7486 134.35 26.1752C134.18 26.6017 133.923 26.9883 133.596 27.3105C132.727 27.9729 131.649 28.3025 130.558 28.2398C130.116 28.2961 129.667 28.2585 129.24 28.1295C128.813 28.0005 128.418 27.783 128.08 27.4912V27.9903L125.662 27.9645Z" fill="#63B72F"/>
<path d="M135.764 27.9651V25.6074H137.373V15.6346H135.764V13.3457H140.591V18.6118C141.426 17.9495 142.444 17.5592 143.508 17.4932C145.608 17.4932 146.666 18.7925 146.666 21.2706V25.573H148.155V27.9307H143.379V21.4255C143.43 21.0756 143.341 20.7197 143.13 20.436C143.034 20.336 142.919 20.2568 142.792 20.2035C142.665 20.1502 142.528 20.1239 142.39 20.1262C141.74 20.1879 141.119 20.4227 140.591 20.806V25.573H142.08V27.9307L135.764 27.9651Z" fill="#63B72F"/>
<path d="M156.389 13.3452C157.306 13.3062 158.223 13.3901 159.117 13.5948C159.89 13.7507 160.576 14.1934 161.036 14.8339C161.555 15.5182 161.825 16.3589 161.802 17.2174C161.83 17.8686 161.645 18.5114 161.276 19.0485C160.906 19.5856 160.372 19.9879 159.754 20.1946C161.475 20.8744 162.421 22.0532 162.421 23.7225C162.441 24.6251 162.136 25.5047 161.561 26.2007C161.056 26.918 160.306 27.4259 159.453 27.6291C158.466 27.9108 157.441 28.0357 156.415 27.9991V25.5209C156.941 25.5156 157.456 25.3668 157.904 25.0907C158.11 24.9058 158.268 24.674 158.366 24.4148C158.463 24.1557 158.497 23.8769 158.463 23.602C158.5 23.3125 158.462 23.0185 158.354 22.7475C158.245 22.4766 158.07 22.2377 157.844 22.0532C157.415 21.7816 156.922 21.6301 156.415 21.6144V19.076C156.792 19.0916 157.164 18.9828 157.474 18.7662C157.669 18.6018 157.822 18.3919 157.918 18.1549C158.014 17.9179 158.051 17.661 158.024 17.4067C158.041 17.1765 158.006 16.9455 157.921 16.731C157.836 16.5164 157.704 16.3238 157.534 16.1676C157.182 15.9998 156.803 15.895 156.415 15.8578L156.389 13.3452ZM149.144 27.9732V25.4951H150.943V15.7718H149.144V13.3452H156.389V15.8234C156.14 15.8234 155.959 15.7632 155.71 15.7632H154.78V19.1018H155.83C156.019 19.1125 156.208 19.0922 156.389 19.0416V21.58H154.78V25.4865H156.389V27.9646H149.144V27.9732Z" fill="black"/>
<path d="M176.215 25.6073V27.965H171.319V27.1045C170.47 27.7687 169.428 28.14 168.35 28.1629C167.928 28.1895 167.505 28.1257 167.109 27.9759C166.713 27.8261 166.354 27.5936 166.055 27.2939C165.756 26.9943 165.525 26.6344 165.376 26.2382C165.227 25.842 165.164 25.4186 165.192 24.9964V20.1691H163.704V17.7512H168.471V24.1015C168.424 24.4701 168.512 24.8432 168.72 25.1513C168.841 25.3406 169.15 25.4008 169.529 25.4008C170.18 25.3568 170.803 25.1202 171.319 24.721V20.1347H169.77V17.7168H174.606V25.5815L176.215 25.6073Z" fill="black"/>
<path d="M179.192 32.6111V30.2534H181.171L181.851 28.4034L178.134 20.1601H176.654V17.7422H182.78V20.1601H181.61L183.279 24.7464L185.078 20.1601H183.779V17.7422H189.105V20.1601H187.676L182.78 32.6111H179.192Z" fill="black"/>
<path d="M197.279 24.9625L199.861 25.7713C199.323 26.5818 198.583 27.2372 197.713 27.672C196.844 28.1069 195.875 28.306 194.904 28.2495H194.595V26.0811C194.715 26.1294 194.844 26.15 194.973 26.1413C195.879 26.0647 196.72 25.6426 197.322 24.9625H197.279ZM194.552 17.528H194.681C195.747 17.4924 196.794 17.8201 197.649 18.4573C198.475 18.9578 199.108 19.7216 199.448 20.6257C199.784 21.582 199.953 22.5892 199.947 23.6029H194.552V21.7443H196.66C196.603 21.2045 196.363 20.7004 195.98 20.3159C195.802 20.1137 195.582 19.9532 195.335 19.8461C195.088 19.739 194.821 19.6879 194.552 19.6964V17.528ZM194.552 28.2495C193.121 28.2682 191.733 27.7597 190.654 26.8211C190.147 26.3464 189.747 25.7696 189.48 25.1288C189.213 24.488 189.085 23.7978 189.105 23.1039C189.088 22.3679 189.222 21.6363 189.499 20.9541C189.776 20.2719 190.189 19.6535 190.714 19.1371C191.213 18.6251 191.81 18.2187 192.469 17.9423C193.128 17.6658 193.837 17.5249 194.552 17.528V19.6964H194.5C193.321 19.6964 192.581 20.3762 192.392 21.7443H194.56V23.6029H192.332C192.327 23.9815 192.409 24.3562 192.57 24.6989C192.731 25.0416 192.967 25.3435 193.261 25.582C193.648 25.8487 194.094 26.0197 194.56 26.0811L194.552 28.2495Z" fill="black"/>
<path d="M208.268 25.6072V27.9649H201.074V25.6072H202.933V20.1604H201.212V17.7425H205.918V20.3239C206.129 19.5743 206.561 18.9056 207.158 18.4051C207.819 17.8585 208.658 17.5738 209.515 17.6048H209.988V20.7025C209.32 20.6735 208.651 20.7549 208.009 20.9435C207.721 21.0526 207.457 21.2185 207.234 21.4314C207.011 21.6442 206.833 21.8996 206.71 22.1825C206.341 22.8431 206.168 23.5954 206.211 24.3509V25.59L208.268 25.6072Z" fill="black"/>
<path d="M169.4 37.1373V36.4489H169.461C169.721 36.446 169.976 36.3842 170.209 36.2682C170.388 36.1002 170.516 35.8856 170.579 35.6487H171.319C171.231 36.0874 170.99 36.4807 170.639 36.7587C170.281 37.0222 169.844 37.1557 169.4 37.1373ZM169.4 35.0291V34.4268H170.639C170.614 34.0962 170.508 33.777 170.33 33.4975C170.212 33.3705 170.068 33.2713 169.907 33.2073C169.746 33.1433 169.573 33.116 169.4 33.1275V32.4391H169.461C169.73 32.4294 169.998 32.48 170.245 32.5871C170.492 32.6943 170.712 32.8554 170.889 33.0586C171.224 33.5695 171.397 34.169 171.388 34.7796V35.0291H169.4ZM172.378 37.0082V32.551H173.118V33.291C173.178 33.1705 173.247 33.1103 173.307 32.9812C173.425 32.8111 173.581 32.6717 173.764 32.5744C173.947 32.4771 174.15 32.4248 174.357 32.4219C174.391 32.4178 174.427 32.4218 174.459 32.4338C174.492 32.4458 174.522 32.4653 174.546 32.4907V33.2307H174.417C174.244 33.214 174.069 33.2388 173.907 33.3032C173.746 33.3675 173.602 33.4695 173.488 33.6007C173.362 33.7318 173.264 33.8871 173.2 34.0573C173.137 34.2275 173.109 34.4088 173.118 34.5903V37.0082H172.378ZM169.4 32.4219V33.1103C169.222 33.1028 169.045 33.138 168.884 33.2128C168.722 33.2876 168.58 33.4 168.471 33.5405C168.273 33.784 168.164 34.0874 168.161 34.401H169.4V35.0205H168.161C168.165 35.3847 168.25 35.7433 168.411 36.0703C168.541 36.1974 168.696 36.2959 168.867 36.3596C169.037 36.4234 169.219 36.4508 169.4 36.4403V37.1287H169.34C169.061 37.1444 168.783 37.0969 168.525 36.9896C168.267 36.8823 168.037 36.718 167.851 36.5091C167.488 36.0123 167.314 35.402 167.361 34.7882C167.326 34.1663 167.523 33.5535 167.912 33.0672C168.092 32.8477 168.319 32.6718 168.577 32.5526C168.835 32.4334 169.116 32.374 169.4 32.3789V32.4219ZM155.151 37.0082V36.3284H155.461C155.839 36.3509 156.213 36.2414 156.519 36.0187C156.726 35.7805 156.837 35.4736 156.829 35.1582C156.829 35.0204 156.802 34.884 156.749 34.7569C156.696 34.6298 156.617 34.5146 156.519 34.4182C156.182 34.2181 155.79 34.1307 155.4 34.1686H155.151V33.4889H155.28C155.629 33.5192 155.977 33.4313 156.27 33.2393C156.377 33.1504 156.462 33.0366 156.516 32.9077C156.57 32.7787 156.592 32.6386 156.579 32.4993C156.583 32.3686 156.558 32.2387 156.504 32.1194C156.45 32.0001 156.37 31.8946 156.27 31.811C156.003 31.6772 155.707 31.615 155.409 31.6303H155.16V30.8817H155.659C156.113 30.8582 156.559 31.016 156.898 31.3205C157.054 31.4465 157.18 31.6066 157.265 31.7885C157.35 31.9705 157.392 32.1695 157.388 32.3703C157.396 32.5962 157.35 32.8208 157.254 33.0256C157.158 33.2304 157.016 33.4098 156.837 33.5491C156.708 33.6093 156.648 33.6696 156.528 33.7384C156.865 33.8089 157.167 33.9957 157.381 34.2662C157.595 34.5367 157.707 34.8737 157.698 35.2184C157.702 35.4694 157.648 35.7179 157.541 35.9447C157.433 36.1715 157.275 36.3705 157.078 36.5263C156.615 36.8711 156.046 37.0445 155.469 37.0168L155.151 37.0082ZM159.307 32.551V35.3991C159.294 35.6882 159.379 35.9733 159.548 36.208C159.635 36.2998 159.743 36.3695 159.863 36.4114C159.983 36.4533 160.111 36.4662 160.236 36.4489C160.399 36.4608 160.562 36.4335 160.712 36.369C160.862 36.3046 160.994 36.2051 161.097 36.0789C161.34 35.7369 161.451 35.3176 161.407 34.9001V32.551H162.155V37.0082H161.475V36.3284C161.393 36.3955 161.329 36.481 161.286 36.578C161.147 36.7571 160.968 36.901 160.763 36.9982C160.559 37.0953 160.334 37.143 160.107 37.1373C159.682 37.1546 159.264 37.0204 158.928 36.7587C158.792 36.5978 158.69 36.4115 158.626 36.2106C158.563 36.0098 158.54 35.7983 158.558 35.5884V32.551H159.307ZM166.922 32.551L165.201 37.1373C165.052 37.627 164.82 38.0871 164.513 38.4968C164.387 38.6085 164.24 38.6935 164.08 38.7467C163.92 38.7999 163.751 38.8203 163.584 38.8066C163.457 38.8139 163.331 38.7934 163.214 38.7464V38.0666C163.354 38.1159 163.504 38.1364 163.652 38.1268C163.734 38.1296 163.815 38.114 163.889 38.0812C163.964 38.0484 164.03 37.9993 164.083 37.9375C164.254 37.6959 164.38 37.4246 164.453 37.1373L164.513 37.0684L162.844 32.551H163.704L164.883 36.208L166.053 32.551H166.914H166.922ZM155.151 30.873V31.6217H153.791V33.4803H155.151V34.16H153.791V36.3284H155.151V37.0082H152.983V30.873H155.151ZM147.596 37.1373V36.4489H147.656C147.915 36.4624 148.173 36.3996 148.396 36.2682C148.506 36.2049 148.598 36.115 148.665 36.0068C148.731 35.8985 148.769 35.7754 148.775 35.6487H149.515C149.449 36.0812 149.229 36.4754 148.895 36.7587C148.511 37.0135 148.057 37.1455 147.596 37.1373ZM147.596 35.0291V34.4268H148.835C148.834 34.0919 148.725 33.7662 148.525 33.4975C148.421 33.3729 148.288 33.2745 148.139 33.2103C147.99 33.146 147.827 33.1177 147.665 33.1275H147.605V32.4391H147.665C147.935 32.4228 148.205 32.4705 148.453 32.5781C148.701 32.6858 148.921 32.8504 149.093 33.0586C149.471 33.5511 149.665 34.1594 149.644 34.7796V35.0291H147.596ZM147.596 32.4477V33.1361C147.418 33.1286 147.241 33.1638 147.079 33.2386C146.918 33.3135 146.776 33.4258 146.667 33.5663C146.515 33.8335 146.411 34.1245 146.357 34.4268H147.596V35.0463H146.357C146.374 35.4161 146.48 35.7762 146.667 36.0961C146.78 36.229 146.923 36.3322 147.085 36.3968C147.247 36.4613 147.423 36.4851 147.596 36.4661V37.1545C147.317 37.1703 147.038 37.1227 146.781 37.0154C146.523 36.9081 146.293 36.7439 146.107 36.5349C145.903 36.3009 145.747 36.0277 145.651 35.7319C145.555 35.436 145.52 35.1238 145.548 34.814C145.516 34.191 145.715 33.5781 146.107 33.0931C146.287 32.8731 146.515 32.6968 146.772 32.5776C147.03 32.4583 147.312 32.3992 147.596 32.4047V32.4477ZM135.765 37.1631V36.4747C135.942 36.4822 136.12 36.447 136.281 36.3722C136.443 36.2974 136.584 36.185 136.694 36.0445C136.935 35.6762 137.063 35.2456 137.063 34.8054C137.063 34.3652 136.935 33.9346 136.694 33.5663C136.588 33.4172 136.449 33.2945 136.288 33.2079C136.126 33.1214 135.947 33.0732 135.765 33.0672V32.4477C136.042 32.432 136.32 32.4796 136.576 32.5869C136.832 32.6943 137.061 32.8585 137.245 33.0672C137.628 33.5568 137.827 34.1665 137.804 34.7882C137.832 35.3949 137.633 35.9903 137.245 36.4575C137.066 36.6773 136.841 36.8536 136.584 36.9729C136.328 37.0922 136.047 37.1513 135.765 37.1459V37.1631ZM138.673 37.034V32.5768H139.43V33.2566L139.559 33.0672C139.702 32.8734 139.889 32.7161 140.104 32.6084C140.32 32.5007 140.557 32.4457 140.798 32.4477C140.971 32.4441 141.142 32.4758 141.302 32.5409C141.462 32.606 141.607 32.7032 141.728 32.8263C141.841 32.9007 141.929 33.0091 141.977 33.1361L142.098 33.007C142.229 32.8341 142.398 32.6937 142.592 32.5967C142.786 32.4997 142.999 32.4487 143.216 32.4477C143.417 32.4334 143.619 32.4595 143.81 32.5245C144 32.5895 144.176 32.6922 144.326 32.8263C144.455 32.9679 144.553 33.1337 144.617 33.3139C144.681 33.4942 144.707 33.6853 144.696 33.8761V37.0082H143.956V34.16C143.977 33.8774 143.911 33.5951 143.767 33.3512C143.687 33.269 143.59 33.2049 143.483 33.1634C143.376 33.1218 143.262 33.1037 143.147 33.1103C142.994 33.1045 142.842 33.1351 142.703 33.1994C142.564 33.2637 142.442 33.3599 142.347 33.4803C142.154 33.7944 142.066 34.1624 142.098 34.53V37.0082H141.358V33.9707C141.368 33.8461 141.351 33.7207 141.308 33.6033C141.265 33.4859 141.197 33.3793 141.108 33.291C140.971 33.1696 140.792 33.105 140.609 33.1103C140.441 33.1045 140.274 33.1408 140.124 33.216C139.974 33.2911 139.845 33.4027 139.749 33.5405C139.539 33.85 139.431 34.2168 139.439 34.5903V37.0082H138.699L138.673 37.034ZM135.765 32.4477V33.0672C135.581 33.0712 135.401 33.1185 135.24 33.2052C135.078 33.292 134.94 33.4157 134.835 33.5663C134.632 33.9477 134.525 34.3732 134.525 34.8054C134.525 35.2376 134.632 35.6631 134.835 36.0445C134.943 36.1866 135.084 36.3002 135.246 36.3752C135.408 36.4502 135.586 36.4844 135.765 36.4747V37.1631C135.489 37.1713 135.215 37.113 134.966 36.9932C134.718 36.8734 134.502 36.6956 134.336 36.4747C133.952 36.0055 133.753 35.4115 133.777 34.8054C133.759 34.1843 133.956 33.5761 134.336 33.0845C134.505 32.8718 134.724 32.7039 134.973 32.5959C135.222 32.4878 135.494 32.4428 135.765 32.4649V32.4477ZM117.858 35.2356V34.7452H118.288L118.478 33.5061H117.858V33.007H118.538L118.787 31.1484H119.347L119.097 33.007H119.958L119.889 33.5061H118.968L118.848 34.7452H119.708L119.648 35.2356H118.727L118.478 37.0082H117.979L118.228 35.2098L117.858 35.2356ZM122.444 37.0082V32.7059H121.076V32.1552C121.43 32.1561 121.776 32.0479 122.066 31.8454C122.346 31.6319 122.544 31.3278 122.625 30.9849H123.245V37.0082H122.444ZM127.951 37.0082V30.873H128.76V33.4545H131.978V30.873H132.787V37.0082H131.978V34.16H128.76V37.0082H127.951ZM117.858 32.9812V33.4803H117.419L117.239 34.7193H117.858V35.2098H117.178L116.869 37.0082H116.37L116.619 35.2098H115.69L115.75 34.7193H116.679L116.869 33.4803H115.939L116 32.9812H116.929L117.178 31.1226H117.729L117.488 32.9812H117.858ZM106.397 37.1373V36.5177C106.564 36.5154 106.729 36.4746 106.878 36.3986C107.027 36.3225 107.157 36.2131 107.257 36.0789C107.522 35.772 107.655 35.3732 107.627 34.9689C107.64 34.4942 107.533 34.0238 107.317 33.6007C107.221 33.4433 107.083 33.3147 106.92 33.2285C106.756 33.1422 106.573 33.1014 106.388 33.1103V32.4219C106.623 32.442 106.851 32.5143 107.055 32.6333C107.259 32.7524 107.434 32.9153 107.567 33.1103L107.627 33.1705V30.873H108.367V37.0082H107.627V36.3887L107.567 36.5177C107.431 36.704 107.254 36.8567 107.049 36.964C106.845 37.0714 106.619 37.1307 106.388 37.1373H106.397ZM111.973 33.8503C111.945 33.631 111.834 33.4307 111.663 33.291C111.458 33.1402 111.212 33.054 110.958 33.0433C110.703 33.0326 110.452 33.0978 110.234 33.2307C110.169 33.2725 110.113 33.3277 110.071 33.3927C110.029 33.4578 110.001 33.5311 109.99 33.6077C109.979 33.6844 109.984 33.7626 110.005 33.8371C110.026 33.9116 110.064 33.9806 110.114 34.0396C110.316 34.1767 110.55 34.2597 110.794 34.2805L111.603 34.4698C111.941 34.5392 112.26 34.6865 112.532 34.9001C112.624 35.0119 112.693 35.1411 112.734 35.2801C112.776 35.419 112.789 35.5648 112.773 35.7089C112.781 35.9046 112.747 36.0999 112.673 36.2811C112.599 36.4624 112.486 36.6254 112.343 36.7587C111.962 37.0225 111.506 37.1554 111.043 37.1373C110.538 37.1718 110.036 37.0387 109.615 36.7587C109.446 36.6168 109.313 36.4366 109.228 36.233C109.142 36.0294 109.107 35.8085 109.124 35.5884H109.864C109.856 35.7185 109.88 35.8486 109.934 35.9671C109.988 36.0857 110.071 36.1891 110.174 36.2682C110.44 36.4019 110.737 36.4642 111.035 36.4489C111.294 36.4624 111.551 36.3996 111.775 36.2682C111.862 36.2058 111.932 36.121 111.976 36.0226C112.02 35.9243 112.036 35.8159 112.024 35.7089C112.022 35.5946 111.979 35.4848 111.904 35.3991C111.698 35.2603 111.462 35.1745 111.215 35.1496L110.415 34.9689C110.089 34.9164 109.788 34.7629 109.555 34.53C109.455 34.4348 109.375 34.3199 109.322 34.1925C109.269 34.0652 109.242 33.9281 109.245 33.79C109.241 33.597 109.285 33.4059 109.372 33.2335C109.459 33.0611 109.587 32.9124 109.744 32.8005C110.071 32.5284 110.49 32.3928 110.914 32.4219C111.358 32.4035 111.795 32.537 112.153 32.8005C112.311 32.9256 112.438 33.0853 112.525 33.2673C112.611 33.4493 112.655 33.6488 112.652 33.8503H111.973ZM106.397 32.4219V33.1103C106.223 33.0913 106.048 33.1151 105.886 33.1796C105.724 33.2441 105.58 33.3474 105.467 33.4803C105.263 33.8811 105.177 34.3316 105.218 34.7796C105.158 35.2171 105.269 35.6607 105.528 36.0187C105.615 36.1698 105.74 36.2955 105.891 36.383C106.042 36.4706 106.214 36.517 106.388 36.5177V37.1373H106.328C106.054 37.1362 105.783 37.0738 105.536 36.9547C105.289 36.8356 105.071 36.6628 104.899 36.4489C104.552 35.9184 104.377 35.293 104.4 34.6591C104.385 34.0797 104.56 33.5113 104.899 33.0414C105.065 32.8426 105.273 32.6837 105.508 32.5764C105.744 32.4692 106 32.4164 106.259 32.4219H106.397ZM96.7938 37.0684V36.4489C97.0571 36.4333 97.3119 36.3503 97.5338 36.208C97.7231 36.0187 97.8436 35.8982 97.8436 35.6487C97.9038 35.6487 97.9038 35.5884 97.9038 35.5196V34.7796C97.7834 34.8398 97.5941 34.8398 97.4736 34.9001L96.7938 34.9689V34.4268L97.3531 34.2977H97.5941C97.7231 34.2375 97.7834 34.2375 97.8436 34.117C97.9038 33.9966 97.9038 33.988 97.9038 33.8675V33.8073C97.9161 33.7011 97.9003 33.5936 97.858 33.4954C97.8158 33.3973 97.7485 33.312 97.6629 33.248C97.4365 33.1147 97.1768 33.049 96.9143 33.0586H96.7938V32.4391H96.9745C97.4211 32.3991 97.8657 32.5349 98.2136 32.8177C98.3677 32.9291 98.4895 33.0794 98.5666 33.2533C98.6437 33.4271 98.6733 33.6182 98.6524 33.8073V36.2854C98.6524 36.3456 98.7127 36.4059 98.7127 36.4661C98.7127 36.5263 98.8331 36.5349 98.902 36.5349H98.988C99.0483 36.4661 99.0483 36.4661 99.1085 36.4661V37.0082C99.0483 37.0082 98.988 37.0684 98.8676 37.0684H98.6783C98.4569 37.0834 98.2374 37.0194 98.0587 36.8877C97.9883 36.7447 97.9251 36.5983 97.8694 36.4489L97.6887 36.6382C97.4341 36.879 97.1078 37.0301 96.7594 37.0684H96.7938ZM99.9518 37.0082V32.551H100.632V33.2307L100.821 32.9812C100.964 32.8069 101.144 32.6664 101.348 32.5697C101.551 32.4731 101.774 32.4226 102 32.4219C102.211 32.3878 102.427 32.4044 102.63 32.4702C102.834 32.536 103.019 32.6491 103.17 32.8003C103.321 32.9515 103.434 33.1365 103.5 33.34C103.566 33.5434 103.583 33.7596 103.549 33.9707V37.0082H102.8V34.2203C102.82 34.0674 102.808 33.9121 102.765 33.764C102.722 33.6159 102.649 33.4783 102.55 33.3598C102.465 33.2675 102.359 33.1974 102.24 33.1554C102.122 33.1134 101.995 33.1009 101.871 33.1189C101.702 33.1071 101.533 33.1409 101.382 33.2165C101.23 33.2922 101.102 33.407 101.01 33.5491C100.775 33.8458 100.664 34.2221 100.7 34.5989V37.0082H99.9604H99.9518ZM96.7938 32.4219V33.0414C96.5726 33.0382 96.3559 33.1044 96.1743 33.2307C96.0749 33.3135 95.9954 33.4176 95.9418 33.5353C95.8882 33.6529 95.8618 33.7812 95.8645 33.9105H95.1848C95.1736 33.7 95.2122 33.4898 95.2974 33.2969C95.3826 33.1041 95.512 32.934 95.6752 32.8005C95.9871 32.5378 96.3866 32.4026 96.7938 32.4219ZM96.7938 34.4096V34.9689C96.5014 34.998 96.2221 35.1049 95.985 35.2787C95.9023 35.3135 95.8332 35.3744 95.7882 35.452C95.7432 35.5296 95.7247 35.6198 95.7355 35.7089C95.7334 35.93 95.7995 36.1463 95.9248 36.3284C96.0008 36.3954 96.0894 36.4467 96.1854 36.4792C96.2814 36.5117 96.3829 36.5248 96.4841 36.5177C96.6045 36.5177 96.7336 36.5177 96.7938 36.4489V37.0684C96.6561 37.1294 96.5048 37.1531 96.355 37.1373C96.1637 37.1464 95.9725 37.1176 95.7923 37.0527C95.6122 36.9877 95.4466 36.8878 95.3052 36.7587C95.1819 36.6383 95.0853 36.4934 95.0215 36.3333C94.9578 36.1732 94.9284 36.0015 94.9352 35.8294C94.9244 35.6567 94.9519 35.4839 95.0159 35.3232C95.0799 35.1625 95.1787 35.018 95.3052 34.9001C95.5879 34.6201 95.9589 34.4468 96.355 34.4096H96.7938ZM81.3656 38.8668V38.2473C81.5198 38.2517 81.6729 38.2206 81.8131 38.1565C81.9533 38.0923 82.077 37.9968 82.1744 37.8773C82.4311 37.5393 82.562 37.1225 82.5444 36.6984V36.5177C82.413 36.709 82.237 36.8653 82.0316 36.9733C81.8262 37.0812 81.5976 37.1375 81.3656 37.1373V36.4489C81.5272 36.4525 81.6876 36.4213 81.8361 36.3575C81.9845 36.2937 82.1175 36.1986 82.2261 36.0789C82.4353 35.747 82.5429 35.3612 82.5358 34.9689C82.5904 34.4909 82.4812 34.0086 82.2261 33.6007C82.1506 33.4403 82.0275 33.3071 81.8735 33.2193C81.7195 33.1315 81.5421 33.0934 81.3656 33.1103V32.4219C81.598 32.4193 81.8265 32.4825 82.0244 32.6043C82.2224 32.7262 82.3818 32.9016 82.4842 33.1103L82.5444 33.1705V32.551H83.2844V36.6984C83.3314 37.3122 83.1574 37.9226 82.794 38.4194C82.3948 38.7537 81.886 38.9284 81.3656 38.9098V38.8668ZM86.8812 37.0082V30.873H87.7417V37.0082H86.8812ZM91.588 33.8503C91.5885 33.7383 91.5604 33.6281 91.5061 33.5302C91.4519 33.4323 91.3734 33.3499 91.2782 33.291C91.1777 33.2022 91.0605 33.1344 90.9334 33.0915C90.8063 33.0487 90.672 33.0316 90.5382 33.0414C90.2946 33.0313 90.054 33.0975 89.8498 33.2307C89.7656 33.2816 89.698 33.3559 89.6553 33.4445C89.6125 33.5331 89.5964 33.6322 89.6089 33.7298C89.6086 33.7929 89.6252 33.8549 89.657 33.9094C89.6887 33.9638 89.7345 34.0088 89.7896 34.0396C89.987 34.186 90.2238 34.2699 90.4694 34.2805L91.218 34.4698C91.5569 34.5392 91.8751 34.6865 92.1473 34.9001C92.2505 35.0072 92.3311 35.1341 92.3843 35.273C92.4375 35.412 92.4623 35.5602 92.4571 35.7089C92.4526 35.9092 92.4059 36.1063 92.3199 36.2872C92.2339 36.4681 92.1105 36.6288 91.958 36.7587C91.5815 37.031 91.1225 37.1648 90.6587 37.1373C90.1752 37.1732 89.6944 37.0393 89.2991 36.7587C89.1302 36.6128 88.9933 36.4334 88.8971 36.2321C88.8008 36.0307 88.7473 35.8115 88.7398 35.5884H89.5229C89.5377 35.8457 89.6482 36.0882 89.8326 36.2682C90.099 36.4019 90.3955 36.4642 90.6931 36.4489C90.9745 36.4679 91.2554 36.4051 91.5019 36.2682C91.652 36.1203 91.7385 35.9196 91.7429 35.7089C91.7441 35.6456 91.7279 35.5833 91.6961 35.5286C91.6642 35.474 91.6179 35.4292 91.5622 35.3991C91.3601 35.2603 91.1263 35.1745 90.8824 35.1496L90.0736 34.9689C89.7593 34.884 89.4663 34.7346 89.2131 34.53C89.1235 34.4301 89.0551 34.3129 89.0122 34.1857C88.9693 34.0585 88.9528 33.9239 88.9636 33.79C88.9494 33.6017 88.982 33.4128 89.0586 33.2401C89.1352 33.0675 89.2533 32.9164 89.4024 32.8005C89.7374 32.5374 90.1557 32.4031 90.5812 32.4219C91.0263 32.3954 91.4661 32.5298 91.8203 32.8005C91.9772 32.926 92.1031 33.0861 92.1881 33.2681C92.2732 33.4502 92.3152 33.6494 92.3108 33.8503H91.588ZM93.3089 37.0082V30.873H94.0489V37.0082H93.3089ZM81.3484 32.4219V33.1103C81.1752 33.0935 81.0006 33.1184 80.8389 33.1827C80.6773 33.2471 80.5333 33.3491 80.4191 33.4803C80.1984 33.8767 80.0913 34.3263 80.1093 34.7796C80.0905 35.2139 80.1981 35.6443 80.4191 36.0187C80.5244 36.1638 80.665 36.2795 80.8277 36.3548C80.9904 36.4301 81.1696 36.4625 81.3484 36.4489V37.1373H81.2882C81.0123 37.1455 80.7386 37.0872 80.49 36.9674C80.2414 36.8476 80.0252 36.6698 79.8598 36.4489C79.4887 35.9296 79.3148 35.2951 79.3693 34.6591C79.3221 34.0773 79.4974 33.4991 79.8598 33.0414C80.0262 32.8415 80.2357 32.6818 80.4727 32.5745C80.7097 32.4672 80.9679 32.415 81.2279 32.4219H81.3484ZM81.3484 38.2473V38.8668H81.2279C80.7936 38.8857 80.3632 38.7781 79.9888 38.5571C79.6745 38.292 79.4742 37.9161 79.4295 37.5073H80.2298C80.2574 37.7266 80.3683 37.9268 80.5395 38.0666C80.7232 38.1878 80.9391 38.2508 81.1591 38.2473H81.3484ZM71.8832 37.1373V36.4489C72.0721 36.464 72.2617 36.4327 72.4357 36.3577C72.6097 36.2827 72.7627 36.1663 72.8814 36.0187C73.0847 35.6373 73.1911 35.2118 73.1911 34.7796C73.1911 34.3474 73.0847 33.9219 72.8814 33.5405C72.7671 33.3835 72.6168 33.2562 72.4431 33.1694C72.2694 33.0826 72.0774 33.0387 71.8832 33.0414V32.4219C72.1703 32.4118 72.4563 32.4616 72.723 32.5683C72.9897 32.675 73.2312 32.8361 73.4321 33.0414C73.816 33.531 74.0141 34.1407 73.9914 34.7624C74.0196 35.3691 73.8202 35.9645 73.4321 36.4317C73.2362 36.6482 72.9973 36.8213 72.7305 36.9399C72.4638 37.0584 72.1751 37.1198 71.8832 37.1201V37.1373ZM74.8949 37.0082V32.551H75.5746V33.2307L75.7639 32.9812C75.9071 32.8069 76.087 32.6664 76.2908 32.5697C76.4946 32.4731 76.7172 32.4226 76.9428 32.4219C77.3655 32.4044 77.7806 32.5387 78.113 32.8005C78.3749 33.1329 78.5091 33.548 78.4916 33.9707V37.0082H77.743V34.2203C77.763 34.0674 77.7511 33.9121 77.7082 33.764C77.6652 33.6159 77.5921 33.4783 77.4935 33.3598C77.4082 33.2675 77.3018 33.1974 77.1834 33.1554C77.0649 33.1134 76.9381 33.1009 76.8137 33.1189C76.6449 33.1071 76.4761 33.1409 76.3247 33.2165C76.1734 33.2922 76.0451 33.407 75.9532 33.5491C75.718 33.8458 75.607 34.2221 75.6435 34.5989V37.0082H74.8949ZM65.4297 37.0082V30.873H66.2902V36.2682H69.3879V37.0082H65.4297ZM71.866 32.4219V33.0414C71.6831 33.0474 71.5041 33.0955 71.3429 33.1821C71.1817 33.2687 71.0427 33.3913 70.9367 33.5405C70.7333 33.9219 70.6269 34.3474 70.6269 34.7796C70.6269 35.2118 70.7333 35.6373 70.9367 36.0187C71.0462 36.1592 71.1876 36.2715 71.3492 36.3464C71.5109 36.4212 71.688 36.4564 71.866 36.4489V37.1373C71.5832 37.1427 71.3029 37.0835 71.0464 36.9642C70.7899 36.845 70.564 36.6687 70.386 36.4489C69.9979 35.9817 69.7984 35.3863 69.8267 34.7796C69.804 34.1579 70.0021 33.5482 70.386 33.0586C70.5696 32.8499 70.7982 32.6857 71.0546 32.5783C71.311 32.471 71.5885 32.4234 71.866 32.4391V32.4219Z" fill="black"/>
<path d="M195.171 36.8873V35.5192C195.326 35.5236 195.479 35.4925 195.619 35.4283C195.759 35.3642 195.883 35.2687 195.98 35.1491C196.21 34.8008 196.319 34.3866 196.29 33.9703C196.31 33.5765 196.201 33.1868 195.98 32.8603C195.888 32.7353 195.765 32.6359 195.624 32.5712C195.482 32.5065 195.327 32.4786 195.171 32.4903V31.1222C195.943 31.102 196.694 31.3688 197.28 31.8708C197.553 32.145 197.767 32.4735 197.906 32.835C198.045 33.1966 198.107 33.5833 198.088 33.9703C198.113 34.3683 198.054 34.767 197.915 35.1406C197.776 35.5142 197.559 35.8543 197.28 36.1387C196.699 36.6497 195.944 36.9177 195.171 36.8873ZM198.708 32.585V31.2856H201.384V31.7159C201.926 31.3871 202.548 31.2144 203.182 31.2168C203.509 31.1879 203.838 31.2412 204.138 31.372C204.439 31.5028 204.702 31.7068 204.903 31.9654C205.553 31.4954 206.33 31.2343 207.132 31.2168C207.519 31.1831 207.907 31.2703 208.242 31.4663C208.387 31.5297 208.518 31.623 208.624 31.7402C208.731 31.8573 208.812 31.9956 208.862 32.1461C208.99 32.5695 209.034 33.0138 208.991 33.454V35.5536H209.92V36.7927H207.253V33.5659C207.253 33.0066 207.003 32.7054 206.513 32.7054C206.056 32.7217 205.61 32.8487 205.213 33.0754V35.5536H206.142V36.7927H203.475V33.5659C203.475 32.9463 203.226 32.6366 202.735 32.6366C202.277 32.6616 201.83 32.7879 201.427 33.0066V35.4847H202.356V36.7238H198.768V35.4847H199.663V32.5161L198.708 32.585ZM182.54 36.7927V34.8738H184.459V36.7927H182.54ZM195.171 31.1566V32.5247C194.431 32.5247 194.061 33.0152 194.061 34.0736C194.048 34.4479 194.157 34.8164 194.371 35.1233C194.451 35.2626 194.569 35.3767 194.71 35.4527C194.851 35.5287 195.011 35.5637 195.171 35.5536V36.9217C194.421 36.9405 193.692 36.6728 193.132 36.1731C192.845 35.8919 192.62 35.5536 192.472 35.1801C192.324 34.8067 192.256 34.4062 192.272 34.0047C192.263 33.6143 192.334 33.2263 192.482 32.865C192.63 32.5036 192.852 32.1769 193.132 31.9052C193.692 31.4055 194.421 31.1378 195.171 31.1566ZM191.523 31.2856V33.5143H190.284C190.177 33.2387 189.989 33.0022 189.745 32.8362C189.501 32.6701 189.211 32.5825 188.916 32.585C188.744 32.5797 188.573 32.6098 188.413 32.6735C188.253 32.7371 188.108 32.8329 187.987 32.9549C187.786 33.2684 187.678 33.6325 187.677 34.0047C187.658 34.2159 187.681 34.4288 187.744 34.6311C187.808 34.8334 187.91 35.0212 188.047 35.1836C188.155 35.3033 188.288 35.3983 188.437 35.4622C188.585 35.526 188.746 35.5572 188.907 35.5536C189.196 35.5668 189.481 35.4819 189.716 35.3126C189.95 35.135 190.158 34.9266 190.336 34.6931L191.695 35.2438C191.49 35.774 191.122 36.2257 190.644 36.5347C190.167 36.8437 189.604 36.9942 189.036 36.9647C188.186 37.0056 187.35 36.74 186.679 36.2161C186.399 35.9318 186.183 35.5917 186.043 35.2181C185.904 34.8445 185.845 34.4457 185.87 34.0477C185.847 33.6693 185.907 33.2904 186.047 32.9379C186.187 32.5854 186.402 32.2681 186.679 32.0084C187.221 31.5193 187.927 31.252 188.658 31.2598C189.257 31.2354 189.847 31.4109 190.336 31.7589V31.3287L191.523 31.2856Z" fill="#C53629"/>
</svg>
