<svg width="20" height="20" viewBox="0 0 20 20" fill="none" xmlns="http://www.w3.org/2000/svg">
<path opacity="0.4" d="M12.0154 4.57415C11.6187 4.50087 11.2543 4.75402 11.1788 5.14126C11.1033 5.52849 11.3573 5.90657 11.7432 5.98235C12.9051 6.20886 13.8022 7.10824 14.0296 8.27411V8.27494C14.0943 8.61054 14.3898 8.85454 14.73 8.85454C14.7757 8.85454 14.8213 8.85038 14.8678 8.84205C15.2537 8.7646 15.5077 8.38736 15.4322 7.9993C15.0927 6.25799 13.7524 4.91308 12.0154 4.57415Z" fill="white"/>
<path opacity="0.4" d="M11.9635 1.67262C11.7776 1.64598 11.5909 1.70094 11.4423 1.81919C11.2896 1.93911 11.1942 2.11232 11.1735 2.30636C11.1295 2.69859 11.4125 3.05334 11.8042 3.09748C14.5056 3.39894 16.6053 5.50333 16.909 8.21313C16.9497 8.57622 17.2543 8.85019 17.6178 8.85019C17.6452 8.85019 17.6717 8.84853 17.6991 8.8452C17.8891 8.82438 18.0585 8.73028 18.178 8.58038C18.2966 8.43048 18.3506 8.24394 18.329 8.05324C17.9506 4.67223 15.3338 2.0482 11.9635 1.67262Z" fill="white"/>
<path fill-rule="evenodd" clip-rule="evenodd" d="M9.19296 10.8103C12.5172 14.1336 13.2713 10.2889 15.3879 12.404C17.4284 14.444 18.6012 14.8527 16.0159 17.4373C15.692 17.6975 13.6345 20.8286 6.40367 13.5997C-0.828061 6.37 2.30116 4.31037 2.56148 3.98662C5.15306 1.39487 5.55472 2.57449 7.59525 4.61444C9.71181 6.73041 5.86872 7.48701 9.19296 10.8103Z" fill="white"/>
</svg>
