<svg width="56" height="56" viewBox="0 0 56 56" fill="none" xmlns="http://www.w3.org/2000/svg">
<g clip-path="url(#clip0_4616_112156)">
<path d="M6.09547 0H33.5792C35.1564 0.09625 36.6997 0.765625 37.8055 1.90094C38.9944 3.09203 39.678 4.76547 39.6659 6.44766C39.6692 13.9552 39.6637 21.4638 39.6692 28.9713C35.4495 33.2019 31.2123 37.4161 26.9872 41.6402C26.2631 42.3784 25.4603 43.0653 24.9462 43.9775C24.0308 45.4923 24.0089 47.3134 23.6359 48.9989C18.3094 49.0022 12.9828 48.9989 7.65625 49C6.7375 48.9912 5.80234 49.0569 4.90437 48.8162C3.30969 48.4323 1.88125 47.4119 1.00406 46.0261C0.405781 45.0942 0.0732812 44.0059 0 42.9045V6.10422C0.0896875 4.55766 0.732813 3.04172 1.82656 1.93812C2.93891 0.784219 4.49859 0.0951563 6.09547 0ZM9.11094 9.345C8.23812 9.41938 7.44297 10.0373 7.14547 10.8598C6.86766 11.5916 6.99781 12.4589 7.47906 13.0758C7.92422 13.6686 8.66031 14.0219 9.40297 14C12.32 14 15.237 14 18.1541 14C18.5577 14 18.9722 14.0219 19.3605 13.8917C20.1184 13.6577 20.7353 13.0123 20.9256 12.2402C21.1433 11.4275 20.8655 10.5131 20.242 9.95094C19.8034 9.53859 19.1975 9.31875 18.597 9.33297C15.435 9.34172 12.273 9.31766 9.11094 9.345ZM8.68219 18.76C7.93297 18.9755 7.315 19.5902 7.09734 20.3383C6.87859 21.0569 7.03828 21.8761 7.51625 22.4558C7.96359 23.0234 8.68437 23.3538 9.40625 23.333C16.3669 23.333 23.3275 23.3341 30.2881 23.333C31.1161 23.3527 31.9287 22.8933 32.3422 22.178C32.7709 21.4703 32.7709 20.5319 32.3444 19.8242C31.9331 19.1078 31.1216 18.6473 30.2958 18.667C23.3341 18.6659 16.3723 18.667 9.41062 18.6659C9.16562 18.667 8.91734 18.6889 8.68219 18.76ZM8.6975 28.0886C8.00406 28.2844 7.41781 28.8181 7.15969 29.4908C6.88078 30.1908 6.97594 31.0242 7.40687 31.6422C7.84328 32.2919 8.61984 32.6911 9.40297 32.667C13.2705 32.6659 17.138 32.6681 21.0055 32.6648C21.782 32.6681 22.54 32.2503 22.9567 31.5963C23.4161 30.9039 23.4555 29.96 23.053 29.2327C22.6614 28.4911 21.8477 27.9945 21.0066 28.0011C17.1402 27.9978 13.2727 28.0011 9.40625 28C9.16781 28 8.92719 28.0219 8.6975 28.0886Z" fill="#DE0030"/>
<path d="M46.4817 28.757C47.1949 28.0318 48.0819 27.4095 49.1111 27.2717C50.136 27.1229 51.1914 27.5298 51.9144 28.256C52.8999 29.2393 53.8886 30.2193 54.8653 31.2114C55.5271 31.8873 55.9077 32.8006 56.0028 33.7357V34.3067C55.9175 35.325 55.4647 36.3017 54.7264 37.0093C49.0028 42.734 43.2792 48.4576 37.5535 54.1812C37.256 54.4973 36.8535 54.6975 36.4247 54.7587C34.0753 55.1743 31.726 55.5856 29.3766 56.0001H29.0791C28.1286 55.9214 27.3531 54.9862 27.503 54.0357C27.8869 51.7673 28.3025 49.5032 28.6941 47.2359C28.7433 46.9581 28.7914 46.6726 28.9271 46.421C29.0977 46.0962 29.3832 45.8578 29.6369 45.5996C35.2522 39.9854 40.8653 34.369 46.4817 28.757Z" fill="#DE0030"/>
</g>
<defs>
<clipPath id="clip0_4616_112156">
<rect width="56" height="56" fill="white"/>
</clipPath>
</defs>
</svg>
