<svg width="56" height="56" viewBox="0 0 56 56" fill="none" xmlns="http://www.w3.org/2000/svg">
<path d="M27.7098 3.54934C28.1167 3.41481 28.5323 3.61168 28.867 3.83371C30.0854 4.65293 31.0436 5.88559 32.4676 6.37668C33.7506 6.80981 35.1058 6.43684 36.3931 6.22574C36.9564 6.13824 37.5503 6.01137 38.1092 6.18528C38.5576 6.40184 38.7545 6.90059 38.9459 7.32934C39.4993 8.6495 39.7804 10.1687 40.8589 11.1936C41.969 12.2403 43.5353 12.4711 44.8751 13.0967C45.2645 13.2793 45.7162 13.5397 45.784 14.0089C45.877 14.6356 45.7239 15.2634 45.6265 15.8792C45.41 17.0495 45.1453 18.2898 45.5412 19.4525C45.9733 20.7114 46.9992 21.6137 47.7889 22.644C48.0744 23.0279 48.4014 23.4414 48.4101 23.9423C48.3511 24.5526 47.9103 25.0218 47.5526 25.4867C46.729 26.4897 45.7206 27.45 45.4329 28.7657C45.0731 30.3878 45.8114 31.9704 45.8103 33.5848C45.8278 34.0147 45.5511 34.3854 45.1792 34.5747C44.1959 35.1182 43.0737 35.3403 42.0664 35.8325C41.3773 36.154 40.7473 36.6309 40.3229 37.2697C39.6284 38.2901 39.379 39.5206 38.8868 40.6373C38.7031 41.0354 38.4942 41.5047 38.0534 41.6676C37.4442 41.8164 36.8153 41.6731 36.2094 41.5736C34.9581 41.3603 33.6292 41.0267 32.39 41.4828C30.9101 42.022 29.9509 43.364 28.6198 44.1439C28.2173 44.3998 27.7 44.3659 27.3073 44.1067C25.9281 43.2601 24.9109 41.8142 23.2878 41.3843C21.6078 40.9479 19.9475 41.7529 18.2675 41.7256C17.8168 41.7398 17.4811 41.3909 17.2918 41.0179C16.687 39.8542 16.4693 38.5198 15.7606 37.4053C15.4183 36.8486 14.9304 36.3881 14.3639 36.0643C13.2537 35.407 11.95 35.1937 10.8201 34.5779C10.4472 34.3876 10.1672 34.0168 10.1836 33.5848C10.1879 31.9059 10.9831 30.2368 10.5106 28.559C10.0545 26.9632 8.62388 25.957 7.79372 24.5822C7.54435 24.1961 7.52028 23.6929 7.76638 23.2992C8.55935 21.9473 9.93747 20.975 10.4548 19.4547C10.9022 18.1334 10.5095 16.7454 10.2908 15.4209C10.2175 14.8817 10.0851 14.3075 10.282 13.7803C10.527 13.3154 11.064 13.1251 11.5179 12.9261C12.8184 12.4011 14.3004 12.0981 15.2968 11.0361C16.3676 9.87559 16.5743 8.24481 17.2612 6.87434C17.4515 6.48278 17.7895 6.09231 18.2664 6.10871C19.8972 6.08028 21.4951 6.83606 23.1336 6.48715C24.4045 6.20824 25.3572 5.26106 26.3208 4.45387C26.7528 4.11043 27.1761 3.72324 27.7098 3.54934ZM27.164 9.35934C24.9776 9.48293 22.8208 10.1075 20.9111 11.1782C18.0586 12.762 15.7672 15.3301 14.5236 18.3467C13.3576 21.139 13.1093 24.2978 13.8006 27.2422C14.5586 30.5179 16.5054 33.494 19.1829 35.5229C21.5761 37.3517 24.5478 38.4072 27.5578 38.4903C30.5208 38.5865 33.5078 37.7498 35.9808 36.1125C38.6637 34.3581 40.744 31.6981 41.7842 28.664C42.8451 25.6092 42.8419 22.2 41.7776 19.1473C40.7593 16.192 38.7545 13.5922 36.1656 11.8432C33.5483 10.0506 30.3293 9.17012 27.164 9.35934Z" fill="#BAEF2E"/>
<path d="M26.3077 11.7853C29.1252 11.3882 32.0773 12.0062 34.4835 13.5298C36.9937 15.0939 38.9066 17.5942 39.7412 20.4336C40.6348 23.4129 40.3318 26.7303 38.9012 29.4931C37.5821 32.0765 35.317 34.1612 32.6296 35.255C30.0954 36.2995 27.2046 36.4504 24.5752 35.675C21.4788 34.7879 18.786 32.6081 17.2482 29.7807C15.8373 27.2279 15.4041 24.1611 16.0287 21.314C16.5821 18.735 18.0095 16.3593 20.0077 14.6411C21.7763 13.1109 23.9901 12.1014 26.3077 11.7853ZM27.4726 16.0936C26.7868 17.5275 26.1196 18.9723 25.4415 20.4106C23.9277 20.6567 22.4074 20.8623 20.8948 21.1139C20.4573 21.1631 20.2549 21.7701 20.5765 22.0742C21.5915 23.1351 22.624 24.1818 23.6521 25.2307C23.7374 25.3336 23.9015 25.4364 23.8238 25.595C23.4771 27.1328 23.1085 28.6673 22.7673 30.2062C22.636 30.6645 23.1916 31.0943 23.6018 30.845C25.074 30.1089 26.532 29.3432 27.9998 28.5984C29.4665 29.3432 30.9255 30.1023 32.3945 30.8439C32.8024 31.0954 33.3559 30.6678 33.2301 30.2095C32.8757 28.6247 32.5071 27.042 32.1363 25.4615C33.2016 24.3415 34.2954 23.2467 35.3684 22.1343C35.5784 21.9451 35.6538 21.6137 35.4898 21.3709C35.3673 21.1543 35.107 21.1018 34.8816 21.0712C33.4401 20.8568 31.9996 20.625 30.558 20.4128C29.8777 18.9756 29.2138 17.5318 28.527 16.0979C28.3552 15.6484 27.6476 15.644 27.4726 16.0936Z" fill="#BAEF2E"/>
<path d="M14.0815 39.2134C14.5627 40.3848 14.8438 41.6612 15.6051 42.6981C16.1202 43.4145 16.9318 43.9143 17.8123 44.0193C19.2987 44.2337 20.7348 43.6398 22.208 43.5884C22.9758 43.5501 23.5632 44.1199 24.1166 44.5706C23.258 47.2601 22.4191 49.9551 21.5605 52.6446C21.4851 52.9389 21.1854 53.1128 20.8912 53.0832C17.4283 53.081 13.9644 53.0898 10.5016 53.0789C10.1068 53.1007 9.80053 52.6567 9.95475 52.2946C11.3241 47.9328 12.7099 43.5753 14.0815 39.2134Z" fill="#BAEF2E"/>
<path d="M40.9642 41.7169C41.3339 40.9031 41.58 40.0412 41.9169 39.2144C43.2884 43.574 44.6742 47.9294 46.0414 52.2912C46.1967 52.65 45.8981 53.0951 45.5044 53.0787C42.0383 53.0897 38.5722 53.0809 35.1061 53.0831C34.8075 53.1126 34.5056 52.9333 34.4334 52.6347C33.577 49.9484 32.7381 47.2578 31.8828 44.5715C32.305 44.2194 32.7305 43.8344 33.2587 43.6528C33.9248 43.4931 34.6084 43.6703 35.2702 43.7753C36.4645 43.993 37.7366 44.2697 38.9167 43.8365C39.8858 43.4909 40.5519 42.6247 40.9642 41.7169Z" fill="#BAEF2E"/>
</svg>
