<svg width="56" height="56" viewBox="0 0 56 56" fill="none" xmlns="http://www.w3.org/2000/svg">
<path d="M21.0127 12.4534C20.8672 11.4516 21.7466 10.4923 22.7474 10.5044C26.2496 10.4978 29.7529 10.4967 33.255 10.5044C34.2175 10.4989 35.0871 11.3936 34.9908 12.3648C34.421 17.5776 33.826 22.7883 33.2507 28.0011C33.115 28.957 33.9179 29.9064 34.8804 29.9381C35.7969 30.0201 36.6719 29.2545 36.731 28.3401C37.2243 23.9455 37.7132 19.5508 38.2054 15.1561C43.4871 18.3411 47.1665 23.8733 48.4483 29.8692C48.9372 32.1234 49.0958 34.4476 48.9361 36.7489C34.9788 36.7511 21.0204 36.75 7.06302 36.75C6.75239 32.4723 7.59349 28.1126 9.51192 24.2758C11.3604 20.5526 14.226 17.3119 17.7949 15.1605C18.2849 19.5551 18.776 23.9498 19.2682 28.3445C19.313 28.945 19.6958 29.494 20.2329 29.762C20.9219 30.1219 21.8396 29.9326 22.3329 29.3322C22.6544 28.9701 22.8054 28.4703 22.7463 27.9901C22.1732 22.8101 21.588 17.6323 21.0127 12.4534Z" fill="#DE0030"/>
<path d="M5.51997 40.3212C5.75512 40.2655 5.99575 40.2523 6.23637 40.249C20.5306 40.2512 34.8237 40.2501 49.1179 40.2501C49.6243 40.2567 50.1461 40.2086 50.6361 40.365C51.4345 40.598 52.0918 41.2422 52.3576 42.0286C52.6464 42.8522 52.4812 43.8147 51.9343 44.4961C51.4268 45.1556 50.5934 45.5286 49.7643 45.5012C35.4712 45.499 21.1781 45.5001 6.88497 45.5001C6.29653 45.498 5.68075 45.5461 5.1295 45.3011C4.12762 44.903 3.43965 43.8398 3.50419 42.7603C3.53372 41.6162 4.40653 40.5706 5.51997 40.3212Z" fill="#DE0030"/>
</svg>
