<svg width="37" height="34" viewBox="0 0 37 34" fill="none" xmlns="http://www.w3.org/2000/svg">
<path d="M22.1078 0.16875C22.5807 -0.0317464 23.1604 -0.129814 23.5331 0.319122C24.9365 1.74657 24.675 4.03919 23.9166 5.72597C23.4306 6.60423 22.8292 7.42801 22.5328 8.40216C24.213 8.33242 25.8758 7.83554 27.5561 7.96411C28.9791 8.40433 28.9312 10.4507 27.9178 11.3093C28.9203 12.1985 28.2665 13.6347 27.4079 14.356C28.1488 15.1057 27.7043 16.1757 27.0526 16.8143C27.7413 17.8821 27.081 19.4403 25.8475 19.6931C24.0931 19.9525 22.3236 20.1116 20.567 20.3535C19.4948 20.4711 18.4204 20.713 17.3373 20.5932C16.8208 20.5322 16.3479 20.2837 15.8314 20.2271C15.049 20.2815 14.2732 20.4254 13.4865 20.4624C13.4821 16.9755 13.4429 13.4865 13.4974 9.99959C14.5543 9.91459 15.6549 9.89498 16.6704 9.59641C18.039 8.10577 18.9195 6.22285 20.3186 4.74529C21.4104 3.4486 21.4497 1.66811 22.1078 0.16875Z" fill="#DE0030"/>
<path d="M6.89261 10.1367C8.36364 9.99502 9.82813 9.65722 11.3122 9.73786C11.4582 10.1149 11.5912 10.5072 11.565 10.919C11.552 14.042 11.5607 17.1649 11.5563 20.2857C11.5781 20.6889 11.4125 21.0593 11.2774 21.4276C10.4383 21.7306 9.53828 21.7262 8.66656 21.8591C7.81663 21.9463 6.96017 22.1621 6.11024 21.9725C5.98166 21.5628 5.89667 21.1378 5.91192 20.7041C5.92718 17.5899 5.90321 14.4757 5.925 11.3614C5.86616 10.7817 6.28458 10.1672 6.89261 10.1367Z" fill="#DE0030"/>
<path d="M32.2028 21.1794C33.6084 20.8503 35.1121 20.8961 36.4807 21.3668C36.1778 22.1405 35.8792 22.9163 35.5284 23.6704C34.576 23.2301 33.4515 23.0819 32.4468 23.4372C32.0589 23.4938 31.9761 23.897 32.0807 24.2195C33.5888 24.5857 35.415 24.274 36.5788 25.5228C36.7902 26.2049 36.9493 26.948 36.6856 27.6432C36.3434 28.759 35.2952 29.4826 34.2273 29.8247C32.5362 30.387 30.6576 30.3172 28.9883 29.7136C29.3021 28.9704 29.6094 28.2229 29.9167 27.4776C31.1175 27.9222 32.4229 28.0943 33.6738 27.7456C33.7893 27.5844 33.907 27.4231 34.0225 27.264C33.944 27.1899 33.7849 27.0439 33.7043 26.9698C32.473 26.6865 31.1109 26.8194 29.9951 26.1526C29.0166 25.5489 28.9665 24.1847 29.3893 23.2258C29.9254 22.1361 31.0499 21.4518 32.2028 21.1794Z" fill="#DE0030"/>
<path d="M22.2198 22.3543C23.5492 21.9708 25.0747 21.949 26.3169 22.6267C27.0055 23.0713 27.6484 23.6663 27.9426 24.453C28.6531 26.2269 28.1039 28.3779 26.7157 29.6681C25.796 30.5899 24.5233 31.089 23.2419 31.2132C21.6793 31.4137 19.9337 30.81 19.0707 29.4392C18.4409 28.4934 18.3886 27.2861 18.5629 26.1964C18.9443 24.3636 20.4502 22.8883 22.2198 22.3543ZM22.6164 24.7036C21.2718 25.4162 20.934 27.589 22.1588 28.5653C23.0392 29.1559 24.3686 28.7963 24.8851 27.8854C25.443 27.005 25.5236 25.6516 24.6933 24.9085C24.1681 24.3615 23.2549 24.3963 22.6164 24.7036Z" fill="#DE0030"/>
<path d="M9.36057 23.8672C11.2195 23.7822 13.061 23.3028 14.9265 23.4423C16.3169 23.5316 17.5504 24.7433 17.4545 26.1751C17.57 27.4042 16.8094 28.4961 15.8484 29.1804C16.4607 30.015 17.0252 30.8933 17.716 31.6691C16.6394 31.704 15.5759 31.898 14.5015 31.9699C14.0439 31.327 13.5579 30.6993 13.1547 30.0172C12.8518 30.0172 12.5467 30.0194 12.2438 30.0259C12.2547 30.756 12.2569 31.4883 12.2569 32.2183C11.2958 32.3752 10.326 32.4537 9.36057 32.5605C9.34967 29.6642 9.34749 26.7657 9.36057 23.8672ZM12.2416 25.8242C12.2547 26.4976 12.2547 27.1754 12.2373 27.851C12.7625 27.79 13.3073 27.8052 13.8129 27.6352C14.2575 27.4849 14.4187 27.0098 14.6018 26.6262C14.5037 26.3734 14.41 26.1206 14.3185 25.8678C13.6473 25.5911 12.9324 25.7436 12.2416 25.8242Z" fill="#DE0030"/>
<path d="M0 24.9521C1.71293 24.7777 3.41933 24.4617 5.14533 24.4617C6.1391 24.4399 7.15465 24.8801 7.72999 25.7061C8.42736 26.9788 8.20725 28.707 7.16119 29.7313C6.07154 30.8122 4.46103 31.0868 2.98565 31.1064C2.91155 31.8299 2.90937 32.5578 2.91155 33.2857C1.94612 33.4165 0.974149 33.4971 0.00435954 33.6061C0.0261526 30.7228 0.0326895 27.8374 0 24.9521ZM2.90065 26.9156C2.91809 27.5825 2.91591 28.2515 2.92463 28.9184C3.73751 28.8465 4.62884 28.7963 5.20853 28.1382C5.17584 27.7263 5.1279 27.3166 5.05598 26.9112C4.35861 26.6301 3.61111 26.7587 2.90065 26.9156Z" fill="#DE0030"/>
</svg>
