<svg width="29" height="36" viewBox="0 0 29 36" fill="none" xmlns="http://www.w3.org/2000/svg">
<path d="M20.3086 18.1495L13.6628 15.7967C13.134 15.6095 12.5773 15.57 12.1151 15.6869C11.653 15.8038 11.3232 16.0675 11.1984 16.42C11.0736 16.7725 11.164 17.1849 11.4497 17.5666C11.7353 17.9482 12.1928 18.2678 12.7216 18.455L19.3674 20.8078C19.8962 20.995 20.4529 21.0345 20.9151 20.9176C21.3772 20.8007 21.7069 20.537 21.8318 20.1845C21.9566 19.832 21.8662 19.4195 21.5805 19.0379C21.2949 18.6563 20.8373 18.3367 20.3086 18.1495Z" fill="white"/>
<path d="M13.074 6.61374C13.3923 6.72641 13.7234 6.78976 14.0427 6.79907L21.1498 7.0155C21.7153 7.0327 22.2081 6.88051 22.5199 6.59242C22.8317 6.30432 22.937 5.90391 22.8125 5.47928C22.6881 5.05465 22.3441 4.64058 21.8562 4.32816C21.3684 4.01574 20.7767 3.83055 20.2112 3.81335L13.1047 3.5973C12.6213 3.58244 12.1883 3.69138 11.8768 3.90625C11.5653 4.12111 11.3937 4.42916 11.3902 4.77985C11.3867 5.13054 11.5515 5.50307 11.8576 5.83633C12.1636 6.16959 12.5928 6.4438 13.0747 6.61399L13.074 6.61374Z" fill="white"/>
<path d="M13.0159 29.9896L7.34882 25.6815C6.89746 25.3419 6.32217 25.1162 5.74846 25.0537C5.17475 24.9911 4.64919 25.0967 4.28646 25.3475C3.92372 25.5983 3.75325 25.9739 3.81224 26.3924C3.87123 26.8108 4.15489 27.2381 4.60134 27.5811L10.2684 31.8894C10.7193 32.2321 11.2965 32.4608 11.8729 32.5251C12.4494 32.5893 12.978 32.4839 13.3423 32.232C13.7066 31.98 13.8769 31.6023 13.8157 31.1817C13.7545 30.7612 13.4668 30.3324 13.0159 29.9896Z" fill="white"/>
</svg>
